<?xml version="1.0" encoding="UTF-8" standalone="no"?>
<!DOCTYPE svg PUBLIC "-//W3C//DTD SVG 1.1//EN"
 "http://www.w3.org/Graphics/SVG/1.1/DTD/svg11.dtd">
<!-- Generated by graphviz version 2.36.0 (20140111.2315)
 -->
<!-- Title: controllers_diagram Pages: 1 -->
<svg width="561pt" height="583pt"
 viewBox="0.00 0.00 561.00 583.00" xmlns="http://www.w3.org/2000/svg" xmlns:xlink="http://www.w3.org/1999/xlink">
<g id="graph0" class="graph" transform="scale(1 1) rotate(0) translate(4 579)">
<title>controllers_diagram</title>
<polygon fill="white" stroke="none" points="-4,4 -4,-579 557,-579 557,4 -4,4"/>
<!-- _diagram_info -->
<g id="node1" class="node"><title>_diagram_info</title>
<text text-anchor="start" x="338" y="-393.6" font-family="Times,serif" font-size="13.00">Controllers diagram</text>
<text text-anchor="start" x="338" y="-379.6" font-family="Times,serif" font-size="13.00">Date: Dec 30 2014 &#45; 23:13</text>
<text text-anchor="start" x="338" y="-365.6" font-family="Times,serif" font-size="13.00">Migration version: 20141231034655</text>
<text text-anchor="start" x="338" y="-351.6" font-family="Times,serif" font-size="13.00">Generated by RailRoady 1.2.0</text>
<text text-anchor="start" x="338" y="-337.6" font-family="Times,serif" font-size="13.00">http://railroady.prestonlee.com</text>
</g>
<!-- ApplicationController -->
<g id="node2" class="node"><title>ApplicationController</title>
<path fill="none" stroke="black" d="M417,-0.5C417,-0.5 533,-0.5 533,-0.5 539,-0.5 545,-6.5 545,-12.5 545,-12.5 545,-82.5 545,-82.5 545,-88.5 539,-94.5 533,-94.5 533,-94.5 417,-94.5 417,-94.5 411,-94.5 405,-88.5 405,-82.5 405,-82.5 405,-12.5 405,-12.5 405,-6.5 411,-0.5 417,-0.5"/>
<text text-anchor="middle" x="475" y="-79.3" font-family="Times,serif" font-size="14.00">ApplicationController</text>
<polyline fill="none" stroke="black" points="405,-71.5 545,-71.5 "/>
<polyline fill="none" stroke="black" points="405,-47.5 545,-47.5 "/>
<polyline fill="none" stroke="black" points="405,-23.5 545,-23.5 "/>
<text text-anchor="start" x="413" y="-8.3" font-family="Times,serif" font-size="14.00">_layout</text>
</g>
<!-- ClientsController -->
<g id="node3" class="node"><title>ClientsController</title>
<path fill="none" stroke="black" d="M12,-420.5C12,-420.5 102,-420.5 102,-420.5 108,-420.5 114,-426.5 114,-432.5 114,-432.5 114,-561.5 114,-561.5 114,-567.5 108,-573.5 102,-573.5 102,-573.5 12,-573.5 12,-573.5 6,-573.5 0,-567.5 0,-561.5 0,-561.5 0,-432.5 0,-432.5 0,-426.5 6,-420.5 12,-420.5"/>
<text text-anchor="middle" x="57" y="-558.3" font-family="Times,serif" font-size="14.00">ClientsController</text>
<polyline fill="none" stroke="black" points="0,-550.5 114,-550.5 "/>
<text text-anchor="start" x="8" y="-535.3" font-family="Times,serif" font-size="14.00">create</text>
<text text-anchor="start" x="8" y="-520.3" font-family="Times,serif" font-size="14.00">index</text>
<text text-anchor="start" x="8" y="-505.3" font-family="Times,serif" font-size="14.00">new</text>
<text text-anchor="start" x="8" y="-490.3" font-family="Times,serif" font-size="14.00">show</text>
<polyline fill="none" stroke="black" points="0,-482.5 114,-482.5 "/>
<polyline fill="none" stroke="black" points="0,-458.5 114,-458.5 "/>
<text text-anchor="start" x="8" y="-443.3" font-family="Times,serif" font-size="14.00">_layout</text>
<text text-anchor="start" x="8" y="-428.3" font-family="Times,serif" font-size="14.00">secure_params</text>
</g>
<!-- CompaniesController -->
<g id="node4" class="node"><title>CompaniesController</title>
<path fill="none" stroke="black" d="M147,-120.5C147,-120.5 260,-120.5 260,-120.5 266,-120.5 272,-126.5 272,-132.5 272,-132.5 272,-261.5 272,-261.5 272,-267.5 266,-273.5 260,-273.5 260,-273.5 147,-273.5 147,-273.5 141,-273.5 135,-267.5 135,-261.5 135,-261.5 135,-132.5 135,-132.5 135,-126.5 141,-120.5 147,-120.5"/>
<text text-anchor="middle" x="203.5" y="-258.3" font-family="Times,serif" font-size="14.00">CompaniesController</text>
<polyline fill="none" stroke="black" points="135,-250.5 272,-250.5 "/>
<text text-anchor="start" x="143" y="-235.3" font-family="Times,serif" font-size="14.00">create</text>
<text text-anchor="start" x="143" y="-220.3" font-family="Times,serif" font-size="14.00">index</text>
<text text-anchor="start" x="143" y="-205.3" font-family="Times,serif" font-size="14.00">new</text>
<text text-anchor="start" x="143" y="-190.3" font-family="Times,serif" font-size="14.00">show</text>
<polyline fill="none" stroke="black" points="135,-182.5 272,-182.5 "/>
<polyline fill="none" stroke="black" points="135,-158.5 272,-158.5 "/>
<text text-anchor="start" x="143" y="-143.3" font-family="Times,serif" font-size="14.00">_layout</text>
<text text-anchor="start" x="143" y="-128.3" font-family="Times,serif" font-size="14.00">secure_params</text>
</g>
<!-- ContactsController -->
<g id="node5" class="node"><title>ContactsController</title>
<path fill="none" stroke="black" d="M12,-300.5C12,-300.5 111,-300.5 111,-300.5 117,-300.5 123,-306.5 123,-312.5 123,-312.5 123,-382.5 123,-382.5 123,-388.5 117,-394.5 111,-394.5 111,-394.5 12,-394.5 12,-394.5 6,-394.5 0,-388.5 0,-382.5 0,-382.5 0,-312.5 0,-312.5 0,-306.5 6,-300.5 12,-300.5"/>
<text text-anchor="middle" x="61.5" y="-379.3" font-family="Times,serif" font-size="14.00">ContactsController</text>
<polyline fill="none" stroke="black" points="0,-371.5 123,-371.5 "/>
<polyline fill="none" stroke="black" points="0,-347.5 123,-347.5 "/>
<polyline fill="none" stroke="black" points="0,-323.5 123,-323.5 "/>
<text text-anchor="start" x="8" y="-308.3" font-family="Times,serif" font-size="14.00">_layout</text>
</g>
<!-- FlowsController -->
<g id="node6" class="node"><title>FlowsController</title>
<path fill="none" stroke="black" d="M12,-180.5C12,-180.5 96,-180.5 96,-180.5 102,-180.5 108,-186.5 108,-192.5 108,-192.5 108,-262.5 108,-262.5 108,-268.5 102,-274.5 96,-274.5 96,-274.5 12,-274.5 12,-274.5 6,-274.5 0,-268.5 0,-262.5 0,-262.5 0,-192.5 0,-192.5 0,-186.5 6,-180.5 12,-180.5"/>
<text text-anchor="middle" x="54" y="-259.3" font-family="Times,serif" font-size="14.00">FlowsController</text>
<polyline fill="none" stroke="black" points="0,-251.5 108,-251.5 "/>
<polyline fill="none" stroke="black" points="0,-227.5 108,-227.5 "/>
<polyline fill="none" stroke="black" points="0,-203.5 108,-203.5 "/>
<text text-anchor="start" x="8" y="-188.3" font-family="Times,serif" font-size="14.00">_layout</text>
</g>
<!-- LeasesController -->
<g id="node7" class="node"><title>LeasesController</title>
<path fill="none" stroke="black" d="M447,-120.5C447,-120.5 535,-120.5 535,-120.5 541,-120.5 547,-126.5 547,-132.5 547,-132.5 547,-202.5 547,-202.5 547,-208.5 541,-214.5 535,-214.5 535,-214.5 447,-214.5 447,-214.5 441,-214.5 435,-208.5 435,-202.5 435,-202.5 435,-132.5 435,-132.5 435,-126.5 441,-120.5 447,-120.5"/>
<text text-anchor="middle" x="491" y="-199.3" font-family="Times,serif" font-size="14.00">LeasesController</text>
<polyline fill="none" stroke="black" points="435,-191.5 547,-191.5 "/>
<polyline fill="none" stroke="black" points="435,-167.5 547,-167.5 "/>
<polyline fill="none" stroke="black" points="435,-143.5 547,-143.5 "/>
<text text-anchor="start" x="443" y="-128.3" font-family="Times,serif" font-size="14.00">_layout</text>
</g>
<!-- LesseesController -->
<g id="node8" class="node"><title>LesseesController</title>
<path fill="none" stroke="black" d="M447,-435.5C447,-435.5 541,-435.5 541,-435.5 547,-435.5 553,-441.5 553,-447.5 553,-447.5 553,-517.5 553,-517.5 553,-523.5 547,-529.5 541,-529.5 541,-529.5 447,-529.5 447,-529.5 441,-529.5 435,-523.5 435,-517.5 435,-517.5 435,-447.5 435,-447.5 435,-441.5 441,-435.5 447,-435.5"/>
<text text-anchor="middle" x="494" y="-514.3" font-family="Times,serif" font-size="14.00">LesseesController</text>
<polyline fill="none" stroke="black" points="435,-506.5 553,-506.5 "/>
<polyline fill="none" stroke="black" points="435,-482.5 553,-482.5 "/>
<polyline fill="none" stroke="black" points="435,-458.5 553,-458.5 "/>
<text text-anchor="start" x="443" y="-443.3" font-family="Times,serif" font-size="14.00">_layout</text>
</g>
<!-- ParcelsController -->
<g id="node9" class="node"><title>ParcelsController</title>
<path fill="none" stroke="black" d="M297,-480.5C297,-480.5 387,-480.5 387,-480.5 393,-480.5 399,-486.5 399,-492.5 399,-492.5 399,-562.5 399,-562.5 399,-568.5 393,-574.5 387,-574.5 387,-574.5 297,-574.5 297,-574.5 291,-574.5 285,-568.5 285,-562.5 285,-562.5 285,-492.5 285,-492.5 285,-486.5 291,-480.5 297,-480.5"/>
<text text-anchor="middle" x="342" y="-559.3" font-family="Times,serif" font-size="14.00">ParcelsController</text>
<polyline fill="none" stroke="black" points="285,-551.5 399,-551.5 "/>
<polyline fill="none" stroke="black" points="285,-527.5 399,-527.5 "/>
<polyline fill="none" stroke="black" points="285,-503.5 399,-503.5 "/>
<text text-anchor="start" x="293" y="-488.3" font-family="Times,serif" font-size="14.00">_layout</text>
</g>
<!-- ServiceCreatorsController -->
<g id="node10" class="node"><title>ServiceCreatorsController</title>
<path fill="none" stroke="black" d="M222,-0.5C222,-0.5 361,-0.5 361,-0.5 367,-0.5 373,-6.5 373,-12.5 373,-12.5 373,-82.5 373,-82.5 373,-88.5 367,-94.5 361,-94.5 361,-94.5 222,-94.5 222,-94.5 216,-94.5 210,-88.5 210,-82.5 210,-82.5 210,-12.5 210,-12.5 210,-6.5 216,-0.5 222,-0.5"/>
<text text-anchor="middle" x="291.5" y="-79.3" font-family="Times,serif" font-size="14.00">ServiceCreatorsController</text>
<polyline fill="none" stroke="black" points="210,-71.5 373,-71.5 "/>
<polyline fill="none" stroke="black" points="210,-47.5 373,-47.5 "/>
<polyline fill="none" stroke="black" points="210,-23.5 373,-23.5 "/>
<text text-anchor="start" x="218" y="-8.3" font-family="Times,serif" font-size="14.00">_layout</text>
</g>
<!-- ServicesController -->
<g id="node11" class="node"><title>ServicesController</title>
<path fill="none" stroke="black" d="M162,-300.5C162,-300.5 259,-300.5 259,-300.5 265,-300.5 271,-306.5 271,-312.5 271,-312.5 271,-441.5 271,-441.5 271,-447.5 265,-453.5 259,-453.5 259,-453.5 162,-453.5 162,-453.5 156,-453.5 150,-447.5 150,-441.5 150,-441.5 150,-312.5 150,-312.5 150,-306.5 156,-300.5 162,-300.5"/>
<text text-anchor="middle" x="210.5" y="-438.3" font-family="Times,serif" font-size="14.00">ServicesController</text>
<polyline fill="none" stroke="black" points="150,-430.5 271,-430.5 "/>
<text text-anchor="start" x="158" y="-415.3" font-family="Times,serif" font-size="14.00">create</text>
<text text-anchor="start" x="158" y="-400.3" font-family="Times,serif" font-size="14.00">index</text>
<text text-anchor="start" x="158" y="-385.3" font-family="Times,serif" font-size="14.00">new</text>
<text text-anchor="start" x="158" y="-370.3" font-family="Times,serif" font-size="14.00">show</text>
<polyline fill="none" stroke="black" points="150,-362.5 271,-362.5 "/>
<polyline fill="none" stroke="black" points="150,-338.5 271,-338.5 "/>
<text text-anchor="start" x="158" y="-323.3" font-family="Times,serif" font-size="14.00">_layout</text>
<text text-anchor="start" x="158" y="-308.3" font-family="Times,serif" font-size="14.00">secure_params</text>
</g>
<!-- UsersController -->
<g id="node12" class="node"><title>UsersController</title>
<path fill="none" stroke="black" d="M312,-120.5C312,-120.5 394,-120.5 394,-120.5 400,-120.5 406,-126.5 406,-132.5 406,-132.5 406,-291.5 406,-291.5 406,-297.5 400,-303.5 394,-303.5 394,-303.5 312,-303.5 312,-303.5 306,-303.5 300,-297.5 300,-291.5 300,-291.5 300,-132.5 300,-132.5 300,-126.5 306,-120.5 312,-120.5"/>
<text text-anchor="middle" x="353" y="-288.3" font-family="Times,serif" font-size="14.00">UsersController</text>
<polyline fill="none" stroke="black" points="300,-280.5 406,-280.5 "/>
<text text-anchor="start" x="308" y="-265.3" font-family="Times,serif" font-size="14.00">create</text>
<text text-anchor="start" x="308" y="-250.3" font-family="Times,serif" font-size="14.00">destroy</text>
<text text-anchor="start" x="308" y="-235.3" font-family="Times,serif" font-size="14.00">index</text>
<text text-anchor="start" x="308" y="-220.3" font-family="Times,serif" font-size="14.00">new</text>
<text text-anchor="start" x="308" y="-205.3" font-family="Times,serif" font-size="14.00">show</text>
<text text-anchor="start" x="308" y="-190.3" font-family="Times,serif" font-size="14.00">update</text>
<polyline fill="none" stroke="black" points="300,-182.5 406,-182.5 "/>
<polyline fill="none" stroke="black" points="300,-158.5 406,-158.5 "/>
<text text-anchor="start" x="308" y="-143.3" font-family="Times,serif" font-size="14.00">_layout</text>
<text text-anchor="start" x="308" y="-128.3" font-family="Times,serif" font-size="14.00">secure_params</text>
</g>
<!-- VisitorsController -->
<g id="node13" class="node"><title>VisitorsController</title>
<path fill="none" stroke="black" d="M12,-0.5C12,-0.5 106,-0.5 106,-0.5 112,-0.5 118,-6.5 118,-12.5 118,-12.5 118,-82.5 118,-82.5 118,-88.5 112,-94.5 106,-94.5 106,-94.5 12,-94.5 12,-94.5 6,-94.5 0,-88.5 0,-82.5 0,-82.5 0,-12.5 0,-12.5 0,-6.5 6,-0.5 12,-0.5"/>
<text text-anchor="middle" x="59" y="-79.3" font-family="Times,serif" font-size="14.00">VisitorsController</text>
<polyline fill="none" stroke="black" points="0,-71.5 118,-71.5 "/>
<polyline fill="none" stroke="black" points="0,-47.5 118,-47.5 "/>
<polyline fill="none" stroke="black" points="0,-23.5 118,-23.5 "/>
<text text-anchor="start" x="8" y="-8.3" font-family="Times,serif" font-size="14.00">_layout</text>
</g>
</g>
</svg>
