<?xml version="1.0" encoding="UTF-8" standalone="no"?>
<!DOCTYPE svg PUBLIC "-//W3C//DTD SVG 1.1//EN"
 "http://www.w3.org/Graphics/SVG/1.1/DTD/svg11.dtd">
<!-- Generated by graphviz version 2.36.0 (20140111.2315)
 -->
<!-- Title: controllers_diagram Pages: 1 -->
<svg width="660pt" height="763pt"
 viewBox="0.00 0.00 660.00 763.00" xmlns="http://www.w3.org/2000/svg" xmlns:xlink="http://www.w3.org/1999/xlink">
<g id="graph0" class="graph" transform="scale(1 1) rotate(0) translate(4 759)">
<title>controllers_diagram</title>
<polygon fill="white" stroke="none" points="-4,4 -4,-759 656,-759 656,4 -4,4"/>
<!-- _diagram_info -->
<g id="node1" class="node"><title>_diagram_info</title>
<text text-anchor="start" x="113" y="-543.6" font-family="Times,serif" font-size="13.00">Controllers diagram</text>
<text text-anchor="start" x="113" y="-529.6" font-family="Times,serif" font-size="13.00">Date: Jan 11 2015 &#45; 21:27</text>
<text text-anchor="start" x="113" y="-515.6" font-family="Times,serif" font-size="13.00">Migration version: 20150111233500</text>
<text text-anchor="start" x="113" y="-501.6" font-family="Times,serif" font-size="13.00">Generated by RailRoady 1.2.0</text>
<text text-anchor="start" x="113" y="-487.6" font-family="Times,serif" font-size="13.00">http://railroady.prestonlee.com</text>
</g>
<!-- ApplicationController -->
<g id="node2" class="node"><title>ApplicationController</title>
<path fill="none" stroke="black" d="M192,-585.5C192,-585.5 308,-585.5 308,-585.5 314,-585.5 320,-591.5 320,-597.5 320,-597.5 320,-667.5 320,-667.5 320,-673.5 314,-679.5 308,-679.5 308,-679.5 192,-679.5 192,-679.5 186,-679.5 180,-673.5 180,-667.5 180,-667.5 180,-597.5 180,-597.5 180,-591.5 186,-585.5 192,-585.5"/>
<text text-anchor="middle" x="250" y="-664.3" font-family="Times,serif" font-size="14.00">ApplicationController</text>
<polyline fill="none" stroke="black" points="180,-656.5 320,-656.5 "/>
<polyline fill="none" stroke="black" points="180,-632.5 320,-632.5 "/>
<polyline fill="none" stroke="black" points="180,-608.5 320,-608.5 "/>
<text text-anchor="start" x="188" y="-593.3" font-family="Times,serif" font-size="14.00">_layout</text>
</g>
<!-- ClientsController -->
<g id="node3" class="node"><title>ClientsController</title>
<path fill="none" stroke="black" d="M492,-465.5C492,-465.5 582,-465.5 582,-465.5 588,-465.5 594,-471.5 594,-477.5 594,-477.5 594,-606.5 594,-606.5 594,-612.5 588,-618.5 582,-618.5 582,-618.5 492,-618.5 492,-618.5 486,-618.5 480,-612.5 480,-606.5 480,-606.5 480,-477.5 480,-477.5 480,-471.5 486,-465.5 492,-465.5"/>
<text text-anchor="middle" x="537" y="-603.3" font-family="Times,serif" font-size="14.00">ClientsController</text>
<polyline fill="none" stroke="black" points="480,-595.5 594,-595.5 "/>
<text text-anchor="start" x="488" y="-580.3" font-family="Times,serif" font-size="14.00">create</text>
<text text-anchor="start" x="488" y="-565.3" font-family="Times,serif" font-size="14.00">index</text>
<text text-anchor="start" x="488" y="-550.3" font-family="Times,serif" font-size="14.00">new</text>
<text text-anchor="start" x="488" y="-535.3" font-family="Times,serif" font-size="14.00">show</text>
<polyline fill="none" stroke="black" points="480,-527.5 594,-527.5 "/>
<polyline fill="none" stroke="black" points="480,-503.5 594,-503.5 "/>
<text text-anchor="start" x="488" y="-488.3" font-family="Times,serif" font-size="14.00">_layout</text>
<text text-anchor="start" x="488" y="-473.3" font-family="Times,serif" font-size="14.00">secure_params</text>
</g>
<!-- CompaniesController -->
<g id="node4" class="node"><title>CompaniesController</title>
<path fill="none" stroke="black" d="M327,-270.5C327,-270.5 440,-270.5 440,-270.5 446,-270.5 452,-276.5 452,-282.5 452,-282.5 452,-411.5 452,-411.5 452,-417.5 446,-423.5 440,-423.5 440,-423.5 327,-423.5 327,-423.5 321,-423.5 315,-417.5 315,-411.5 315,-411.5 315,-282.5 315,-282.5 315,-276.5 321,-270.5 327,-270.5"/>
<text text-anchor="middle" x="383.5" y="-408.3" font-family="Times,serif" font-size="14.00">CompaniesController</text>
<polyline fill="none" stroke="black" points="315,-400.5 452,-400.5 "/>
<text text-anchor="start" x="323" y="-385.3" font-family="Times,serif" font-size="14.00">create</text>
<text text-anchor="start" x="323" y="-370.3" font-family="Times,serif" font-size="14.00">index</text>
<text text-anchor="start" x="323" y="-355.3" font-family="Times,serif" font-size="14.00">new</text>
<text text-anchor="start" x="323" y="-340.3" font-family="Times,serif" font-size="14.00">show</text>
<polyline fill="none" stroke="black" points="315,-332.5 452,-332.5 "/>
<polyline fill="none" stroke="black" points="315,-308.5 452,-308.5 "/>
<text text-anchor="start" x="323" y="-293.3" font-family="Times,serif" font-size="14.00">_layout</text>
<text text-anchor="start" x="323" y="-278.3" font-family="Times,serif" font-size="14.00">secure_params</text>
</g>
<!-- ContactsController -->
<g id="node5" class="node"><title>ContactsController</title>
<path fill="none" stroke="black" d="M27,-300.5C27,-300.5 126,-300.5 126,-300.5 132,-300.5 138,-306.5 138,-312.5 138,-312.5 138,-441.5 138,-441.5 138,-447.5 132,-453.5 126,-453.5 126,-453.5 27,-453.5 27,-453.5 21,-453.5 15,-447.5 15,-441.5 15,-441.5 15,-312.5 15,-312.5 15,-306.5 21,-300.5 27,-300.5"/>
<text text-anchor="middle" x="76.5" y="-438.3" font-family="Times,serif" font-size="14.00">ContactsController</text>
<polyline fill="none" stroke="black" points="15,-430.5 138,-430.5 "/>
<text text-anchor="start" x="23" y="-415.3" font-family="Times,serif" font-size="14.00">create</text>
<text text-anchor="start" x="23" y="-400.3" font-family="Times,serif" font-size="14.00">index</text>
<text text-anchor="start" x="23" y="-385.3" font-family="Times,serif" font-size="14.00">new</text>
<text text-anchor="start" x="23" y="-370.3" font-family="Times,serif" font-size="14.00">show</text>
<polyline fill="none" stroke="black" points="15,-362.5 138,-362.5 "/>
<polyline fill="none" stroke="black" points="15,-338.5 138,-338.5 "/>
<text text-anchor="start" x="23" y="-323.3" font-family="Times,serif" font-size="14.00">_layout</text>
<text text-anchor="start" x="23" y="-308.3" font-family="Times,serif" font-size="14.00">secure_params</text>
</g>
<!-- FlowsController -->
<g id="node6" class="node"><title>FlowsController</title>
<path fill="none" stroke="black" d="M417,-660.5C417,-660.5 501,-660.5 501,-660.5 507,-660.5 513,-666.5 513,-672.5 513,-672.5 513,-742.5 513,-742.5 513,-748.5 507,-754.5 501,-754.5 501,-754.5 417,-754.5 417,-754.5 411,-754.5 405,-748.5 405,-742.5 405,-742.5 405,-672.5 405,-672.5 405,-666.5 411,-660.5 417,-660.5"/>
<text text-anchor="middle" x="459" y="-739.3" font-family="Times,serif" font-size="14.00">FlowsController</text>
<polyline fill="none" stroke="black" points="405,-731.5 513,-731.5 "/>
<polyline fill="none" stroke="black" points="405,-707.5 513,-707.5 "/>
<polyline fill="none" stroke="black" points="405,-683.5 513,-683.5 "/>
<text text-anchor="start" x="413" y="-668.3" font-family="Times,serif" font-size="14.00">_layout</text>
</g>
<!-- LawfirmsController -->
<g id="node7" class="node"><title>LawfirmsController</title>
<path fill="none" stroke="black" d="M12,-120.5C12,-120.5 116,-120.5 116,-120.5 122,-120.5 128,-126.5 128,-132.5 128,-132.5 128,-261.5 128,-261.5 128,-267.5 122,-273.5 116,-273.5 116,-273.5 12,-273.5 12,-273.5 6,-273.5 0,-267.5 0,-261.5 0,-261.5 0,-132.5 0,-132.5 0,-126.5 6,-120.5 12,-120.5"/>
<text text-anchor="middle" x="64" y="-258.3" font-family="Times,serif" font-size="14.00">LawfirmsController</text>
<polyline fill="none" stroke="black" points="0,-250.5 128,-250.5 "/>
<text text-anchor="start" x="8" y="-235.3" font-family="Times,serif" font-size="14.00">create</text>
<text text-anchor="start" x="8" y="-220.3" font-family="Times,serif" font-size="14.00">index</text>
<text text-anchor="start" x="8" y="-205.3" font-family="Times,serif" font-size="14.00">new</text>
<text text-anchor="start" x="8" y="-190.3" font-family="Times,serif" font-size="14.00">show</text>
<polyline fill="none" stroke="black" points="0,-182.5 128,-182.5 "/>
<polyline fill="none" stroke="black" points="0,-158.5 128,-158.5 "/>
<text text-anchor="start" x="8" y="-143.3" font-family="Times,serif" font-size="14.00">_layout</text>
<text text-anchor="start" x="8" y="-128.3" font-family="Times,serif" font-size="14.00">secure_params</text>
</g>
<!-- LawyersController -->
<g id="node8" class="node"><title>LawyersController</title>
<path fill="none" stroke="black" d="M492,-105.5C492,-105.5 590,-105.5 590,-105.5 596,-105.5 602,-111.5 602,-117.5 602,-117.5 602,-246.5 602,-246.5 602,-252.5 596,-258.5 590,-258.5 590,-258.5 492,-258.5 492,-258.5 486,-258.5 480,-252.5 480,-246.5 480,-246.5 480,-117.5 480,-117.5 480,-111.5 486,-105.5 492,-105.5"/>
<text text-anchor="middle" x="541" y="-243.3" font-family="Times,serif" font-size="14.00">LawyersController</text>
<polyline fill="none" stroke="black" points="480,-235.5 602,-235.5 "/>
<text text-anchor="start" x="488" y="-220.3" font-family="Times,serif" font-size="14.00">create</text>
<text text-anchor="start" x="488" y="-205.3" font-family="Times,serif" font-size="14.00">index</text>
<text text-anchor="start" x="488" y="-190.3" font-family="Times,serif" font-size="14.00">new</text>
<text text-anchor="start" x="488" y="-175.3" font-family="Times,serif" font-size="14.00">show</text>
<polyline fill="none" stroke="black" points="480,-167.5 602,-167.5 "/>
<polyline fill="none" stroke="black" points="480,-143.5 602,-143.5 "/>
<text text-anchor="start" x="488" y="-128.3" font-family="Times,serif" font-size="14.00">_layout</text>
<text text-anchor="start" x="488" y="-113.3" font-family="Times,serif" font-size="14.00">secure_params</text>
</g>
<!-- LeasesController -->
<g id="node9" class="node"><title>LeasesController</title>
<path fill="none" stroke="black" d="M552,-645.5C552,-645.5 640,-645.5 640,-645.5 646,-645.5 652,-651.5 652,-657.5 652,-657.5 652,-727.5 652,-727.5 652,-733.5 646,-739.5 640,-739.5 640,-739.5 552,-739.5 552,-739.5 546,-739.5 540,-733.5 540,-727.5 540,-727.5 540,-657.5 540,-657.5 540,-651.5 546,-645.5 552,-645.5"/>
<text text-anchor="middle" x="596" y="-724.3" font-family="Times,serif" font-size="14.00">LeasesController</text>
<polyline fill="none" stroke="black" points="540,-716.5 652,-716.5 "/>
<polyline fill="none" stroke="black" points="540,-692.5 652,-692.5 "/>
<polyline fill="none" stroke="black" points="540,-668.5 652,-668.5 "/>
<text text-anchor="start" x="548" y="-653.3" font-family="Times,serif" font-size="14.00">_layout</text>
</g>
<!-- LesseesController -->
<g id="node10" class="node"><title>LesseesController</title>
<path fill="none" stroke="black" d="M42,-585.5C42,-585.5 136,-585.5 136,-585.5 142,-585.5 148,-591.5 148,-597.5 148,-597.5 148,-667.5 148,-667.5 148,-673.5 142,-679.5 136,-679.5 136,-679.5 42,-679.5 42,-679.5 36,-679.5 30,-673.5 30,-667.5 30,-667.5 30,-597.5 30,-597.5 30,-591.5 36,-585.5 42,-585.5"/>
<text text-anchor="middle" x="89" y="-664.3" font-family="Times,serif" font-size="14.00">LesseesController</text>
<polyline fill="none" stroke="black" points="30,-656.5 148,-656.5 "/>
<polyline fill="none" stroke="black" points="30,-632.5 148,-632.5 "/>
<polyline fill="none" stroke="black" points="30,-608.5 148,-608.5 "/>
<text text-anchor="start" x="38" y="-593.3" font-family="Times,serif" font-size="14.00">_layout</text>
</g>
<!-- ParcelsController -->
<g id="node11" class="node"><title>ParcelsController</title>
<path fill="none" stroke="black" d="M492,-285.5C492,-285.5 582,-285.5 582,-285.5 588,-285.5 594,-291.5 594,-297.5 594,-297.5 594,-426.5 594,-426.5 594,-432.5 588,-438.5 582,-438.5 582,-438.5 492,-438.5 492,-438.5 486,-438.5 480,-432.5 480,-426.5 480,-426.5 480,-297.5 480,-297.5 480,-291.5 486,-285.5 492,-285.5"/>
<text text-anchor="middle" x="537" y="-423.3" font-family="Times,serif" font-size="14.00">ParcelsController</text>
<polyline fill="none" stroke="black" points="480,-415.5 594,-415.5 "/>
<text text-anchor="start" x="488" y="-400.3" font-family="Times,serif" font-size="14.00">create</text>
<text text-anchor="start" x="488" y="-385.3" font-family="Times,serif" font-size="14.00">index</text>
<text text-anchor="start" x="488" y="-370.3" font-family="Times,serif" font-size="14.00">new</text>
<text text-anchor="start" x="488" y="-355.3" font-family="Times,serif" font-size="14.00">show</text>
<polyline fill="none" stroke="black" points="480,-347.5 594,-347.5 "/>
<polyline fill="none" stroke="black" points="480,-323.5 594,-323.5 "/>
<text text-anchor="start" x="488" y="-308.3" font-family="Times,serif" font-size="14.00">_layout</text>
<text text-anchor="start" x="488" y="-293.3" font-family="Times,serif" font-size="14.00">secure_params</text>
</g>
<!-- ServiceCreatorsController -->
<g id="node12" class="node"><title>ServiceCreatorsController</title>
<path fill="none" stroke="black" d="M252,-120.5C252,-120.5 391,-120.5 391,-120.5 397,-120.5 403,-126.5 403,-132.5 403,-132.5 403,-202.5 403,-202.5 403,-208.5 397,-214.5 391,-214.5 391,-214.5 252,-214.5 252,-214.5 246,-214.5 240,-208.5 240,-202.5 240,-202.5 240,-132.5 240,-132.5 240,-126.5 246,-120.5 252,-120.5"/>
<text text-anchor="middle" x="321.5" y="-199.3" font-family="Times,serif" font-size="14.00">ServiceCreatorsController</text>
<polyline fill="none" stroke="black" points="240,-191.5 403,-191.5 "/>
<polyline fill="none" stroke="black" points="240,-167.5 403,-167.5 "/>
<polyline fill="none" stroke="black" points="240,-143.5 403,-143.5 "/>
<text text-anchor="start" x="248" y="-128.3" font-family="Times,serif" font-size="14.00">_layout</text>
</g>
<!-- ServicesController -->
<g id="node13" class="node"><title>ServicesController</title>
<path fill="none" stroke="black" d="M177,-240.5C177,-240.5 274,-240.5 274,-240.5 280,-240.5 286,-246.5 286,-252.5 286,-252.5 286,-411.5 286,-411.5 286,-417.5 280,-423.5 274,-423.5 274,-423.5 177,-423.5 177,-423.5 171,-423.5 165,-417.5 165,-411.5 165,-411.5 165,-252.5 165,-252.5 165,-246.5 171,-240.5 177,-240.5"/>
<text text-anchor="middle" x="225.5" y="-408.3" font-family="Times,serif" font-size="14.00">ServicesController</text>
<polyline fill="none" stroke="black" points="165,-400.5 286,-400.5 "/>
<text text-anchor="start" x="173" y="-385.3" font-family="Times,serif" font-size="14.00">create</text>
<text text-anchor="start" x="173" y="-370.3" font-family="Times,serif" font-size="14.00">index</text>
<text text-anchor="start" x="173" y="-355.3" font-family="Times,serif" font-size="14.00">new</text>
<text text-anchor="start" x="173" y="-340.3" font-family="Times,serif" font-size="14.00">show</text>
<text text-anchor="start" x="173" y="-325.3" font-family="Times,serif" font-size="14.00">update</text>
<polyline fill="none" stroke="black" points="165,-317.5 286,-317.5 "/>
<polyline fill="none" stroke="black" points="165,-293.5 286,-293.5 "/>
<text text-anchor="start" x="173" y="-278.3" font-family="Times,serif" font-size="14.00">_layout</text>
<text text-anchor="start" x="173" y="-263.3" font-family="Times,serif" font-size="14.00">req_params</text>
<text text-anchor="start" x="173" y="-248.3" font-family="Times,serif" font-size="14.00">secure_params</text>
</g>
<!-- UsersController -->
<g id="node14" class="node"><title>UsersController</title>
<path fill="none" stroke="black" d="M357,-450.5C357,-450.5 439,-450.5 439,-450.5 445,-450.5 451,-456.5 451,-462.5 451,-462.5 451,-621.5 451,-621.5 451,-627.5 445,-633.5 439,-633.5 439,-633.5 357,-633.5 357,-633.5 351,-633.5 345,-627.5 345,-621.5 345,-621.5 345,-462.5 345,-462.5 345,-456.5 351,-450.5 357,-450.5"/>
<text text-anchor="middle" x="398" y="-618.3" font-family="Times,serif" font-size="14.00">UsersController</text>
<polyline fill="none" stroke="black" points="345,-610.5 451,-610.5 "/>
<text text-anchor="start" x="353" y="-595.3" font-family="Times,serif" font-size="14.00">create</text>
<text text-anchor="start" x="353" y="-580.3" font-family="Times,serif" font-size="14.00">destroy</text>
<text text-anchor="start" x="353" y="-565.3" font-family="Times,serif" font-size="14.00">index</text>
<text text-anchor="start" x="353" y="-550.3" font-family="Times,serif" font-size="14.00">new</text>
<text text-anchor="start" x="353" y="-535.3" font-family="Times,serif" font-size="14.00">show</text>
<text text-anchor="start" x="353" y="-520.3" font-family="Times,serif" font-size="14.00">update</text>
<polyline fill="none" stroke="black" points="345,-512.5 451,-512.5 "/>
<polyline fill="none" stroke="black" points="345,-488.5 451,-488.5 "/>
<text text-anchor="start" x="353" y="-473.3" font-family="Times,serif" font-size="14.00">_layout</text>
<text text-anchor="start" x="353" y="-458.3" font-family="Times,serif" font-size="14.00">secure_params</text>
</g>
<!-- VisitorsController -->
<g id="node15" class="node"><title>VisitorsController</title>
<path fill="none" stroke="black" d="M252,-0.5C252,-0.5 346,-0.5 346,-0.5 352,-0.5 358,-6.5 358,-12.5 358,-12.5 358,-82.5 358,-82.5 358,-88.5 352,-94.5 346,-94.5 346,-94.5 252,-94.5 252,-94.5 246,-94.5 240,-88.5 240,-82.5 240,-82.5 240,-12.5 240,-12.5 240,-6.5 246,-0.5 252,-0.5"/>
<text text-anchor="middle" x="299" y="-79.3" font-family="Times,serif" font-size="14.00">VisitorsController</text>
<polyline fill="none" stroke="black" points="240,-71.5 358,-71.5 "/>
<polyline fill="none" stroke="black" points="240,-47.5 358,-47.5 "/>
<polyline fill="none" stroke="black" points="240,-23.5 358,-23.5 "/>
<text text-anchor="start" x="248" y="-8.3" font-family="Times,serif" font-size="14.00">_layout</text>
</g>
</g>
</svg>
