<?xml version="1.0" encoding="UTF-8" standalone="no"?>
<!DOCTYPE svg PUBLIC "-//W3C//DTD SVG 1.1//EN"
 "http://www.w3.org/Graphics/SVG/1.1/DTD/svg11.dtd">
<!-- Generated by graphviz version 2.36.0 (20140111.2315)
 -->
<!-- Title: controllers_diagram Pages: 1 -->
<svg width="565pt" height="481pt"
 viewBox="0.00 0.00 565.00 481.00" xmlns="http://www.w3.org/2000/svg" xmlns:xlink="http://www.w3.org/1999/xlink">
<g id="graph0" class="graph" transform="scale(1 1) rotate(0) translate(4 477)">
<title>controllers_diagram</title>
<polygon fill="white" stroke="none" points="-4,4 -4,-477 561,-477 561,4 -4,4"/>
<!-- _diagram_info -->
<g id="node1" class="node"><title>_diagram_info</title>
<text text-anchor="start" x="106" y="-189.6" font-family="Times,serif" font-size="13.00">Controllers diagram</text>
<text text-anchor="start" x="106" y="-175.6" font-family="Times,serif" font-size="13.00">Date: Dec 10 2014 &#45; 19:05</text>
<text text-anchor="start" x="106" y="-161.6" font-family="Times,serif" font-size="13.00">Migration version: 20141210210525</text>
<text text-anchor="start" x="106" y="-147.6" font-family="Times,serif" font-size="13.00">Generated by RailRoady 1.2.0</text>
<text text-anchor="start" x="106" y="-133.6" font-family="Times,serif" font-size="13.00">http://railroady.prestonlee.com</text>
</g>
<!-- ApplicationController -->
<g id="node2" class="node"><title>ApplicationController</title>
<path fill="none" stroke="black" d="M348,-42.5C348,-42.5 464,-42.5 464,-42.5 470,-42.5 476,-48.5 476,-54.5 476,-54.5 476,-124.5 476,-124.5 476,-130.5 470,-136.5 464,-136.5 464,-136.5 348,-136.5 348,-136.5 342,-136.5 336,-130.5 336,-124.5 336,-124.5 336,-54.5 336,-54.5 336,-48.5 342,-42.5 348,-42.5"/>
<text text-anchor="middle" x="406" y="-121.3" font-family="Times,serif" font-size="14.00">ApplicationController</text>
<polyline fill="none" stroke="black" points="336,-113.5 476,-113.5 "/>
<polyline fill="none" stroke="black" points="336,-89.5 476,-89.5 "/>
<polyline fill="none" stroke="black" points="336,-65.5 476,-65.5 "/>
<text text-anchor="start" x="344" y="-50.3" font-family="Times,serif" font-size="14.00">_layout</text>
</g>
<!-- ContactsController -->
<g id="node3" class="node"><title>ContactsController</title>
<path fill="none" stroke="black" d="M446,-168.5C446,-168.5 545,-168.5 545,-168.5 551,-168.5 557,-174.5 557,-180.5 557,-180.5 557,-250.5 557,-250.5 557,-256.5 551,-262.5 545,-262.5 545,-262.5 446,-262.5 446,-262.5 440,-262.5 434,-256.5 434,-250.5 434,-250.5 434,-180.5 434,-180.5 434,-174.5 440,-168.5 446,-168.5"/>
<text text-anchor="middle" x="495.5" y="-247.3" font-family="Times,serif" font-size="14.00">ContactsController</text>
<polyline fill="none" stroke="black" points="434,-239.5 557,-239.5 "/>
<polyline fill="none" stroke="black" points="434,-215.5 557,-215.5 "/>
<polyline fill="none" stroke="black" points="434,-191.5 557,-191.5 "/>
<text text-anchor="start" x="442" y="-176.3" font-family="Times,serif" font-size="14.00">_layout</text>
</g>
<!-- FlowsController -->
<g id="node4" class="node"><title>FlowsController</title>
<path fill="none" stroke="black" d="M12,-378.5C12,-378.5 96,-378.5 96,-378.5 102,-378.5 108,-384.5 108,-390.5 108,-390.5 108,-460.5 108,-460.5 108,-466.5 102,-472.5 96,-472.5 96,-472.5 12,-472.5 12,-472.5 6,-472.5 0,-466.5 0,-460.5 0,-460.5 0,-390.5 0,-390.5 0,-384.5 6,-378.5 12,-378.5"/>
<text text-anchor="middle" x="54" y="-457.3" font-family="Times,serif" font-size="14.00">FlowsController</text>
<polyline fill="none" stroke="black" points="0,-449.5 108,-449.5 "/>
<polyline fill="none" stroke="black" points="0,-425.5 108,-425.5 "/>
<polyline fill="none" stroke="black" points="0,-401.5 108,-401.5 "/>
<text text-anchor="start" x="8" y="-386.3" font-family="Times,serif" font-size="14.00">_layout</text>
</g>
<!-- LeasesController -->
<g id="node5" class="node"><title>LeasesController</title>
<path fill="none" stroke="black" d="M208,-0.5C208,-0.5 296,-0.5 296,-0.5 302,-0.5 308,-6.5 308,-12.5 308,-12.5 308,-82.5 308,-82.5 308,-88.5 302,-94.5 296,-94.5 296,-94.5 208,-94.5 208,-94.5 202,-94.5 196,-88.5 196,-82.5 196,-82.5 196,-12.5 196,-12.5 196,-6.5 202,-0.5 208,-0.5"/>
<text text-anchor="middle" x="252" y="-79.3" font-family="Times,serif" font-size="14.00">LeasesController</text>
<polyline fill="none" stroke="black" points="196,-71.5 308,-71.5 "/>
<polyline fill="none" stroke="black" points="196,-47.5 308,-47.5 "/>
<polyline fill="none" stroke="black" points="196,-23.5 308,-23.5 "/>
<text text-anchor="start" x="204" y="-8.3" font-family="Times,serif" font-size="14.00">_layout</text>
</g>
<!-- ServicesController -->
<g id="node6" class="node"><title>ServicesController</title>
<path fill="none" stroke="black" d="M292,-238.5C292,-238.5 389,-238.5 389,-238.5 395,-238.5 401,-244.5 401,-250.5 401,-250.5 401,-364.5 401,-364.5 401,-370.5 395,-376.5 389,-376.5 389,-376.5 292,-376.5 292,-376.5 286,-376.5 280,-370.5 280,-364.5 280,-364.5 280,-250.5 280,-250.5 280,-244.5 286,-238.5 292,-238.5"/>
<text text-anchor="middle" x="340.5" y="-361.3" font-family="Times,serif" font-size="14.00">ServicesController</text>
<polyline fill="none" stroke="black" points="280,-353.5 401,-353.5 "/>
<text text-anchor="start" x="288" y="-338.3" font-family="Times,serif" font-size="14.00">create</text>
<text text-anchor="start" x="288" y="-323.3" font-family="Times,serif" font-size="14.00">index</text>
<text text-anchor="start" x="288" y="-308.3" font-family="Times,serif" font-size="14.00">new</text>
<text text-anchor="start" x="288" y="-293.3" font-family="Times,serif" font-size="14.00">show</text>
<polyline fill="none" stroke="black" points="280,-285.5 401,-285.5 "/>
<polyline fill="none" stroke="black" points="280,-261.5 401,-261.5 "/>
<text text-anchor="start" x="288" y="-246.3" font-family="Times,serif" font-size="14.00">_layout</text>
</g>
<!-- UsersController -->
<g id="node7" class="node"><title>UsersController</title>
<path fill="none" stroke="black" d="M152,-238.5C152,-238.5 234,-238.5 234,-238.5 240,-238.5 246,-244.5 246,-250.5 246,-250.5 246,-379.5 246,-379.5 246,-385.5 240,-391.5 234,-391.5 234,-391.5 152,-391.5 152,-391.5 146,-391.5 140,-385.5 140,-379.5 140,-379.5 140,-250.5 140,-250.5 140,-244.5 146,-238.5 152,-238.5"/>
<text text-anchor="middle" x="193" y="-376.3" font-family="Times,serif" font-size="14.00">UsersController</text>
<polyline fill="none" stroke="black" points="140,-368.5 246,-368.5 "/>
<text text-anchor="start" x="148" y="-353.3" font-family="Times,serif" font-size="14.00">destroy</text>
<text text-anchor="start" x="148" y="-338.3" font-family="Times,serif" font-size="14.00">index</text>
<text text-anchor="start" x="148" y="-323.3" font-family="Times,serif" font-size="14.00">show</text>
<text text-anchor="start" x="148" y="-308.3" font-family="Times,serif" font-size="14.00">update</text>
<polyline fill="none" stroke="black" points="140,-300.5 246,-300.5 "/>
<polyline fill="none" stroke="black" points="140,-276.5 246,-276.5 "/>
<text text-anchor="start" x="148" y="-261.3" font-family="Times,serif" font-size="14.00">_layout</text>
<text text-anchor="start" x="148" y="-246.3" font-family="Times,serif" font-size="14.00">secure_params</text>
</g>
<!-- VisitorsController -->
<g id="node8" class="node"><title>VisitorsController</title>
<path fill="none" stroke="black" d="M54,-0.5C54,-0.5 148,-0.5 148,-0.5 154,-0.5 160,-6.5 160,-12.5 160,-12.5 160,-82.5 160,-82.5 160,-88.5 154,-94.5 148,-94.5 148,-94.5 54,-94.5 54,-94.5 48,-94.5 42,-88.5 42,-82.5 42,-82.5 42,-12.5 42,-12.5 42,-6.5 48,-0.5 54,-0.5"/>
<text text-anchor="middle" x="101" y="-79.3" font-family="Times,serif" font-size="14.00">VisitorsController</text>
<polyline fill="none" stroke="black" points="42,-71.5 160,-71.5 "/>
<polyline fill="none" stroke="black" points="42,-47.5 160,-47.5 "/>
<polyline fill="none" stroke="black" points="42,-23.5 160,-23.5 "/>
<text text-anchor="start" x="50" y="-8.3" font-family="Times,serif" font-size="14.00">_layout</text>
</g>
</g>
</svg>
