<?xml version="1.0" encoding="UTF-8" standalone="no"?>
<!DOCTYPE svg PUBLIC "-//W3C//DTD SVG 1.1//EN"
 "http://www.w3.org/Graphics/SVG/1.1/DTD/svg11.dtd">
<!-- Generated by graphviz version 2.36.0 (20140111.2315)
 -->
<!-- Title: controllers_diagram Pages: 1 -->
<svg width="959pt" height="919pt"
 viewBox="0.00 0.00 959.00 919.00" xmlns="http://www.w3.org/2000/svg" xmlns:xlink="http://www.w3.org/1999/xlink">
<g id="graph0" class="graph" transform="scale(1 1) rotate(0) translate(4 915)">
<title>controllers_diagram</title>
<polygon fill="white" stroke="none" points="-4,4 -4,-915 955,-915 955,4 -4,4"/>
<!-- _diagram_info -->
<g id="node1" class="node"><title>_diagram_info</title>
<text text-anchor="start" x="161" y="-199.6" font-family="Times,serif" font-size="13.00">Controllers diagram</text>
<text text-anchor="start" x="161" y="-185.6" font-family="Times,serif" font-size="13.00">Date: Mar 15 2015 &#45; 09:13</text>
<text text-anchor="start" x="161" y="-171.6" font-family="Times,serif" font-size="13.00">Migration version: 20150315011344</text>
<text text-anchor="start" x="161" y="-157.6" font-family="Times,serif" font-size="13.00">Generated by RailRoady 1.3.0</text>
<text text-anchor="start" x="161" y="-143.6" font-family="Times,serif" font-size="13.00">http://railroady.prestonlee.com</text>
</g>
<!-- AbsdashesController -->
<g id="node2" class="node"><title>AbsdashesController</title>
<path fill="none" stroke="black" d="M12,-612.5C12,-612.5 122,-612.5 122,-612.5 128,-612.5 134,-618.5 134,-624.5 134,-624.5 134,-708.5 134,-708.5 134,-714.5 128,-720.5 122,-720.5 122,-720.5 12,-720.5 12,-720.5 6,-720.5 0,-714.5 0,-708.5 0,-708.5 0,-624.5 0,-624.5 0,-618.5 6,-612.5 12,-612.5"/>
<text text-anchor="middle" x="67" y="-705.3" font-family="Times,serif" font-size="14.00">AbsdashesController</text>
<polyline fill="none" stroke="black" points="0,-697.5 134,-697.5 "/>
<text text-anchor="start" x="8" y="-682.3" font-family="Times,serif" font-size="14.00">index</text>
<text text-anchor="start" x="8" y="-667.3" font-family="Times,serif" font-size="14.00">show</text>
<polyline fill="none" stroke="black" points="0,-659.5 134,-659.5 "/>
<polyline fill="none" stroke="black" points="0,-635.5 134,-635.5 "/>
<text text-anchor="start" x="8" y="-620.3" font-family="Times,serif" font-size="14.00">_layout</text>
</g>
<!-- AbstractorDashboardsController -->
<g id="node3" class="node"><title>AbstractorDashboardsController</title>
<path fill="none" stroke="black" d="M488,-153.5C488,-153.5 663,-153.5 663,-153.5 669,-153.5 675,-159.5 675,-165.5 675,-165.5 675,-249.5 675,-249.5 675,-255.5 669,-261.5 663,-261.5 663,-261.5 488,-261.5 488,-261.5 482,-261.5 476,-255.5 476,-249.5 476,-249.5 476,-165.5 476,-165.5 476,-159.5 482,-153.5 488,-153.5"/>
<text text-anchor="middle" x="575.5" y="-246.3" font-family="Times,serif" font-size="14.00">AbstractorDashboardsController</text>
<polyline fill="none" stroke="black" points="476,-238.5 675,-238.5 "/>
<text text-anchor="start" x="484" y="-223.3" font-family="Times,serif" font-size="14.00">index</text>
<text text-anchor="start" x="484" y="-208.3" font-family="Times,serif" font-size="14.00">show</text>
<polyline fill="none" stroke="black" points="476,-200.5 675,-200.5 "/>
<polyline fill="none" stroke="black" points="476,-176.5 675,-176.5 "/>
<text text-anchor="start" x="484" y="-161.3" font-family="Times,serif" font-size="14.00">_layout</text>
</g>
<!-- AbstractorsController -->
<g id="node4" class="node"><title>AbstractorsController</title>
<path fill="none" stroke="black" d="M318,-510.5C318,-510.5 433,-510.5 433,-510.5 439,-510.5 445,-516.5 445,-522.5 445,-522.5 445,-696.5 445,-696.5 445,-702.5 439,-708.5 433,-708.5 433,-708.5 318,-708.5 318,-708.5 312,-708.5 306,-702.5 306,-696.5 306,-696.5 306,-522.5 306,-522.5 306,-516.5 312,-510.5 318,-510.5"/>
<text text-anchor="middle" x="375.5" y="-693.3" font-family="Times,serif" font-size="14.00">AbstractorsController</text>
<polyline fill="none" stroke="black" points="306,-685.5 445,-685.5 "/>
<text text-anchor="start" x="314" y="-670.3" font-family="Times,serif" font-size="14.00">assign</text>
<text text-anchor="start" x="314" y="-655.3" font-family="Times,serif" font-size="14.00">create</text>
<text text-anchor="start" x="314" y="-640.3" font-family="Times,serif" font-size="14.00">dispatcher</text>
<text text-anchor="start" x="314" y="-625.3" font-family="Times,serif" font-size="14.00">index</text>
<text text-anchor="start" x="314" y="-610.3" font-family="Times,serif" font-size="14.00">new</text>
<text text-anchor="start" x="314" y="-595.3" font-family="Times,serif" font-size="14.00">show</text>
<text text-anchor="start" x="314" y="-580.3" font-family="Times,serif" font-size="14.00">update</text>
<polyline fill="none" stroke="black" points="306,-572.5 445,-572.5 "/>
<polyline fill="none" stroke="black" points="306,-548.5 445,-548.5 "/>
<text text-anchor="start" x="314" y="-533.3" font-family="Times,serif" font-size="14.00">_layout</text>
<text text-anchor="start" x="314" y="-518.3" font-family="Times,serif" font-size="14.00">secure_params</text>
</g>
<!-- ApplicationController -->
<g id="node5" class="node"><title>ApplicationController</title>
<path fill="none" stroke="black" d="M199,-0.5C199,-0.5 315,-0.5 315,-0.5 321,-0.5 327,-6.5 327,-12.5 327,-12.5 327,-82.5 327,-82.5 327,-88.5 321,-94.5 315,-94.5 315,-94.5 199,-94.5 199,-94.5 193,-94.5 187,-88.5 187,-82.5 187,-82.5 187,-12.5 187,-12.5 187,-6.5 193,-0.5 199,-0.5"/>
<text text-anchor="middle" x="257" y="-79.3" font-family="Times,serif" font-size="14.00">ApplicationController</text>
<polyline fill="none" stroke="black" points="187,-71.5 327,-71.5 "/>
<polyline fill="none" stroke="black" points="187,-47.5 327,-47.5 "/>
<polyline fill="none" stroke="black" points="187,-23.5 327,-23.5 "/>
<text text-anchor="start" x="195" y="-8.3" font-family="Times,serif" font-size="14.00">_layout</text>
</g>
<!-- CompaniesController -->
<g id="node6" class="node"><title>CompaniesController</title>
<path fill="none" stroke="black" d="M403,-748.5C403,-748.5 516,-748.5 516,-748.5 522,-748.5 528,-754.5 528,-760.5 528,-760.5 528,-889.5 528,-889.5 528,-895.5 522,-901.5 516,-901.5 516,-901.5 403,-901.5 403,-901.5 397,-901.5 391,-895.5 391,-889.5 391,-889.5 391,-760.5 391,-760.5 391,-754.5 397,-748.5 403,-748.5"/>
<text text-anchor="middle" x="459.5" y="-886.3" font-family="Times,serif" font-size="14.00">CompaniesController</text>
<polyline fill="none" stroke="black" points="391,-878.5 528,-878.5 "/>
<text text-anchor="start" x="399" y="-863.3" font-family="Times,serif" font-size="14.00">create</text>
<text text-anchor="start" x="399" y="-848.3" font-family="Times,serif" font-size="14.00">index</text>
<text text-anchor="start" x="399" y="-833.3" font-family="Times,serif" font-size="14.00">new</text>
<text text-anchor="start" x="399" y="-818.3" font-family="Times,serif" font-size="14.00">show</text>
<polyline fill="none" stroke="black" points="391,-810.5 528,-810.5 "/>
<polyline fill="none" stroke="black" points="391,-786.5 528,-786.5 "/>
<text text-anchor="start" x="399" y="-771.3" font-family="Times,serif" font-size="14.00">_layout</text>
<text text-anchor="start" x="399" y="-756.3" font-family="Times,serif" font-size="14.00">secure_params</text>
</g>
<!-- ContactsController -->
<g id="node7" class="node"><title>ContactsController</title>
<path fill="none" stroke="black" d="M726,-51.5C726,-51.5 825,-51.5 825,-51.5 831,-51.5 837,-57.5 837,-63.5 837,-63.5 837,-192.5 837,-192.5 837,-198.5 831,-204.5 825,-204.5 825,-204.5 726,-204.5 726,-204.5 720,-204.5 714,-198.5 714,-192.5 714,-192.5 714,-63.5 714,-63.5 714,-57.5 720,-51.5 726,-51.5"/>
<text text-anchor="middle" x="775.5" y="-189.3" font-family="Times,serif" font-size="14.00">ContactsController</text>
<polyline fill="none" stroke="black" points="714,-181.5 837,-181.5 "/>
<text text-anchor="start" x="722" y="-166.3" font-family="Times,serif" font-size="14.00">create</text>
<text text-anchor="start" x="722" y="-151.3" font-family="Times,serif" font-size="14.00">index</text>
<text text-anchor="start" x="722" y="-136.3" font-family="Times,serif" font-size="14.00">new</text>
<text text-anchor="start" x="722" y="-121.3" font-family="Times,serif" font-size="14.00">show</text>
<polyline fill="none" stroke="black" points="714,-113.5 837,-113.5 "/>
<polyline fill="none" stroke="black" points="714,-89.5 837,-89.5 "/>
<text text-anchor="start" x="722" y="-74.3" font-family="Times,serif" font-size="14.00">_layout</text>
<text text-anchor="start" x="722" y="-59.3" font-family="Times,serif" font-size="14.00">secure_params</text>
</g>
<!-- DashboardsController -->
<g id="node8" class="node"><title>DashboardsController</title>
<path fill="none" stroke="black" d="M403,-17.5C403,-17.5 519,-17.5 519,-17.5 525,-17.5 531,-23.5 531,-29.5 531,-29.5 531,-113.5 531,-113.5 531,-119.5 525,-125.5 519,-125.5 519,-125.5 403,-125.5 403,-125.5 397,-125.5 391,-119.5 391,-113.5 391,-113.5 391,-29.5 391,-29.5 391,-23.5 397,-17.5 403,-17.5"/>
<text text-anchor="middle" x="461" y="-110.3" font-family="Times,serif" font-size="14.00">DashboardsController</text>
<polyline fill="none" stroke="black" points="391,-102.5 531,-102.5 "/>
<text text-anchor="start" x="399" y="-87.3" font-family="Times,serif" font-size="14.00">index</text>
<text text-anchor="start" x="399" y="-72.3" font-family="Times,serif" font-size="14.00">show</text>
<polyline fill="none" stroke="black" points="391,-64.5 531,-64.5 "/>
<polyline fill="none" stroke="black" points="391,-40.5 531,-40.5 "/>
<text text-anchor="start" x="399" y="-25.3" font-family="Times,serif" font-size="14.00">_layout</text>
</g>
<!-- DeedsController -->
<g id="node9" class="node"><title>DeedsController</title>
<path fill="none" stroke="black" d="M573,-544.5C573,-544.5 658,-544.5 658,-544.5 664,-544.5 670,-550.5 670,-556.5 670,-556.5 670,-745.5 670,-745.5 670,-751.5 664,-757.5 658,-757.5 658,-757.5 573,-757.5 573,-757.5 567,-757.5 561,-751.5 561,-745.5 561,-745.5 561,-556.5 561,-556.5 561,-550.5 567,-544.5 573,-544.5"/>
<text text-anchor="middle" x="615.5" y="-742.3" font-family="Times,serif" font-size="14.00">DeedsController</text>
<polyline fill="none" stroke="black" points="561,-734.5 670,-734.5 "/>
<text text-anchor="start" x="569" y="-719.3" font-family="Times,serif" font-size="14.00">create</text>
<text text-anchor="start" x="569" y="-704.3" font-family="Times,serif" font-size="14.00">destroy</text>
<text text-anchor="start" x="569" y="-689.3" font-family="Times,serif" font-size="14.00">edit</text>
<text text-anchor="start" x="569" y="-674.3" font-family="Times,serif" font-size="14.00">index</text>
<text text-anchor="start" x="569" y="-659.3" font-family="Times,serif" font-size="14.00">new</text>
<text text-anchor="start" x="569" y="-644.3" font-family="Times,serif" font-size="14.00">show</text>
<text text-anchor="start" x="569" y="-629.3" font-family="Times,serif" font-size="14.00">update</text>
<polyline fill="none" stroke="black" points="561,-621.5 670,-621.5 "/>
<polyline fill="none" stroke="black" points="561,-597.5 670,-597.5 "/>
<text text-anchor="start" x="569" y="-582.3" font-family="Times,serif" font-size="14.00">_layout</text>
<text text-anchor="start" x="569" y="-567.3" font-family="Times,serif" font-size="14.00">deed_params</text>
<text text-anchor="start" x="569" y="-552.3" font-family="Times,serif" font-size="14.00">set_deed</text>
</g>
<!-- DocumentsController -->
<g id="node10" class="node"><title>DocumentsController</title>
<path fill="none" stroke="black" d="M29,-0.5C29,-0.5 143,-0.5 143,-0.5 149,-0.5 155,-6.5 155,-12.5 155,-12.5 155,-82.5 155,-82.5 155,-88.5 149,-94.5 143,-94.5 143,-94.5 29,-94.5 29,-94.5 23,-94.5 17,-88.5 17,-82.5 17,-82.5 17,-12.5 17,-12.5 17,-6.5 23,-0.5 29,-0.5"/>
<text text-anchor="middle" x="86" y="-79.3" font-family="Times,serif" font-size="14.00">DocumentsController</text>
<polyline fill="none" stroke="black" points="17,-71.5 155,-71.5 "/>
<polyline fill="none" stroke="black" points="17,-47.5 155,-47.5 "/>
<polyline fill="none" stroke="black" points="17,-23.5 155,-23.5 "/>
<text text-anchor="start" x="25" y="-8.3" font-family="Times,serif" font-size="14.00">_layout</text>
</g>
<!-- EmployeesController -->
<g id="node11" class="node"><title>EmployeesController</title>
<path fill="none" stroke="black" d="M709,-629.5C709,-629.5 821,-629.5 821,-629.5 827,-629.5 833,-635.5 833,-641.5 833,-641.5 833,-770.5 833,-770.5 833,-776.5 827,-782.5 821,-782.5 821,-782.5 709,-782.5 709,-782.5 703,-782.5 697,-776.5 697,-770.5 697,-770.5 697,-641.5 697,-641.5 697,-635.5 703,-629.5 709,-629.5"/>
<text text-anchor="middle" x="765" y="-767.3" font-family="Times,serif" font-size="14.00">EmployeesController</text>
<polyline fill="none" stroke="black" points="697,-759.5 833,-759.5 "/>
<text text-anchor="start" x="705" y="-744.3" font-family="Times,serif" font-size="14.00">create</text>
<text text-anchor="start" x="705" y="-729.3" font-family="Times,serif" font-size="14.00">index</text>
<text text-anchor="start" x="705" y="-714.3" font-family="Times,serif" font-size="14.00">new</text>
<text text-anchor="start" x="705" y="-699.3" font-family="Times,serif" font-size="14.00">show</text>
<polyline fill="none" stroke="black" points="697,-691.5 833,-691.5 "/>
<polyline fill="none" stroke="black" points="697,-667.5 833,-667.5 "/>
<text text-anchor="start" x="705" y="-652.3" font-family="Times,serif" font-size="14.00">_layout</text>
<text text-anchor="start" x="705" y="-637.3" font-family="Times,serif" font-size="14.00">secure_params</text>
</g>
<!-- FlowsController -->
<g id="node12" class="node"><title>FlowsController</title>
<path fill="none" stroke="black" d="M199,-272.5C199,-272.5 283,-272.5 283,-272.5 289,-272.5 295,-278.5 295,-284.5 295,-284.5 295,-458.5 295,-458.5 295,-464.5 289,-470.5 283,-470.5 283,-470.5 199,-470.5 199,-470.5 193,-470.5 187,-464.5 187,-458.5 187,-458.5 187,-284.5 187,-284.5 187,-278.5 193,-272.5 199,-272.5"/>
<text text-anchor="middle" x="241" y="-455.3" font-family="Times,serif" font-size="14.00">FlowsController</text>
<polyline fill="none" stroke="black" points="187,-447.5 295,-447.5 "/>
<text text-anchor="start" x="195" y="-432.3" font-family="Times,serif" font-size="14.00">create</text>
<text text-anchor="start" x="195" y="-417.3" font-family="Times,serif" font-size="14.00">destroy</text>
<text text-anchor="start" x="195" y="-402.3" font-family="Times,serif" font-size="14.00">edit</text>
<text text-anchor="start" x="195" y="-387.3" font-family="Times,serif" font-size="14.00">index</text>
<text text-anchor="start" x="195" y="-372.3" font-family="Times,serif" font-size="14.00">new</text>
<text text-anchor="start" x="195" y="-357.3" font-family="Times,serif" font-size="14.00">show</text>
<text text-anchor="start" x="195" y="-342.3" font-family="Times,serif" font-size="14.00">update</text>
<polyline fill="none" stroke="black" points="187,-334.5 295,-334.5 "/>
<polyline fill="none" stroke="black" points="187,-310.5 295,-310.5 "/>
<text text-anchor="start" x="195" y="-295.3" font-family="Times,serif" font-size="14.00">_layout</text>
<text text-anchor="start" x="195" y="-280.3" font-family="Times,serif" font-size="14.00">flow_params</text>
</g>
<!-- LawfirmsController -->
<g id="node13" class="node"><title>LawfirmsController</title>
<path fill="none" stroke="black" d="M709,-442.5C709,-442.5 813,-442.5 813,-442.5 819,-442.5 825,-448.5 825,-454.5 825,-454.5 825,-583.5 825,-583.5 825,-589.5 819,-595.5 813,-595.5 813,-595.5 709,-595.5 709,-595.5 703,-595.5 697,-589.5 697,-583.5 697,-583.5 697,-454.5 697,-454.5 697,-448.5 703,-442.5 709,-442.5"/>
<text text-anchor="middle" x="761" y="-580.3" font-family="Times,serif" font-size="14.00">LawfirmsController</text>
<polyline fill="none" stroke="black" points="697,-572.5 825,-572.5 "/>
<text text-anchor="start" x="705" y="-557.3" font-family="Times,serif" font-size="14.00">create</text>
<text text-anchor="start" x="705" y="-542.3" font-family="Times,serif" font-size="14.00">index</text>
<text text-anchor="start" x="705" y="-527.3" font-family="Times,serif" font-size="14.00">new</text>
<text text-anchor="start" x="705" y="-512.3" font-family="Times,serif" font-size="14.00">show</text>
<polyline fill="none" stroke="black" points="697,-504.5 825,-504.5 "/>
<polyline fill="none" stroke="black" points="697,-480.5 825,-480.5 "/>
<text text-anchor="start" x="705" y="-465.3" font-family="Times,serif" font-size="14.00">_layout</text>
<text text-anchor="start" x="705" y="-450.3" font-family="Times,serif" font-size="14.00">secure_params</text>
</g>
<!-- LawyersController -->
<g id="node14" class="node"><title>LawyersController</title>
<path fill="none" stroke="black" d="M46,-374.5C46,-374.5 144,-374.5 144,-374.5 150,-374.5 156,-380.5 156,-386.5 156,-386.5 156,-515.5 156,-515.5 156,-521.5 150,-527.5 144,-527.5 144,-527.5 46,-527.5 46,-527.5 40,-527.5 34,-521.5 34,-515.5 34,-515.5 34,-386.5 34,-386.5 34,-380.5 40,-374.5 46,-374.5"/>
<text text-anchor="middle" x="95" y="-512.3" font-family="Times,serif" font-size="14.00">LawyersController</text>
<polyline fill="none" stroke="black" points="34,-504.5 156,-504.5 "/>
<text text-anchor="start" x="42" y="-489.3" font-family="Times,serif" font-size="14.00">create</text>
<text text-anchor="start" x="42" y="-474.3" font-family="Times,serif" font-size="14.00">index</text>
<text text-anchor="start" x="42" y="-459.3" font-family="Times,serif" font-size="14.00">new</text>
<text text-anchor="start" x="42" y="-444.3" font-family="Times,serif" font-size="14.00">show</text>
<polyline fill="none" stroke="black" points="34,-436.5 156,-436.5 "/>
<polyline fill="none" stroke="black" points="34,-412.5 156,-412.5 "/>
<text text-anchor="start" x="42" y="-397.3" font-family="Times,serif" font-size="14.00">_layout</text>
<text text-anchor="start" x="42" y="-382.3" font-family="Times,serif" font-size="14.00">secure_params</text>
</g>
<!-- LeasesController -->
<g id="node15" class="node"><title>LeasesController</title>
<path fill="none" stroke="black" d="M573,-17.5C573,-17.5 661,-17.5 661,-17.5 667,-17.5 673,-23.5 673,-29.5 673,-29.5 673,-99.5 673,-99.5 673,-105.5 667,-111.5 661,-111.5 661,-111.5 573,-111.5 573,-111.5 567,-111.5 561,-105.5 561,-99.5 561,-99.5 561,-29.5 561,-29.5 561,-23.5 567,-17.5 573,-17.5"/>
<text text-anchor="middle" x="617" y="-96.3" font-family="Times,serif" font-size="14.00">LeasesController</text>
<polyline fill="none" stroke="black" points="561,-88.5 673,-88.5 "/>
<polyline fill="none" stroke="black" points="561,-64.5 673,-64.5 "/>
<polyline fill="none" stroke="black" points="561,-40.5 673,-40.5 "/>
<text text-anchor="start" x="569" y="-25.3" font-family="Times,serif" font-size="14.00">_layout</text>
</g>
<!-- LesseesController -->
<g id="node16" class="node"><title>LesseesController</title>
<path fill="none" stroke="black" d="M12,-238.5C12,-238.5 106,-238.5 106,-238.5 112,-238.5 118,-244.5 118,-250.5 118,-250.5 118,-320.5 118,-320.5 118,-326.5 112,-332.5 106,-332.5 106,-332.5 12,-332.5 12,-332.5 6,-332.5 0,-326.5 0,-320.5 0,-320.5 0,-250.5 0,-250.5 0,-244.5 6,-238.5 12,-238.5"/>
<text text-anchor="middle" x="59" y="-317.3" font-family="Times,serif" font-size="14.00">LesseesController</text>
<polyline fill="none" stroke="black" points="0,-309.5 118,-309.5 "/>
<polyline fill="none" stroke="black" points="0,-285.5 118,-285.5 "/>
<polyline fill="none" stroke="black" points="0,-261.5 118,-261.5 "/>
<text text-anchor="start" x="8" y="-246.3" font-family="Times,serif" font-size="14.00">_layout</text>
</g>
<!-- ParcelsController -->
<g id="node17" class="node"><title>ParcelsController</title>
<path fill="none" stroke="black" d="M29,-748.5C29,-748.5 119,-748.5 119,-748.5 125,-748.5 131,-754.5 131,-760.5 131,-760.5 131,-889.5 131,-889.5 131,-895.5 125,-901.5 119,-901.5 119,-901.5 29,-901.5 29,-901.5 23,-901.5 17,-895.5 17,-889.5 17,-889.5 17,-760.5 17,-760.5 17,-754.5 23,-748.5 29,-748.5"/>
<text text-anchor="middle" x="74" y="-886.3" font-family="Times,serif" font-size="14.00">ParcelsController</text>
<polyline fill="none" stroke="black" points="17,-878.5 131,-878.5 "/>
<text text-anchor="start" x="25" y="-863.3" font-family="Times,serif" font-size="14.00">create</text>
<text text-anchor="start" x="25" y="-848.3" font-family="Times,serif" font-size="14.00">index</text>
<text text-anchor="start" x="25" y="-833.3" font-family="Times,serif" font-size="14.00">new</text>
<text text-anchor="start" x="25" y="-818.3" font-family="Times,serif" font-size="14.00">show</text>
<polyline fill="none" stroke="black" points="17,-810.5 131,-810.5 "/>
<polyline fill="none" stroke="black" points="17,-786.5 131,-786.5 "/>
<text text-anchor="start" x="25" y="-771.3" font-family="Times,serif" font-size="14.00">_layout</text>
<text text-anchor="start" x="25" y="-756.3" font-family="Times,serif" font-size="14.00">secure_params</text>
</g>
<!-- ServiceTransitionsController -->
<g id="node18" class="node"><title>ServiceTransitionsController</title>
<path fill="none" stroke="black" d="M675,-289.5C675,-289.5 830,-289.5 830,-289.5 836,-289.5 842,-295.5 842,-301.5 842,-301.5 842,-400.5 842,-400.5 842,-406.5 836,-412.5 830,-412.5 830,-412.5 675,-412.5 675,-412.5 669,-412.5 663,-406.5 663,-400.5 663,-400.5 663,-301.5 663,-301.5 663,-295.5 669,-289.5 675,-289.5"/>
<text text-anchor="middle" x="752.5" y="-397.3" font-family="Times,serif" font-size="14.00">ServiceTransitionsController</text>
<polyline fill="none" stroke="black" points="663,-389.5 842,-389.5 "/>
<text text-anchor="start" x="671" y="-374.3" font-family="Times,serif" font-size="14.00">index</text>
<text text-anchor="start" x="671" y="-359.3" font-family="Times,serif" font-size="14.00">lease</text>
<text text-anchor="start" x="671" y="-344.3" font-family="Times,serif" font-size="14.00">show</text>
<polyline fill="none" stroke="black" points="663,-336.5 842,-336.5 "/>
<polyline fill="none" stroke="black" points="663,-312.5 842,-312.5 "/>
<text text-anchor="start" x="671" y="-297.3" font-family="Times,serif" font-size="14.00">_layout</text>
</g>
<!-- ServicesController -->
<g id="node19" class="node"><title>ServicesController</title>
<path fill="none" stroke="black" d="M335,-255.5C335,-255.5 432,-255.5 432,-255.5 438,-255.5 444,-261.5 444,-267.5 444,-267.5 444,-471.5 444,-471.5 444,-477.5 438,-483.5 432,-483.5 432,-483.5 335,-483.5 335,-483.5 329,-483.5 323,-477.5 323,-471.5 323,-471.5 323,-267.5 323,-267.5 323,-261.5 329,-255.5 335,-255.5"/>
<text text-anchor="middle" x="383.5" y="-468.3" font-family="Times,serif" font-size="14.00">ServicesController</text>
<polyline fill="none" stroke="black" points="323,-460.5 444,-460.5 "/>
<text text-anchor="start" x="331" y="-445.3" font-family="Times,serif" font-size="14.00">accept</text>
<text text-anchor="start" x="331" y="-430.3" font-family="Times,serif" font-size="14.00">assign</text>
<text text-anchor="start" x="331" y="-415.3" font-family="Times,serif" font-size="14.00">create</text>
<text text-anchor="start" x="331" y="-400.3" font-family="Times,serif" font-size="14.00">index</text>
<text text-anchor="start" x="331" y="-385.3" font-family="Times,serif" font-size="14.00">new</text>
<text text-anchor="start" x="331" y="-370.3" font-family="Times,serif" font-size="14.00">receive</text>
<text text-anchor="start" x="331" y="-355.3" font-family="Times,serif" font-size="14.00">show</text>
<text text-anchor="start" x="331" y="-340.3" font-family="Times,serif" font-size="14.00">update</text>
<polyline fill="none" stroke="black" points="323,-332.5 444,-332.5 "/>
<polyline fill="none" stroke="black" points="323,-308.5 444,-308.5 "/>
<text text-anchor="start" x="331" y="-293.3" font-family="Times,serif" font-size="14.00">_layout</text>
<text text-anchor="start" x="331" y="-278.3" font-family="Times,serif" font-size="14.00">req_params</text>
<text text-anchor="start" x="331" y="-263.3" font-family="Times,serif" font-size="14.00">service_params</text>
</g>
<!-- TitleAbstractsController -->
<g id="node20" class="node"><title>TitleAbstractsController</title>
<path fill="none" stroke="black" d="M488,-289.5C488,-289.5 617,-289.5 617,-289.5 623,-289.5 629,-295.5 629,-301.5 629,-301.5 629,-490.5 629,-490.5 629,-496.5 623,-502.5 617,-502.5 617,-502.5 488,-502.5 488,-502.5 482,-502.5 476,-496.5 476,-490.5 476,-490.5 476,-301.5 476,-301.5 476,-295.5 482,-289.5 488,-289.5"/>
<text text-anchor="middle" x="552.5" y="-487.3" font-family="Times,serif" font-size="14.00">TitleAbstractsController</text>
<polyline fill="none" stroke="black" points="476,-479.5 629,-479.5 "/>
<text text-anchor="start" x="484" y="-464.3" font-family="Times,serif" font-size="14.00">create</text>
<text text-anchor="start" x="484" y="-449.3" font-family="Times,serif" font-size="14.00">destroy</text>
<text text-anchor="start" x="484" y="-434.3" font-family="Times,serif" font-size="14.00">edit</text>
<text text-anchor="start" x="484" y="-419.3" font-family="Times,serif" font-size="14.00">index</text>
<text text-anchor="start" x="484" y="-404.3" font-family="Times,serif" font-size="14.00">new</text>
<text text-anchor="start" x="484" y="-389.3" font-family="Times,serif" font-size="14.00">show</text>
<text text-anchor="start" x="484" y="-374.3" font-family="Times,serif" font-size="14.00">update</text>
<polyline fill="none" stroke="black" points="476,-366.5 629,-366.5 "/>
<polyline fill="none" stroke="black" points="476,-342.5 629,-342.5 "/>
<text text-anchor="start" x="484" y="-327.3" font-family="Times,serif" font-size="14.00">_layout</text>
<text text-anchor="start" x="484" y="-312.3" font-family="Times,serif" font-size="14.00">set_title_abstract</text>
<text text-anchor="start" x="484" y="-297.3" font-family="Times,serif" font-size="14.00">title_abstract_params</text>
</g>
<!-- UsersController -->
<g id="node21" class="node"><title>UsersController</title>
<path fill="none" stroke="black" d="M182,-595.5C182,-595.5 264,-595.5 264,-595.5 270,-595.5 276,-601.5 276,-607.5 276,-607.5 276,-766.5 276,-766.5 276,-772.5 270,-778.5 264,-778.5 264,-778.5 182,-778.5 182,-778.5 176,-778.5 170,-772.5 170,-766.5 170,-766.5 170,-607.5 170,-607.5 170,-601.5 176,-595.5 182,-595.5"/>
<text text-anchor="middle" x="223" y="-763.3" font-family="Times,serif" font-size="14.00">UsersController</text>
<polyline fill="none" stroke="black" points="170,-755.5 276,-755.5 "/>
<text text-anchor="start" x="178" y="-740.3" font-family="Times,serif" font-size="14.00">create</text>
<text text-anchor="start" x="178" y="-725.3" font-family="Times,serif" font-size="14.00">destroy</text>
<text text-anchor="start" x="178" y="-710.3" font-family="Times,serif" font-size="14.00">index</text>
<text text-anchor="start" x="178" y="-695.3" font-family="Times,serif" font-size="14.00">new</text>
<text text-anchor="start" x="178" y="-680.3" font-family="Times,serif" font-size="14.00">show</text>
<text text-anchor="start" x="178" y="-665.3" font-family="Times,serif" font-size="14.00">update</text>
<polyline fill="none" stroke="black" points="170,-657.5 276,-657.5 "/>
<polyline fill="none" stroke="black" points="170,-633.5 276,-633.5 "/>
<text text-anchor="start" x="178" y="-618.3" font-family="Times,serif" font-size="14.00">_layout</text>
<text text-anchor="start" x="178" y="-603.3" font-family="Times,serif" font-size="14.00">secure_params</text>
</g>
<!-- VisitorsController -->
<g id="node22" class="node"><title>VisitorsController</title>
<path fill="none" stroke="black" d="M845,-816.5C845,-816.5 939,-816.5 939,-816.5 945,-816.5 951,-822.5 951,-828.5 951,-828.5 951,-898.5 951,-898.5 951,-904.5 945,-910.5 939,-910.5 939,-910.5 845,-910.5 845,-910.5 839,-910.5 833,-904.5 833,-898.5 833,-898.5 833,-828.5 833,-828.5 833,-822.5 839,-816.5 845,-816.5"/>
<text text-anchor="middle" x="892" y="-895.3" font-family="Times,serif" font-size="14.00">VisitorsController</text>
<polyline fill="none" stroke="black" points="833,-887.5 951,-887.5 "/>
<polyline fill="none" stroke="black" points="833,-863.5 951,-863.5 "/>
<polyline fill="none" stroke="black" points="833,-839.5 951,-839.5 "/>
<text text-anchor="start" x="841" y="-824.3" font-family="Times,serif" font-size="14.00">_layout</text>
</g>
</g>
</svg>
