<?xml version="1.0" encoding="UTF-8" standalone="no"?>
<!DOCTYPE svg PUBLIC "-//W3C//DTD SVG 1.1//EN"
 "http://www.w3.org/Graphics/SVG/1.1/DTD/svg11.dtd">
<!-- Generated by graphviz version 2.36.0 (20140111.2315)
 -->
<!-- Title: models_diagram Pages: 1 -->
<svg width="878pt" height="592pt"
 viewBox="0.00 0.00 878.00 592.00" xmlns="http://www.w3.org/2000/svg" xmlns:xlink="http://www.w3.org/1999/xlink">
<g id="graph0" class="graph" transform="scale(1 1) rotate(0) translate(4 588)">
<title>models_diagram</title>
<polygon fill="white" stroke="none" points="-4,4 -4,-588 874,-588 874,4 -4,4"/>
<!-- _diagram_info -->
<g id="node1" class="node"><title>_diagram_info</title>
<text text-anchor="start" x="8" y="-569.6" font-family="Times,serif" font-size="13.00">Models diagram</text>
<text text-anchor="start" x="8" y="-555.6" font-family="Times,serif" font-size="13.00">Date: Jan 11 2015 &#45; 21:27</text>
<text text-anchor="start" x="8" y="-541.6" font-family="Times,serif" font-size="13.00">Migration version: 20150111233500</text>
<text text-anchor="start" x="8" y="-527.6" font-family="Times,serif" font-size="13.00">Generated by RailRoady 1.2.0</text>
<text text-anchor="start" x="8" y="-513.6" font-family="Times,serif" font-size="13.00">http://railroady.prestonlee.com</text>
</g>
<!-- Client -->
<g id="node2" class="node"><title>Client</title>
<ellipse fill="none" stroke="black" cx="241" cy="-450" rx="33.2209" ry="18"/>
<text text-anchor="middle" x="241" y="-446.3" font-family="Times,serif" font-size="14.00">Client</text>
</g>
<!-- Service -->
<g id="node12" class="node"><title>Service</title>
<ellipse fill="none" stroke="black" cx="480" cy="-376" rx="37.5442" ry="18"/>
<text text-anchor="middle" x="480" y="-372.3" font-family="Times,serif" font-size="14.00">Service</text>
</g>
<!-- Client&#45;&gt;Service -->
<g id="edge2" class="edge"><title>Client&#45;&gt;Service</title>
<path fill="none" stroke="#d9724c" d="M274.679,-435.507C293.929,-428.057 318.622,-418.935 341,-412 372.755,-402.159 409.221,-393.057 436.833,-386.604"/>
<ellipse fill="none" stroke="#d9724c" cx="270.78" cy="-437.028" rx="4.00001" ry="4.00001"/>
<polygon fill="#d9724c" stroke="#d9724c" points="436.838,-386.603 447.594,-388.734 441.709,-385.476 446.58,-384.349 446.58,-384.349 446.58,-384.349 441.709,-385.476 445.566,-379.965 436.838,-386.603 436.838,-386.603"/>
</g>
<!-- PaperTrail::Version -->
<g id="node16" class="node"><title>PaperTrail::Version</title>
<ellipse fill="none" stroke="black" cx="665" cy="-18" rx="83.2892" ry="18"/>
<text text-anchor="middle" x="665" y="-14.3" font-family="Times,serif" font-size="14.00">PaperTrail::Version</text>
</g>
<!-- Client&#45;&gt;PaperTrail::Version -->
<g id="edge1" class="edge"><title>Client&#45;&gt;PaperTrail::Version</title>
<path fill="none" stroke="#2e2e42" d="M240.478,-423.75C240.235,-409.94 240,-392.529 240,-377 240,-377 240,-377 240,-105 240,-37.819 446.586,-22.5116 571.695,-19.4011"/>
<ellipse fill="none" stroke="#2e2e42" cx="240.553" cy="-427.835" rx="4" ry="4"/>
<polygon fill="#2e2e42" stroke="#2e2e42" points="572.049,-19.3932 582.149,-23.6657 577.048,-19.28 582.047,-19.1669 582.047,-19.1669 582.047,-19.1669 577.048,-19.28 581.945,-14.668 572.049,-19.3932 572.049,-19.3932"/>
<text text-anchor="middle" x="263.5" y="-244.3" font-family="Times,serif" font-size="14.00">versions</text>
</g>
<!-- Company -->
<g id="node3" class="node"><title>Company</title>
<ellipse fill="none" stroke="black" cx="272" cy="-545" rx="46.2191" ry="18"/>
<text text-anchor="middle" x="272" y="-541.3" font-family="Times,serif" font-size="14.00">Company</text>
</g>
<!-- Company&#45;&gt;Client -->
<g id="edge4" class="edge"><title>Company&#45;&gt;Client</title>
<path fill="none" stroke="#bb2887" d="M263.651,-518.952C259.401,-506.202 254.232,-490.695 249.905,-477.716"/>
<ellipse fill="none" stroke="#bb2887" cx="265.049" cy="-523.148" rx="4.00001" ry="4.00001"/>
<polygon fill="#bb2887" stroke="#bb2887" points="249.812,-477.436 250.919,-466.526 248.231,-472.693 246.65,-467.949 246.65,-467.949 246.65,-467.949 248.231,-472.693 242.381,-469.373 249.812,-477.436 249.812,-477.436"/>
</g>
<!-- Flow -->
<g id="node5" class="node"><title>Flow</title>
<ellipse fill="none" stroke="black" cx="435" cy="-194" rx="29.3722" ry="18"/>
<text text-anchor="middle" x="435" y="-190.3" font-family="Times,serif" font-size="14.00">Flow</text>
</g>
<!-- Company&#45;&gt;Flow -->
<g id="edge6" class="edge"><title>Company&#45;&gt;Flow</title>
<path fill="none" stroke="#2460dd" d="M284.44,-519.672C292.688,-501.298 302,-475.196 302,-451 302,-451 302,-451 302,-301 302,-250.915 360.392,-220.665 399.795,-205.953"/>
<ellipse fill="none" stroke="#2460dd" cx="282.692" cy="-523.42" rx="4.00002" ry="4.00002"/>
<polygon fill="#2460dd" stroke="#2460dd" points="399.937,-205.903 410.867,-206.784 404.646,-204.224 409.356,-202.545 409.356,-202.545 409.356,-202.545 404.646,-204.224 407.845,-198.307 399.937,-205.903 399.937,-205.903"/>
</g>
<!-- Company&#45;&gt;Service -->
<g id="edge5" class="edge"><title>Company&#45;&gt;Service</title>
<path fill="none" stroke="#95a70f" d="M297.646,-523.409C337.324,-491.552 413.202,-430.631 453.432,-398.331"/>
<ellipse fill="none" stroke="#95a70f" cx="294.314" cy="-526.084" rx="4.00002" ry="4.00002"/>
<polygon fill="#95a70f" stroke="#95a70f" points="453.652,-398.154 464.267,-395.403 457.551,-395.024 461.45,-391.894 461.45,-391.894 461.45,-391.894 457.551,-395.024 458.633,-388.385 453.652,-398.154 453.652,-398.154"/>
</g>
<!-- User -->
<g id="node15" class="node"><title>User</title>
<ellipse fill="none" stroke="black" cx="393" cy="-106" rx="27.4223" ry="18"/>
<text text-anchor="middle" x="393" y="-102.3" font-family="Times,serif" font-size="14.00">User</text>
</g>
<!-- Company&#45;&gt;User -->
<g id="edge3" class="edge"><title>Company&#45;&gt;User</title>
<path fill="none" stroke="#cae0d0" d="M244.483,-523.493C217.376,-502.22 180,-469.529 180,-451 180,-451 180,-451 180,-193 180,-118.357 293.863,-106.89 355.089,-106.12"/>
<ellipse fill="none" stroke="#cae0d0" cx="247.962" cy="-526.189" rx="4.00002" ry="4.00002"/>
<polygon fill="#cae0d0" stroke="#cae0d0" points="355.154,-106.12 365.17,-110.584 360.154,-106.102 365.154,-106.084 365.154,-106.084 365.154,-106.084 360.154,-106.102 365.138,-101.584 355.154,-106.12 355.154,-106.12"/>
</g>
<!-- Contact -->
<g id="node4" class="node"><title>Contact</title>
<ellipse fill="none" stroke="black" cx="556" cy="-545" rx="38.4949" ry="18"/>
<text text-anchor="middle" x="556" y="-541.3" font-family="Times,serif" font-size="14.00">Contact</text>
</g>
<!-- Flow&#45;&gt;User -->
<g id="edge7" class="edge"><title>Flow&#45;&gt;User</title>
<path fill="none" stroke="#dfec50" d="M423.356,-169.158C417.777,-157.734 411.09,-144.042 405.414,-132.42"/>
<ellipse fill="none" stroke="#dfec50" cx="425.147" cy="-172.824" rx="4.00002" ry="4.00002"/>
<polygon fill="#dfec50" stroke="#dfec50" points="405.319,-132.225 404.974,-121.264 403.125,-127.732 400.931,-123.239 400.931,-123.239 400.931,-123.239 403.125,-127.732 396.887,-125.214 405.319,-132.225 405.319,-132.225"/>
</g>
<!-- Lawfirm -->
<g id="node6" class="node"><title>Lawfirm</title>
<ellipse fill="none" stroke="black" cx="457" cy="-545" rx="42.3701" ry="18"/>
<text text-anchor="middle" x="457" y="-541.3" font-family="Times,serif" font-size="14.00">Lawfirm</text>
</g>
<!-- Lawfirm&#45;&gt;Flow -->
<g id="edge10" class="edge"><title>Lawfirm&#45;&gt;Flow</title>
<path fill="none" stroke="#b3c01a" d="M451.979,-519.082C443.954,-477.872 428.577,-392.833 423,-320 421.167,-296.066 422.222,-290.003 422,-266 421.852,-250.001 419.17,-245.748 422,-230 422.516,-227.129 423.252,-224.186 424.115,-221.285"/>
<ellipse fill="none" stroke="#b3c01a" cx="452.755" cy="-523.032" rx="4.00001" ry="4.00001"/>
<polygon fill="#b3c01a" stroke="#b3c01a" points="424.144,-221.202 431.657,-213.215 425.773,-216.475 427.403,-211.749 427.403,-211.749 427.403,-211.749 425.773,-216.475 423.149,-210.282 424.144,-221.202 424.144,-221.202"/>
</g>
<!-- Lawyer -->
<g id="node7" class="node"><title>Lawyer</title>
<ellipse fill="none" stroke="black" cx="523" cy="-450" rx="38.0212" ry="18"/>
<text text-anchor="middle" x="523" y="-446.3" font-family="Times,serif" font-size="14.00">Lawyer</text>
</g>
<!-- Lawfirm&#45;&gt;Lawyer -->
<g id="edge8" class="edge"><title>Lawfirm&#45;&gt;Lawyer</title>
<path fill="none" stroke="#2345ac" d="M473.615,-520.588C483.415,-506.779 495.799,-489.328 505.714,-475.357"/>
<ellipse fill="none" stroke="#2345ac" cx="471.114" cy="-524.111" rx="4.00002" ry="4.00002"/>
<polygon fill="#2345ac" stroke="#2345ac" points="505.736,-475.326 515.193,-469.776 508.63,-471.249 511.524,-467.171 511.524,-467.171 511.524,-467.171 508.63,-471.249 507.854,-464.567 505.736,-475.326 505.736,-475.326"/>
</g>
<!-- Lawfirm&#45;&gt;Service -->
<g id="edge9" class="edge"><title>Lawfirm&#45;&gt;Service</title>
<path fill="none" stroke="#fafbdf" d="M460.494,-518.628C464.74,-487.799 471.876,-435.99 476.239,-404.311"/>
<ellipse fill="none" stroke="#fafbdf" cx="459.921" cy="-522.794" rx="4.00001" ry="4.00001"/>
<polygon fill="#fafbdf" stroke="#fafbdf" points="476.239,-404.306 482.062,-395.013 476.921,-399.353 477.604,-394.399 477.604,-394.399 477.604,-394.399 476.921,-399.353 473.146,-393.785 476.239,-404.306 476.239,-404.306"/>
</g>
<!-- Lawyer&#45;&gt;Service -->
<g id="edge12" class="edge"><title>Lawyer&#45;&gt;Service</title>
<path fill="none" stroke="#496d25" d="M508.909,-425.406C504.544,-418.097 499.715,-410.01 495.273,-402.574"/>
<ellipse fill="none" stroke="#496d25" cx="510.976" cy="-428.867" rx="4.00002" ry="4.00002"/>
<polygon fill="#496d25" stroke="#496d25" points="495.047,-402.194 493.783,-391.301 492.483,-397.901 489.919,-393.609 489.919,-393.609 489.919,-393.609 492.483,-397.901 486.056,-395.916 495.047,-402.194 495.047,-402.194"/>
</g>
<!-- Lawyer&#45;&gt;PaperTrail::Version -->
<g id="edge11" class="edge"><title>Lawyer&#45;&gt;PaperTrail::Version</title>
<path fill="none" stroke="#98ae74" d="M569.104,-447.429C653.217,-443.3 823,-428.577 823,-377 823,-377 823,-377 823,-105 823,-64.319 782.093,-42.7713 741.908,-31.4184"/>
<ellipse fill="none" stroke="#98ae74" cx="564.991" cy="-447.621" rx="4" ry="4"/>
<polygon fill="#98ae74" stroke="#98ae74" points="741.677,-31.3577 733.151,-24.4612 736.842,-30.0854 732.006,-28.8131 732.006,-28.8131 732.006,-28.8131 736.842,-30.0854 730.861,-33.165 741.677,-31.3577 741.677,-31.3577"/>
<text text-anchor="middle" x="846.5" y="-244.3" font-family="Times,serif" font-size="14.00">versions</text>
</g>
<!-- Lease -->
<g id="node8" class="node"><title>Lease</title>
<ellipse fill="none" stroke="black" cx="650" cy="-302" rx="31.2735" ry="18"/>
<text text-anchor="middle" x="650" y="-298.3" font-family="Times,serif" font-size="14.00">Lease</text>
</g>
<!-- Lease&#45;&gt;Flow -->
<g id="edge13" class="edge"><title>Lease&#45;&gt;Flow</title>
<path fill="none" stroke="#e82f18" d="M619.772,-286.097C579.158,-266.073 507.334,-230.662 466.219,-210.392"/>
<ellipse fill="none" stroke="#e82f18" cx="623.404" cy="-287.887" rx="4.00002" ry="4.00002"/>
<polygon fill="#e82f18" stroke="#e82f18" points="466.168,-210.367 459.189,-201.908 461.684,-208.156 457.199,-205.945 457.199,-205.945 457.199,-205.945 461.684,-208.156 455.209,-209.981 466.168,-210.367 466.168,-210.367"/>
</g>
<!-- Lessee -->
<g id="node9" class="node"><title>Lessee</title>
<ellipse fill="none" stroke="black" cx="480" cy="-302" rx="35.6194" ry="18"/>
<text text-anchor="middle" x="480" y="-298.3" font-family="Times,serif" font-size="14.00">Lessee</text>
</g>
<!-- Parcel -->
<g id="node10" class="node"><title>Parcel</title>
<ellipse fill="none" stroke="black" cx="567" cy="-302" rx="33.2209" ry="18"/>
<text text-anchor="middle" x="567" y="-298.3" font-family="Times,serif" font-size="14.00">Parcel</text>
</g>
<!-- RequestStateMachine -->
<g id="node11" class="node"><title>RequestStateMachine</title>
<polygon fill="none" stroke="black" points="751.25,-563 612.75,-563 612.75,-527 751.25,-527 751.25,-563"/>
<text text-anchor="middle" x="682" y="-541.3" font-family="Times,serif" font-size="14.00">RequestStateMachine</text>
</g>
<!-- Service&#45;&gt;Flow -->
<g id="edge14" class="edge"><title>Service&#45;&gt;Flow</title>
<path fill="none" stroke="#110770" d="M456.828,-353.763C448.234,-344.36 439.491,-332.582 435,-320 423.573,-287.989 426.129,-248.357 429.834,-222.413"/>
<ellipse fill="none" stroke="#110770" cx="459.64" cy="-356.696" rx="4.00002" ry="4.00002"/>
<polygon fill="#110770" stroke="#110770" points="429.889,-222.07 435.9,-212.899 430.672,-217.132 431.456,-212.194 431.456,-212.194 431.456,-212.194 430.672,-217.132 427.011,-211.489 429.889,-222.07 429.889,-222.07"/>
</g>
<!-- Service&#45;&gt;Lease -->
<g id="edge16" class="edge"><title>Service&#45;&gt;Lease</title>
<path fill="none" stroke="#71afbc" d="M514.923,-360.209C544.544,-347.664 586.774,-329.778 616.099,-317.358"/>
<ellipse fill="none" stroke="#71afbc" cx="510.997" cy="-361.872" rx="4.00002" ry="4.00002"/>
<polygon fill="#71afbc" stroke="#71afbc" points="616.305,-317.271 627.268,-317.515 620.909,-315.321 625.513,-313.371 625.513,-313.371 625.513,-313.371 620.909,-315.321 623.758,-309.227 616.305,-317.271 616.305,-317.271"/>
</g>
<!-- Service&#45;&gt;Lessee -->
<g id="edge15" class="edge"><title>Service&#45;&gt;Lessee</title>
<path fill="none" stroke="#3fc12a" d="M480,-349.792C480,-343.58 480,-336.896 480,-330.579"/>
<ellipse fill="none" stroke="#3fc12a" cx="480" cy="-353.937" rx="4" ry="4"/>
<polygon fill="#3fc12a" stroke="#3fc12a" points="480,-330.441 484.5,-320.441 480,-325.441 480,-320.441 480,-320.441 480,-320.441 480,-325.441 475.5,-320.441 480,-330.441 480,-330.441"/>
</g>
<!-- Service&#45;&gt;Parcel -->
<g id="edge17" class="edge"><title>Service&#45;&gt;Parcel</title>
<path fill="none" stroke="#5c258e" d="M504.361,-354.839C516.05,-345.166 530.042,-333.586 541.833,-323.827"/>
<ellipse fill="none" stroke="#5c258e" cx="501.108" cy="-357.531" rx="4.00002" ry="4.00002"/>
<polygon fill="#5c258e" stroke="#5c258e" points="541.886,-323.784 552.459,-320.875 545.738,-320.596 549.59,-317.408 549.59,-317.408 549.59,-317.408 545.738,-320.596 546.721,-313.941 541.886,-323.784 541.886,-323.784"/>
</g>
<!-- ServiceRequest -->
<g id="node14" class="node"><title>ServiceRequest</title>
<ellipse fill="none" stroke="black" cx="665" cy="-248" rx="67.3907" ry="18"/>
<text text-anchor="middle" x="665" y="-244.3" font-family="Times,serif" font-size="14.00">ServiceRequest</text>
</g>
<!-- Service&#45;&gt;ServiceRequest -->
<g id="edge18" class="edge"><title>Service&#45;&gt;ServiceRequest</title>
<path fill="none" stroke="#7f6a5e" d="M524.153,-369.746C579.593,-362.137 669.904,-346.037 690,-320 700.315,-306.635 693.853,-288.678 684.92,-274.168"/>
<ellipse fill="none" stroke="#7f6a5e" cx="519.87" cy="-370.32" rx="4.00001" ry="4.00001"/>
<polygon fill="#7f6a5e" stroke="#7f6a5e" points="684.763,-273.936 682.895,-263.131 681.965,-269.793 679.166,-265.65 679.166,-265.65 679.166,-265.65 681.965,-269.793 675.437,-268.169 684.763,-273.936 684.763,-273.936"/>
</g>
<!-- Service&#45;&gt;User -->
<g id="edge19" class="edge"><title>Service&#45;&gt;User</title>
<path fill="none" stroke="#b8619b" d="M451.498,-354.272C440.84,-345.003 429.705,-333.187 423,-320 392.016,-259.06 390.004,-176.356 391.373,-134.177"/>
<polygon fill="#b8619b" stroke="#b8619b" points="451.757,-354.485 456.613,-364.318 455.616,-357.665 459.475,-360.845 459.475,-360.845 459.475,-360.845 455.616,-357.665 462.336,-357.372 451.757,-354.485 451.757,-354.485"/>
<polygon fill="#b8619b" stroke="#b8619b" points="391.375,-134.116 396.286,-124.311 391.583,-129.12 391.79,-124.124 391.79,-124.124 391.79,-124.124 391.583,-129.12 387.294,-123.938 391.375,-134.116 391.375,-134.116"/>
</g>
<!-- Service&#45;&gt;PaperTrail::Version -->
<g id="edge20" class="edge"><title>Service&#45;&gt;PaperTrail::Version</title>
<path fill="none" stroke="#eafc5f" d="M525.038,-372.175C601.382,-366.14 748,-348.612 748,-303 748,-303 748,-303 748,-105 748,-77.5225 725.792,-55.4606 704.35,-40.5638"/>
<ellipse fill="none" stroke="#eafc5f" cx="520.971" cy="-372.486" rx="4" ry="4"/>
<polygon fill="#eafc5f" stroke="#eafc5f" points="704.263,-40.5064 698.378,-31.2537 700.085,-37.7604 695.906,-35.0143 695.906,-35.0143 695.906,-35.0143 700.085,-37.7604 693.435,-38.7749 704.263,-40.5064 704.263,-40.5064"/>
<text text-anchor="middle" x="771.5" y="-190.3" font-family="Times,serif" font-size="14.00">versions</text>
</g>
<!-- ServiceCreator -->
<g id="node13" class="node"><title>ServiceCreator</title>
<polygon fill="none" stroke="black" points="870,-563 770,-563 770,-527 870,-527 870,-563"/>
<text text-anchor="middle" x="820" y="-541.3" font-family="Times,serif" font-size="14.00">ServiceCreator</text>
</g>
<!-- ServiceRequest&#45;&gt;PaperTrail::Version -->
<g id="edge21" class="edge"><title>ServiceRequest&#45;&gt;PaperTrail::Version</title>
<path fill="none" stroke="#cee6ef" d="M665,-221.755C665,-178.501 665,-90.5893 665,-46.0958"/>
<ellipse fill="none" stroke="#cee6ef" cx="665" cy="-225.863" rx="4" ry="4"/>
<polygon fill="#cee6ef" stroke="#cee6ef" points="665,-46.0249 669.5,-36.0249 665,-41.0249 665,-36.0249 665,-36.0249 665,-36.0249 665,-41.0249 660.5,-36.0249 665,-46.0249 665,-46.0249"/>
<text text-anchor="middle" x="688.5" y="-146.3" font-family="Times,serif" font-size="14.00">versions</text>
</g>
<!-- User&#45;&gt;PaperTrail::Version -->
<g id="edge22" class="edge"><title>User&#45;&gt;PaperTrail::Version</title>
<path fill="none" stroke="#01af14" d="M424.771,-94.9548C470.253,-80.5744 554.564,-53.9173 610.226,-36.3183"/>
<ellipse fill="none" stroke="#01af14" cx="420.952" cy="-96.1622" rx="4.00001" ry="4.00001"/>
<polygon fill="#01af14" stroke="#01af14" points="610.393,-36.2656 621.284,-37.5415 615.16,-34.7583 619.927,-33.2509 619.927,-33.2509 619.927,-33.2509 615.16,-34.7583 618.571,-28.9603 610.393,-36.2656 610.393,-36.2656"/>
<text text-anchor="middle" x="576.5" y="-58.3" font-family="Times,serif" font-size="14.00">versions</text>
</g>
</g>
</svg>
