<?xml version="1.0" encoding="UTF-8" standalone="no"?>
<!DOCTYPE svg PUBLIC "-//W3C//DTD SVG 1.1//EN"
 "http://www.w3.org/Graphics/SVG/1.1/DTD/svg11.dtd">
<!-- Generated by graphviz version 2.36.0 (20140111.2315)
 -->
<!-- Title: models_diagram Pages: 1 -->
<svg width="558pt" height="1040pt"
 viewBox="0.00 0.00 558.00 1040.00" xmlns="http://www.w3.org/2000/svg" xmlns:xlink="http://www.w3.org/1999/xlink">
<g id="graph0" class="graph" transform="scale(1 1) rotate(0) translate(4 1036)">
<title>models_diagram</title>
<polygon fill="white" stroke="none" points="-4,4 -4,-1036 554,-1036 554,4 -4,4"/>
<!-- _diagram_info -->
<g id="node1" class="node"><title>_diagram_info</title>
<text text-anchor="start" x="8" y="-897.6" font-family="Times,serif" font-size="13.00">Models diagram</text>
<text text-anchor="start" x="8" y="-883.6" font-family="Times,serif" font-size="13.00">Date: Dec 10 2014 &#45; 19:05</text>
<text text-anchor="start" x="8" y="-869.6" font-family="Times,serif" font-size="13.00">Migration version: 20141210210525</text>
<text text-anchor="start" x="8" y="-855.6" font-family="Times,serif" font-size="13.00">Generated by RailRoady 1.2.0</text>
<text text-anchor="start" x="8" y="-841.6" font-family="Times,serif" font-size="13.00">http://railroady.prestonlee.com</text>
</g>
<!-- Contact -->
<g id="node2" class="node"><title>Contact</title>
<path fill="none" stroke="black" d="M196.5,-0.5C196.5,-0.5 307.5,-0.5 307.5,-0.5 313.5,-0.5 319.5,-6.5 319.5,-12.5 319.5,-12.5 319.5,-229.5 319.5,-229.5 319.5,-235.5 313.5,-241.5 307.5,-241.5 307.5,-241.5 196.5,-241.5 196.5,-241.5 190.5,-241.5 184.5,-235.5 184.5,-229.5 184.5,-229.5 184.5,-12.5 184.5,-12.5 184.5,-6.5 190.5,-0.5 196.5,-0.5"/>
<text text-anchor="middle" x="252" y="-226.3" font-family="Times,serif" font-size="14.00">Contact</text>
<polyline fill="none" stroke="black" points="184.5,-218.5 319.5,-218.5 "/>
<text text-anchor="start" x="192.5" y="-203.3" font-family="Times,serif" font-size="14.00">id :integer</text>
<text text-anchor="start" x="192.5" y="-188.3" font-family="Times,serif" font-size="14.00">first_name :string</text>
<text text-anchor="start" x="192.5" y="-173.3" font-family="Times,serif" font-size="14.00">last_name :string</text>
<text text-anchor="start" x="192.5" y="-158.3" font-family="Times,serif" font-size="14.00">street_address :string</text>
<text text-anchor="start" x="192.5" y="-143.3" font-family="Times,serif" font-size="14.00">county :string</text>
<text text-anchor="start" x="192.5" y="-128.3" font-family="Times,serif" font-size="14.00">city :string</text>
<text text-anchor="start" x="192.5" y="-113.3" font-family="Times,serif" font-size="14.00">state :string</text>
<text text-anchor="start" x="192.5" y="-98.3" font-family="Times,serif" font-size="14.00">zip :string</text>
<text text-anchor="start" x="192.5" y="-83.3" font-family="Times,serif" font-size="14.00">phone :string</text>
<text text-anchor="start" x="192.5" y="-68.3" font-family="Times,serif" font-size="14.00">phone_name :string</text>
<text text-anchor="start" x="192.5" y="-53.3" font-family="Times,serif" font-size="14.00">email :string</text>
<text text-anchor="start" x="192.5" y="-38.3" font-family="Times,serif" font-size="14.00">type :string</text>
<text text-anchor="start" x="192.5" y="-23.3" font-family="Times,serif" font-size="14.00">created_at :datetime</text>
<text text-anchor="start" x="192.5" y="-8.3" font-family="Times,serif" font-size="14.00">updated_at :datetime</text>
</g>
<!-- Flow -->
<g id="node3" class="node"><title>Flow</title>
<path fill="none" stroke="black" d="M359,-45.5C359,-45.5 469,-45.5 469,-45.5 475,-45.5 481,-51.5 481,-57.5 481,-57.5 481,-184.5 481,-184.5 481,-190.5 475,-196.5 469,-196.5 469,-196.5 359,-196.5 359,-196.5 353,-196.5 347,-190.5 347,-184.5 347,-184.5 347,-57.5 347,-57.5 347,-51.5 353,-45.5 359,-45.5"/>
<text text-anchor="middle" x="414" y="-181.3" font-family="Times,serif" font-size="14.00">Flow</text>
<polyline fill="none" stroke="black" points="347,-173.5 481,-173.5 "/>
<text text-anchor="start" x="355" y="-158.3" font-family="Times,serif" font-size="14.00">id :integer</text>
<text text-anchor="start" x="355" y="-143.3" font-family="Times,serif" font-size="14.00">flow_type :string</text>
<text text-anchor="start" x="355" y="-128.3" font-family="Times,serif" font-size="14.00">assignee :string</text>
<text text-anchor="start" x="355" y="-113.3" font-family="Times,serif" font-size="14.00">received_at :date</text>
<text text-anchor="start" x="355" y="-98.3" font-family="Times,serif" font-size="14.00">completed_at :date</text>
<text text-anchor="start" x="355" y="-83.3" font-family="Times,serif" font-size="14.00">created_at :datetime</text>
<text text-anchor="start" x="355" y="-68.3" font-family="Times,serif" font-size="14.00">updated_at :datetime</text>
<text text-anchor="start" x="355" y="-53.3" font-family="Times,serif" font-size="14.00">service_id :integer</text>
</g>
<!-- Lease -->
<g id="node4" class="node"><title>Lease</title>
<path fill="none" stroke="black" d="M274,-278.5C274,-278.5 384,-278.5 384,-278.5 390,-278.5 396,-284.5 396,-290.5 396,-290.5 396,-417.5 396,-417.5 396,-423.5 390,-429.5 384,-429.5 384,-429.5 274,-429.5 274,-429.5 268,-429.5 262,-423.5 262,-417.5 262,-417.5 262,-290.5 262,-290.5 262,-284.5 268,-278.5 274,-278.5"/>
<text text-anchor="middle" x="329" y="-414.3" font-family="Times,serif" font-size="14.00">Lease</text>
<polyline fill="none" stroke="black" points="262,-406.5 396,-406.5 "/>
<text text-anchor="start" x="270" y="-391.3" font-family="Times,serif" font-size="14.00">id :integer</text>
<text text-anchor="start" x="270" y="-376.3" font-family="Times,serif" font-size="14.00">lease_number :string</text>
<text text-anchor="start" x="270" y="-361.3" font-family="Times,serif" font-size="14.00">lessee :integer</text>
<text text-anchor="start" x="270" y="-346.3" font-family="Times,serif" font-size="14.00">description :string</text>
<text text-anchor="start" x="270" y="-331.3" font-family="Times,serif" font-size="14.00">comments :text</text>
<text text-anchor="start" x="270" y="-316.3" font-family="Times,serif" font-size="14.00">user_id :integer</text>
<text text-anchor="start" x="270" y="-301.3" font-family="Times,serif" font-size="14.00">created_at :datetime</text>
<text text-anchor="start" x="270" y="-286.3" font-family="Times,serif" font-size="14.00">updated_at :datetime</text>
</g>
<!-- Lease&#45;&gt;Contact -->
<g id="edge1" class="edge"><title>Lease&#45;&gt;Contact</title>
<path fill="none" stroke="#99dcec" d="M301.512,-270.535C299.414,-264.243 297.27,-257.809 295.105,-251.315"/>
<ellipse fill="none" stroke="#99dcec" cx="302.842" cy="-274.525" rx="4.00001" ry="4.00001"/>
<polygon fill="#99dcec" stroke="#99dcec" points="295.085,-251.256 296.192,-240.346 293.504,-246.513 291.923,-241.769 291.923,-241.769 291.923,-241.769 293.504,-246.513 287.654,-243.192 295.085,-251.256 295.085,-251.256"/>
</g>
<!-- Lease&#45;&gt;Flow -->
<g id="edge2" class="edge"><title>Lease&#45;&gt;Flow</title>
<path fill="none" stroke="#70d7d7" d="M359.325,-270.588C367.002,-249.725 375.257,-227.289 382.969,-206.332"/>
<ellipse fill="none" stroke="#70d7d7" cx="357.861" cy="-274.566" rx="4.00001" ry="4.00001"/>
<polygon fill="#70d7d7" stroke="#70d7d7" points="383.016,-206.203 390.693,-198.372 384.743,-201.511 386.469,-196.818 386.469,-196.818 386.469,-196.818 384.743,-201.511 382.246,-195.264 383.016,-206.203 383.016,-206.203"/>
</g>
<!-- Service -->
<g id="node5" class="node"><title>Service</title>
<path fill="none" stroke="black" d="M264,-466.5C264,-466.5 394,-466.5 394,-466.5 400,-466.5 406,-472.5 406,-478.5 406,-478.5 406,-665.5 406,-665.5 406,-671.5 400,-677.5 394,-677.5 394,-677.5 264,-677.5 264,-677.5 258,-677.5 252,-671.5 252,-665.5 252,-665.5 252,-478.5 252,-478.5 252,-472.5 258,-466.5 264,-466.5"/>
<text text-anchor="middle" x="329" y="-662.3" font-family="Times,serif" font-size="14.00">Service</text>
<polyline fill="none" stroke="black" points="252,-654.5 406,-654.5 "/>
<text text-anchor="start" x="260" y="-639.3" font-family="Times,serif" font-size="14.00">id :integer</text>
<text text-anchor="start" x="260" y="-624.3" font-family="Times,serif" font-size="14.00">county :string</text>
<text text-anchor="start" x="260" y="-609.3" font-family="Times,serif" font-size="14.00">parcel_id :string</text>
<text text-anchor="start" x="260" y="-594.3" font-family="Times,serif" font-size="14.00">start_date :date</text>
<text text-anchor="start" x="260" y="-579.3" font-family="Times,serif" font-size="14.00">end_date :date</text>
<text text-anchor="start" x="260" y="-564.3" font-family="Times,serif" font-size="14.00">requested_delivery :date</text>
<text text-anchor="start" x="260" y="-549.3" font-family="Times,serif" font-size="14.00">lease_file :string</text>
<text text-anchor="start" x="260" y="-534.3" font-family="Times,serif" font-size="14.00">created_at :datetime</text>
<text text-anchor="start" x="260" y="-519.3" font-family="Times,serif" font-size="14.00">updated_at :datetime</text>
<text text-anchor="start" x="260" y="-504.3" font-family="Times,serif" font-size="14.00">lease_id :integer</text>
<text text-anchor="start" x="260" y="-489.3" font-family="Times,serif" font-size="14.00">lessee_id :integer</text>
<text text-anchor="start" x="260" y="-474.3" font-family="Times,serif" font-size="14.00">flow_id :integer</text>
</g>
<!-- Service&#45;&gt;Contact -->
<g id="edge4" class="edge"><title>Service&#45;&gt;Contact</title>
<path fill="none" stroke="#ed8c0d" d="M262.392,-458.684C258.651,-449.198 255.431,-439.57 253,-430 238.466,-372.795 236.279,-307.66 238.494,-252.069"/>
<ellipse fill="none" stroke="#ed8c0d" cx="263.981" cy="-462.556" rx="4.00001" ry="4.00001"/>
<polygon fill="#ed8c0d" stroke="#ed8c0d" points="238.507,-251.794 243.453,-242.007 238.732,-246.799 238.957,-241.804 238.957,-241.804 238.957,-241.804 238.732,-246.799 234.462,-241.601 238.507,-251.794 238.507,-251.794"/>
</g>
<!-- Service&#45;&gt;Flow -->
<g id="edge3" class="edge"><title>Service&#45;&gt;Flow</title>
<path fill="none" stroke="#537aa1" d="M395.332,-458.612C399.136,-449.142 402.444,-439.538 405,-430 424.705,-356.456 425.281,-269.487 421.908,-206.751"/>
<ellipse fill="none" stroke="#537aa1" cx="393.719" cy="-462.481" rx="4.00002" ry="4.00002"/>
<polygon fill="#537aa1" stroke="#537aa1" points="421.893,-206.489 425.803,-196.244 421.602,-201.497 421.311,-196.506 421.311,-196.506 421.311,-196.506 421.602,-201.497 416.818,-196.768 421.893,-206.489 421.893,-206.489"/>
</g>
<!-- Service&#45;&gt;Lease -->
<g id="edge5" class="edge"><title>Service&#45;&gt;Lease</title>
<path fill="none" stroke="#47bc04" d="M329,-458.351C329,-452.155 329,-445.98 329,-439.907"/>
<ellipse fill="none" stroke="#47bc04" cx="329" cy="-462.48" rx="4" ry="4"/>
<polygon fill="#47bc04" stroke="#47bc04" points="329,-439.798 333.5,-429.798 329,-434.798 329,-429.798 329,-429.798 329,-429.798 329,-434.798 324.5,-429.798 329,-439.798 329,-439.798"/>
</g>
<!-- ServiceCreator -->
<g id="node6" class="node"><title>ServiceCreator</title>
<polygon fill="none" stroke="black" points="450,-850 450,-896 550,-896 550,-850 450,-850"/>
<text text-anchor="middle" x="500" y="-880.8" font-family="Times,serif" font-size="14.00">ServiceCreator</text>
<polyline fill="none" stroke="black" points="450,-873 550,-873 "/>
<text text-anchor="middle" x="500" y="-857.8" font-family="Times,serif" font-size="14.00"> </text>
</g>
<!-- User -->
<g id="node7" class="node"><title>User</title>
<path fill="none" stroke="black" d="M238.5,-715C238.5,-715 419.5,-715 419.5,-715 425.5,-715 431.5,-721 431.5,-727 431.5,-727 431.5,-1019 431.5,-1019 431.5,-1025 425.5,-1031 419.5,-1031 419.5,-1031 238.5,-1031 238.5,-1031 232.5,-1031 226.5,-1025 226.5,-1019 226.5,-1019 226.5,-727 226.5,-727 226.5,-721 232.5,-715 238.5,-715"/>
<text text-anchor="middle" x="329" y="-1015.8" font-family="Times,serif" font-size="14.00">User</text>
<polyline fill="none" stroke="black" points="226.5,-1008 431.5,-1008 "/>
<text text-anchor="start" x="234.5" y="-992.8" font-family="Times,serif" font-size="14.00">id :integer</text>
<text text-anchor="start" x="234.5" y="-977.8" font-family="Times,serif" font-size="14.00">email :string</text>
<text text-anchor="start" x="234.5" y="-962.8" font-family="Times,serif" font-size="14.00">encrypted_password :string</text>
<text text-anchor="start" x="234.5" y="-947.8" font-family="Times,serif" font-size="14.00">reset_password_token :string</text>
<text text-anchor="start" x="234.5" y="-932.8" font-family="Times,serif" font-size="14.00">reset_password_sent_at :datetime</text>
<text text-anchor="start" x="234.5" y="-917.8" font-family="Times,serif" font-size="14.00">remember_created_at :datetime</text>
<text text-anchor="start" x="234.5" y="-902.8" font-family="Times,serif" font-size="14.00">sign_in_count :integer</text>
<text text-anchor="start" x="234.5" y="-887.8" font-family="Times,serif" font-size="14.00">current_sign_in_at :datetime</text>
<text text-anchor="start" x="234.5" y="-872.8" font-family="Times,serif" font-size="14.00">last_sign_in_at :datetime</text>
<text text-anchor="start" x="234.5" y="-857.8" font-family="Times,serif" font-size="14.00">current_sign_in_ip :string</text>
<text text-anchor="start" x="234.5" y="-842.8" font-family="Times,serif" font-size="14.00">last_sign_in_ip :string</text>
<text text-anchor="start" x="234.5" y="-827.8" font-family="Times,serif" font-size="14.00">created_at :datetime</text>
<text text-anchor="start" x="234.5" y="-812.8" font-family="Times,serif" font-size="14.00">updated_at :datetime</text>
<text text-anchor="start" x="234.5" y="-797.8" font-family="Times,serif" font-size="14.00">role :integer</text>
<text text-anchor="start" x="234.5" y="-782.8" font-family="Times,serif" font-size="14.00">confirmation_token :string</text>
<text text-anchor="start" x="234.5" y="-767.8" font-family="Times,serif" font-size="14.00">confirmed_at :datetime</text>
<text text-anchor="start" x="234.5" y="-752.8" font-family="Times,serif" font-size="14.00">confirmation_sent_at :datetime</text>
<text text-anchor="start" x="234.5" y="-737.8" font-family="Times,serif" font-size="14.00">unconfirmed_email :string</text>
<text text-anchor="start" x="234.5" y="-722.8" font-family="Times,serif" font-size="14.00">name :string</text>
</g>
<!-- User&#45;&gt;Service -->
<g id="edge6" class="edge"><title>User&#45;&gt;Service</title>
<path fill="none" stroke="#5cc119" d="M329,-706.417C329,-700.174 329,-693.97 329,-687.848"/>
<ellipse fill="none" stroke="#5cc119" cx="329" cy="-710.619" rx="4" ry="4"/>
<polygon fill="#5cc119" stroke="#5cc119" points="329,-687.63 333.5,-677.63 329,-682.63 329,-677.63 329,-677.63 329,-677.63 329,-682.63 324.5,-677.63 329,-687.63 329,-687.63"/>
</g>
</g>
</svg>
