<?xml version="1.0" encoding="UTF-8" standalone="no"?>
<!DOCTYPE svg PUBLIC "-//W3C//DTD SVG 1.1//EN"
 "http://www.w3.org/Graphics/SVG/1.1/DTD/svg11.dtd">
<!-- Generated by graphviz version 2.36.0 (20140111.2315)
 -->
<!-- Title: models_diagram Pages: 1 -->
<svg width="1109pt" height="2144pt"
 viewBox="0.00 0.00 1109.00 2144.00" xmlns="http://www.w3.org/2000/svg" xmlns:xlink="http://www.w3.org/1999/xlink">
<g id="graph0" class="graph" transform="scale(1 1) rotate(0) translate(4 2140)">
<title>models_diagram</title>
<polygon fill="white" stroke="none" points="-4,4 -4,-2140 1105,-2140 1105,4 -4,4"/>
<!-- _diagram_info -->
<g id="node1" class="node"><title>_diagram_info</title>
<text text-anchor="start" x="8" y="-2054.6" font-family="Times,serif" font-size="13.00">Models diagram</text>
<text text-anchor="start" x="8" y="-2040.6" font-family="Times,serif" font-size="13.00">Date: Jan 14 2015 &#45; 11:38</text>
<text text-anchor="start" x="8" y="-2026.6" font-family="Times,serif" font-size="13.00">Migration version: 20150111233500</text>
<text text-anchor="start" x="8" y="-2012.6" font-family="Times,serif" font-size="13.00">Generated by RailRoady 1.2.0</text>
<text text-anchor="start" x="8" y="-1998.6" font-family="Times,serif" font-size="13.00">http://railroady.prestonlee.com</text>
</g>
<!-- Company -->
<g id="node2" class="node"><title>Company</title>
<path fill="none" stroke="black" d="M238.5,-1924.5C238.5,-1924.5 355.5,-1924.5 355.5,-1924.5 361.5,-1924.5 367.5,-1930.5 367.5,-1936.5 367.5,-1936.5 367.5,-2123.5 367.5,-2123.5 367.5,-2129.5 361.5,-2135.5 355.5,-2135.5 355.5,-2135.5 238.5,-2135.5 238.5,-2135.5 232.5,-2135.5 226.5,-2129.5 226.5,-2123.5 226.5,-2123.5 226.5,-1936.5 226.5,-1936.5 226.5,-1930.5 232.5,-1924.5 238.5,-1924.5"/>
<text text-anchor="middle" x="297" y="-2120.3" font-family="Times,serif" font-size="14.00">Company</text>
<polyline fill="none" stroke="black" points="226.5,-2112.5 367.5,-2112.5 "/>
<text text-anchor="start" x="234.5" y="-2097.3" font-family="Times,serif" font-size="14.00">id :integer</text>
<text text-anchor="start" x="234.5" y="-2082.3" font-family="Times,serif" font-size="14.00">name :string</text>
<text text-anchor="start" x="234.5" y="-2067.3" font-family="Times,serif" font-size="14.00">billing_address :string</text>
<text text-anchor="start" x="234.5" y="-2052.3" font-family="Times,serif" font-size="14.00">billing_contact :string</text>
<text text-anchor="start" x="234.5" y="-2037.3" font-family="Times,serif" font-size="14.00">city :string</text>
<text text-anchor="start" x="234.5" y="-2022.3" font-family="Times,serif" font-size="14.00">state :string</text>
<text text-anchor="start" x="234.5" y="-2007.3" font-family="Times,serif" font-size="14.00">zip :string</text>
<text text-anchor="start" x="234.5" y="-1992.3" font-family="Times,serif" font-size="14.00">phone :string</text>
<text text-anchor="start" x="234.5" y="-1977.3" font-family="Times,serif" font-size="14.00">email :string</text>
<text text-anchor="start" x="234.5" y="-1962.3" font-family="Times,serif" font-size="14.00">created_at :datetime</text>
<text text-anchor="start" x="234.5" y="-1947.3" font-family="Times,serif" font-size="14.00">updated_at :datetime</text>
<text text-anchor="start" x="234.5" y="-1932.3" font-family="Times,serif" font-size="14.00">type :string</text>
</g>
<!-- Employee -->
<g id="node4" class="node"><title>Employee</title>
<path fill="none" stroke="black" d="M114.5,-1464.5C114.5,-1464.5 295.5,-1464.5 295.5,-1464.5 301.5,-1464.5 307.5,-1470.5 307.5,-1476.5 307.5,-1476.5 307.5,-1873.5 307.5,-1873.5 307.5,-1879.5 301.5,-1885.5 295.5,-1885.5 295.5,-1885.5 114.5,-1885.5 114.5,-1885.5 108.5,-1885.5 102.5,-1879.5 102.5,-1873.5 102.5,-1873.5 102.5,-1476.5 102.5,-1476.5 102.5,-1470.5 108.5,-1464.5 114.5,-1464.5"/>
<text text-anchor="middle" x="205" y="-1870.3" font-family="Times,serif" font-size="14.00">Employee</text>
<polyline fill="none" stroke="black" points="102.5,-1862.5 307.5,-1862.5 "/>
<text text-anchor="start" x="110.5" y="-1847.3" font-family="Times,serif" font-size="14.00">id :integer</text>
<text text-anchor="start" x="110.5" y="-1832.3" font-family="Times,serif" font-size="14.00">email :string</text>
<text text-anchor="start" x="110.5" y="-1817.3" font-family="Times,serif" font-size="14.00">encrypted_password :string</text>
<text text-anchor="start" x="110.5" y="-1802.3" font-family="Times,serif" font-size="14.00">reset_password_token :string</text>
<text text-anchor="start" x="110.5" y="-1787.3" font-family="Times,serif" font-size="14.00">reset_password_sent_at :datetime</text>
<text text-anchor="start" x="110.5" y="-1772.3" font-family="Times,serif" font-size="14.00">remember_created_at :datetime</text>
<text text-anchor="start" x="110.5" y="-1757.3" font-family="Times,serif" font-size="14.00">sign_in_count :integer</text>
<text text-anchor="start" x="110.5" y="-1742.3" font-family="Times,serif" font-size="14.00">current_sign_in_at :datetime</text>
<text text-anchor="start" x="110.5" y="-1727.3" font-family="Times,serif" font-size="14.00">last_sign_in_at :datetime</text>
<text text-anchor="start" x="110.5" y="-1712.3" font-family="Times,serif" font-size="14.00">current_sign_in_ip :string</text>
<text text-anchor="start" x="110.5" y="-1697.3" font-family="Times,serif" font-size="14.00">last_sign_in_ip :string</text>
<text text-anchor="start" x="110.5" y="-1682.3" font-family="Times,serif" font-size="14.00">created_at :datetime</text>
<text text-anchor="start" x="110.5" y="-1667.3" font-family="Times,serif" font-size="14.00">updated_at :datetime</text>
<text text-anchor="start" x="110.5" y="-1652.3" font-family="Times,serif" font-size="14.00">role :integer</text>
<text text-anchor="start" x="110.5" y="-1637.3" font-family="Times,serif" font-size="14.00">confirmation_token :string</text>
<text text-anchor="start" x="110.5" y="-1622.3" font-family="Times,serif" font-size="14.00">confirmed_at :datetime</text>
<text text-anchor="start" x="110.5" y="-1607.3" font-family="Times,serif" font-size="14.00">confirmation_sent_at :datetime</text>
<text text-anchor="start" x="110.5" y="-1592.3" font-family="Times,serif" font-size="14.00">unconfirmed_email :string</text>
<text text-anchor="start" x="110.5" y="-1577.3" font-family="Times,serif" font-size="14.00">name :string</text>
<text text-anchor="start" x="110.5" y="-1562.3" font-family="Times,serif" font-size="14.00">first_name :string</text>
<text text-anchor="start" x="110.5" y="-1547.3" font-family="Times,serif" font-size="14.00">last_name :string</text>
<text text-anchor="start" x="110.5" y="-1532.3" font-family="Times,serif" font-size="14.00">phone :string</text>
<text text-anchor="start" x="110.5" y="-1517.3" font-family="Times,serif" font-size="14.00">type :string</text>
<text text-anchor="start" x="110.5" y="-1502.3" font-family="Times,serif" font-size="14.00">service_id :integer</text>
<text text-anchor="start" x="110.5" y="-1487.3" font-family="Times,serif" font-size="14.00">company_id :integer</text>
<text text-anchor="start" x="110.5" y="-1472.3" font-family="Times,serif" font-size="14.00">lawfirm_id :integer</text>
</g>
<!-- Company&#45;&gt;Employee -->
<g id="edge2" class="edge"><title>Company&#45;&gt;Employee</title>
<path fill="none" stroke="#b6ca52" d="M267.6,-1916.19C265.87,-1909.56 264.104,-1902.78 262.314,-1895.91"/>
<ellipse fill="none" stroke="#b6ca52" cx="268.637" cy="-1920.17" rx="4.00001" ry="4.00001"/>
<polygon fill="#b6ca52" stroke="#b6ca52" points="262.198,-1895.46 264.03,-1884.65 260.937,-1890.63 259.676,-1885.79 259.676,-1885.79 259.676,-1885.79 260.937,-1890.63 255.321,-1886.92 262.198,-1895.46 262.198,-1895.46"/>
</g>
<!-- Flow -->
<g id="node5" class="node"><title>Flow</title>
<path fill="none" stroke="black" d="M449,-562.5C449,-562.5 559,-562.5 559,-562.5 565,-562.5 571,-568.5 571,-574.5 571,-574.5 571,-701.5 571,-701.5 571,-707.5 565,-713.5 559,-713.5 559,-713.5 449,-713.5 449,-713.5 443,-713.5 437,-707.5 437,-701.5 437,-701.5 437,-574.5 437,-574.5 437,-568.5 443,-562.5 449,-562.5"/>
<text text-anchor="middle" x="504" y="-698.3" font-family="Times,serif" font-size="14.00">Flow</text>
<polyline fill="none" stroke="black" points="437,-690.5 571,-690.5 "/>
<text text-anchor="start" x="445" y="-675.3" font-family="Times,serif" font-size="14.00">id :integer</text>
<text text-anchor="start" x="445" y="-660.3" font-family="Times,serif" font-size="14.00">flow_type :string</text>
<text text-anchor="start" x="445" y="-645.3" font-family="Times,serif" font-size="14.00">assignee :string</text>
<text text-anchor="start" x="445" y="-630.3" font-family="Times,serif" font-size="14.00">received_at :date</text>
<text text-anchor="start" x="445" y="-615.3" font-family="Times,serif" font-size="14.00">completed_at :date</text>
<text text-anchor="start" x="445" y="-600.3" font-family="Times,serif" font-size="14.00">created_at :datetime</text>
<text text-anchor="start" x="445" y="-585.3" font-family="Times,serif" font-size="14.00">updated_at :datetime</text>
<text text-anchor="start" x="445" y="-570.3" font-family="Times,serif" font-size="14.00">service_id :integer</text>
</g>
<!-- Company&#45;&gt;Flow -->
<g id="edge4" class="edge"><title>Company&#45;&gt;Flow</title>
<path fill="none" stroke="#f51f60" d="M312.462,-1916.22C313.717,-1906.01 314.918,-1895.82 316,-1886 372.512,-1373.26 258.031,-1214.68 440,-732 441.158,-728.928 442.439,-725.86 443.821,-722.809"/>
<ellipse fill="none" stroke="#f51f60" cx="311.937" cy="-1920.44" rx="4.00001" ry="4.00001"/>
<polygon fill="#f51f60" stroke="#f51f60" points="443.87,-722.706 452.296,-715.687 446.06,-718.211 448.25,-713.716 448.25,-713.716 448.25,-713.716 446.06,-718.211 444.204,-711.745 443.87,-722.706 443.87,-722.706"/>
</g>
<!-- Service -->
<g id="node12" class="node"><title>Service</title>
<path fill="none" stroke="black" d="M477,-1169C477,-1169 607,-1169 607,-1169 613,-1169 619,-1175 619,-1181 619,-1181 619,-1413 619,-1413 619,-1419 613,-1425 607,-1425 607,-1425 477,-1425 477,-1425 471,-1425 465,-1419 465,-1413 465,-1413 465,-1181 465,-1181 465,-1175 471,-1169 477,-1169"/>
<text text-anchor="middle" x="542" y="-1409.8" font-family="Times,serif" font-size="14.00">Service</text>
<polyline fill="none" stroke="black" points="465,-1402 619,-1402 "/>
<text text-anchor="start" x="473" y="-1386.8" font-family="Times,serif" font-size="14.00">id :integer</text>
<text text-anchor="start" x="473" y="-1371.8" font-family="Times,serif" font-size="14.00">county :string</text>
<text text-anchor="start" x="473" y="-1356.8" font-family="Times,serif" font-size="14.00">start_date :date</text>
<text text-anchor="start" x="473" y="-1341.8" font-family="Times,serif" font-size="14.00">end_date :date</text>
<text text-anchor="start" x="473" y="-1326.8" font-family="Times,serif" font-size="14.00">requested_delivery :date</text>
<text text-anchor="start" x="473" y="-1311.8" font-family="Times,serif" font-size="14.00">lease_file :string</text>
<text text-anchor="start" x="473" y="-1296.8" font-family="Times,serif" font-size="14.00">created_at :datetime</text>
<text text-anchor="start" x="473" y="-1281.8" font-family="Times,serif" font-size="14.00">updated_at :datetime</text>
<text text-anchor="start" x="473" y="-1266.8" font-family="Times,serif" font-size="14.00">lease_id :integer</text>
<text text-anchor="start" x="473" y="-1251.8" font-family="Times,serif" font-size="14.00">lessee_id :integer</text>
<text text-anchor="start" x="473" y="-1236.8" font-family="Times,serif" font-size="14.00">flow_id :integer</text>
<text text-anchor="start" x="473" y="-1221.8" font-family="Times,serif" font-size="14.00">lease_number :string</text>
<text text-anchor="start" x="473" y="-1206.8" font-family="Times,serif" font-size="14.00">state :string</text>
<text text-anchor="start" x="473" y="-1191.8" font-family="Times,serif" font-size="14.00">description :string</text>
<text text-anchor="start" x="473" y="-1176.8" font-family="Times,serif" font-size="14.00">parcel_id :integer</text>
</g>
<!-- Company&#45;&gt;Service -->
<g id="edge3" class="edge"><title>Company&#45;&gt;Service</title>
<path fill="none" stroke="#bbe474" d="M345.898,-1916.79C347.304,-1913.16 348.675,-1909.56 350,-1906 409.407,-1746.41 466.748,-1559.08 503.054,-1434.96"/>
<ellipse fill="none" stroke="#bbe474" cx="344.425" cy="-1920.55" rx="4.00001" ry="4.00001"/>
<polygon fill="#bbe474" stroke="#bbe474" points="503.154,-1434.62 510.277,-1426.28 504.555,-1429.82 505.957,-1425.02 505.957,-1425.02 505.957,-1425.02 504.555,-1429.82 501.637,-1423.76 503.154,-1434.62 503.154,-1434.62"/>
</g>
<!-- User -->
<g id="node15" class="node"><title>User</title>
<path fill="none" stroke="black" d="M330.5,-88.5C330.5,-88.5 511.5,-88.5 511.5,-88.5 517.5,-88.5 523.5,-94.5 523.5,-100.5 523.5,-100.5 523.5,-497.5 523.5,-497.5 523.5,-503.5 517.5,-509.5 511.5,-509.5 511.5,-509.5 330.5,-509.5 330.5,-509.5 324.5,-509.5 318.5,-503.5 318.5,-497.5 318.5,-497.5 318.5,-100.5 318.5,-100.5 318.5,-94.5 324.5,-88.5 330.5,-88.5"/>
<text text-anchor="middle" x="421" y="-494.3" font-family="Times,serif" font-size="14.00">User</text>
<polyline fill="none" stroke="black" points="318.5,-486.5 523.5,-486.5 "/>
<text text-anchor="start" x="326.5" y="-471.3" font-family="Times,serif" font-size="14.00">id :integer</text>
<text text-anchor="start" x="326.5" y="-456.3" font-family="Times,serif" font-size="14.00">email :string</text>
<text text-anchor="start" x="326.5" y="-441.3" font-family="Times,serif" font-size="14.00">encrypted_password :string</text>
<text text-anchor="start" x="326.5" y="-426.3" font-family="Times,serif" font-size="14.00">reset_password_token :string</text>
<text text-anchor="start" x="326.5" y="-411.3" font-family="Times,serif" font-size="14.00">reset_password_sent_at :datetime</text>
<text text-anchor="start" x="326.5" y="-396.3" font-family="Times,serif" font-size="14.00">remember_created_at :datetime</text>
<text text-anchor="start" x="326.5" y="-381.3" font-family="Times,serif" font-size="14.00">sign_in_count :integer</text>
<text text-anchor="start" x="326.5" y="-366.3" font-family="Times,serif" font-size="14.00">current_sign_in_at :datetime</text>
<text text-anchor="start" x="326.5" y="-351.3" font-family="Times,serif" font-size="14.00">last_sign_in_at :datetime</text>
<text text-anchor="start" x="326.5" y="-336.3" font-family="Times,serif" font-size="14.00">current_sign_in_ip :string</text>
<text text-anchor="start" x="326.5" y="-321.3" font-family="Times,serif" font-size="14.00">last_sign_in_ip :string</text>
<text text-anchor="start" x="326.5" y="-306.3" font-family="Times,serif" font-size="14.00">created_at :datetime</text>
<text text-anchor="start" x="326.5" y="-291.3" font-family="Times,serif" font-size="14.00">updated_at :datetime</text>
<text text-anchor="start" x="326.5" y="-276.3" font-family="Times,serif" font-size="14.00">role :integer</text>
<text text-anchor="start" x="326.5" y="-261.3" font-family="Times,serif" font-size="14.00">confirmation_token :string</text>
<text text-anchor="start" x="326.5" y="-246.3" font-family="Times,serif" font-size="14.00">confirmed_at :datetime</text>
<text text-anchor="start" x="326.5" y="-231.3" font-family="Times,serif" font-size="14.00">confirmation_sent_at :datetime</text>
<text text-anchor="start" x="326.5" y="-216.3" font-family="Times,serif" font-size="14.00">unconfirmed_email :string</text>
<text text-anchor="start" x="326.5" y="-201.3" font-family="Times,serif" font-size="14.00">name :string</text>
<text text-anchor="start" x="326.5" y="-186.3" font-family="Times,serif" font-size="14.00">first_name :string</text>
<text text-anchor="start" x="326.5" y="-171.3" font-family="Times,serif" font-size="14.00">last_name :string</text>
<text text-anchor="start" x="326.5" y="-156.3" font-family="Times,serif" font-size="14.00">phone :string</text>
<text text-anchor="start" x="326.5" y="-141.3" font-family="Times,serif" font-size="14.00">type :string</text>
<text text-anchor="start" x="326.5" y="-126.3" font-family="Times,serif" font-size="14.00">service_id :integer</text>
<text text-anchor="start" x="326.5" y="-111.3" font-family="Times,serif" font-size="14.00">company_id :integer</text>
<text text-anchor="start" x="326.5" y="-96.3" font-family="Times,serif" font-size="14.00">lawfirm_id :integer</text>
</g>
<!-- Company&#45;&gt;User -->
<g id="edge1" class="edge"><title>Company&#45;&gt;User</title>
<path fill="none" stroke="#946e89" d="M219.976,-1926.14C218.991,-1925.41 217.999,-1924.7 217,-1924 169.707,-1891.05 129.326,-1930.75 93,-1886 33.9396,-1813.24 74,-1769.71 74,-1676 74,-1676 74,-1676 74,-637 74,-503.515 207.778,-405.871 309.206,-351.022"/>
<ellipse fill="none" stroke="#946e89" cx="223.222" cy="-1928.68" rx="4.00002" ry="4.00002"/>
<polygon fill="#946e89" stroke="#946e89" points="309.474,-350.88 320.415,-350.144 313.885,-348.527 318.297,-346.173 318.297,-346.173 318.297,-346.173 313.885,-348.527 316.179,-342.203 309.474,-350.88 309.474,-350.88"/>
</g>
<!-- Contact -->
<g id="node3" class="node"><title>Contact</title>
<path fill="none" stroke="black" d="M621,-1939.5C621,-1939.5 731,-1939.5 731,-1939.5 737,-1939.5 743,-1945.5 743,-1951.5 743,-1951.5 743,-2108.5 743,-2108.5 743,-2114.5 737,-2120.5 731,-2120.5 731,-2120.5 621,-2120.5 621,-2120.5 615,-2120.5 609,-2114.5 609,-2108.5 609,-2108.5 609,-1951.5 609,-1951.5 609,-1945.5 615,-1939.5 621,-1939.5"/>
<text text-anchor="middle" x="676" y="-2105.3" font-family="Times,serif" font-size="14.00">Contact</text>
<polyline fill="none" stroke="black" points="609,-2097.5 743,-2097.5 "/>
<text text-anchor="start" x="617" y="-2082.3" font-family="Times,serif" font-size="14.00">id :integer</text>
<text text-anchor="start" x="617" y="-2067.3" font-family="Times,serif" font-size="14.00">name :string</text>
<text text-anchor="start" x="617" y="-2052.3" font-family="Times,serif" font-size="14.00">address :string</text>
<text text-anchor="start" x="617" y="-2037.3" font-family="Times,serif" font-size="14.00">city :string</text>
<text text-anchor="start" x="617" y="-2022.3" font-family="Times,serif" font-size="14.00">state :string</text>
<text text-anchor="start" x="617" y="-2007.3" font-family="Times,serif" font-size="14.00">zip :string</text>
<text text-anchor="start" x="617" y="-1992.3" font-family="Times,serif" font-size="14.00">phone :string</text>
<text text-anchor="start" x="617" y="-1977.3" font-family="Times,serif" font-size="14.00">email :string</text>
<text text-anchor="start" x="617" y="-1962.3" font-family="Times,serif" font-size="14.00">created_at :datetime</text>
<text text-anchor="start" x="617" y="-1947.3" font-family="Times,serif" font-size="14.00">updated_at :datetime</text>
</g>
<!-- Employee&#45;&gt;Service -->
<g id="edge6" class="edge"><title>Employee&#45;&gt;Service</title>
<path fill="none" stroke="#80c14d" d="M312.737,-1515.26C331.563,-1490.63 351.663,-1466.07 372,-1444 397.786,-1416.02 428.683,-1388.11 457.021,-1364.3"/>
<ellipse fill="none" stroke="#80c14d" cx="310.141" cy="-1518.68" rx="4.00002" ry="4.00002"/>
<polygon fill="#80c14d" stroke="#80c14d" points="457.26,-1364.1 467.822,-1361.15 461.1,-1360.9 464.94,-1357.69 464.94,-1357.69 464.94,-1357.69 461.1,-1360.9 462.057,-1354.24 457.26,-1364.1 457.26,-1364.1"/>
</g>
<!-- PaperTrail::Version -->
<g id="node16" class="node"><title>PaperTrail::Version</title>
<ellipse fill="none" stroke="black" cx="897" cy="-18" rx="83.2892" ry="18"/>
<text text-anchor="middle" x="897" y="-14.3" font-family="Times,serif" font-size="14.00">PaperTrail::Version</text>
</g>
<!-- Employee&#45;&gt;PaperTrail::Version -->
<g id="edge5" class="edge"><title>Employee&#45;&gt;PaperTrail::Version</title>
<path fill="none" stroke="#4fd48d" d="M230.625,-1456.19C234.912,-1404.42 238,-1349.32 238,-1298 238,-1298 238,-1298 238,-298 238,-199.333 233.202,-149.945 310,-88 383.853,-28.4302 657.342,-18.9186 803.487,-18.2281"/>
<ellipse fill="none" stroke="#4fd48d" cx="230.263" cy="-1460.49" rx="4" ry="4"/>
<polygon fill="#4fd48d" stroke="#4fd48d" points="803.785,-18.2272 813.801,-22.6931 808.785,-18.2101 813.785,-18.1931 813.785,-18.1931 813.785,-18.1931 808.785,-18.2101 813.77,-13.6931 803.785,-18.2272 803.785,-18.2272"/>
<text text-anchor="middle" x="261.5" y="-797.3" font-family="Times,serif" font-size="14.00">versions</text>
</g>
<!-- Flow&#45;&gt;User -->
<g id="edge7" class="edge"><title>Flow&#45;&gt;User</title>
<path fill="none" stroke="#289db2" d="M483.584,-554.107C480.868,-543.078 477.987,-531.383 475.012,-519.303"/>
<ellipse fill="none" stroke="#289db2" cx="484.623" cy="-558.325" rx="4.00001" ry="4.00001"/>
<polygon fill="#289db2" stroke="#289db2" points="474.999,-519.248 476.977,-508.462 473.803,-514.393 472.607,-509.538 472.607,-509.538 472.607,-509.538 473.803,-514.393 468.238,-510.615 474.999,-519.248 474.999,-519.248"/>
</g>
<!-- Lawfirm -->
<g id="node6" class="node"><title>Lawfirm</title>
<path fill="none" stroke="black" d="M469,-1939.5C469,-1939.5 579,-1939.5 579,-1939.5 585,-1939.5 591,-1945.5 591,-1951.5 591,-1951.5 591,-2108.5 591,-2108.5 591,-2114.5 585,-2120.5 579,-2120.5 579,-2120.5 469,-2120.5 469,-2120.5 463,-2120.5 457,-2114.5 457,-2108.5 457,-2108.5 457,-1951.5 457,-1951.5 457,-1945.5 463,-1939.5 469,-1939.5"/>
<text text-anchor="middle" x="524" y="-2105.3" font-family="Times,serif" font-size="14.00">Lawfirm</text>
<polyline fill="none" stroke="black" points="457,-2097.5 591,-2097.5 "/>
<text text-anchor="start" x="465" y="-2082.3" font-family="Times,serif" font-size="14.00">id :integer</text>
<text text-anchor="start" x="465" y="-2067.3" font-family="Times,serif" font-size="14.00">name :string</text>
<text text-anchor="start" x="465" y="-2052.3" font-family="Times,serif" font-size="14.00">address :string</text>
<text text-anchor="start" x="465" y="-2037.3" font-family="Times,serif" font-size="14.00">city :string</text>
<text text-anchor="start" x="465" y="-2022.3" font-family="Times,serif" font-size="14.00">state :string</text>
<text text-anchor="start" x="465" y="-2007.3" font-family="Times,serif" font-size="14.00">zip :string</text>
<text text-anchor="start" x="465" y="-1992.3" font-family="Times,serif" font-size="14.00">phone :string</text>
<text text-anchor="start" x="465" y="-1977.3" font-family="Times,serif" font-size="14.00">email :string</text>
<text text-anchor="start" x="465" y="-1962.3" font-family="Times,serif" font-size="14.00">created_at :datetime</text>
<text text-anchor="start" x="465" y="-1947.3" font-family="Times,serif" font-size="14.00">updated_at :datetime</text>
</g>
<!-- Lawfirm&#45;&gt;Flow -->
<g id="edge10" class="edge"><title>Lawfirm&#45;&gt;Flow</title>
<path fill="none" stroke="#ae3263" d="M510.482,-1931.24C494.592,-1812.16 468.774,-1604.74 456,-1426 446.618,-1294.72 449,-1261.6 447,-1130 445.365,-1022.46 444.245,-995.52 447,-888 448.778,-818.598 436.611,-798.945 455,-732 455.808,-729.059 456.719,-726.106 457.716,-723.155"/>
<ellipse fill="none" stroke="#ae3263" cx="511.031" cy="-1935.35" rx="4.00001" ry="4.00001"/>
<polygon fill="#ae3263" stroke="#ae3263" points="457.723,-723.138 465.399,-715.306 459.449,-718.445 461.175,-713.753 461.175,-713.753 461.175,-713.753 459.449,-718.445 456.952,-712.199 457.723,-723.138 457.723,-723.138"/>
</g>
<!-- Lawyer -->
<g id="node7" class="node"><title>Lawyer</title>
<path fill="none" stroke="black" d="M564.5,-1464.5C564.5,-1464.5 745.5,-1464.5 745.5,-1464.5 751.5,-1464.5 757.5,-1470.5 757.5,-1476.5 757.5,-1476.5 757.5,-1873.5 757.5,-1873.5 757.5,-1879.5 751.5,-1885.5 745.5,-1885.5 745.5,-1885.5 564.5,-1885.5 564.5,-1885.5 558.5,-1885.5 552.5,-1879.5 552.5,-1873.5 552.5,-1873.5 552.5,-1476.5 552.5,-1476.5 552.5,-1470.5 558.5,-1464.5 564.5,-1464.5"/>
<text text-anchor="middle" x="655" y="-1870.3" font-family="Times,serif" font-size="14.00">Lawyer</text>
<polyline fill="none" stroke="black" points="552.5,-1862.5 757.5,-1862.5 "/>
<text text-anchor="start" x="560.5" y="-1847.3" font-family="Times,serif" font-size="14.00">id :integer</text>
<text text-anchor="start" x="560.5" y="-1832.3" font-family="Times,serif" font-size="14.00">email :string</text>
<text text-anchor="start" x="560.5" y="-1817.3" font-family="Times,serif" font-size="14.00">encrypted_password :string</text>
<text text-anchor="start" x="560.5" y="-1802.3" font-family="Times,serif" font-size="14.00">reset_password_token :string</text>
<text text-anchor="start" x="560.5" y="-1787.3" font-family="Times,serif" font-size="14.00">reset_password_sent_at :datetime</text>
<text text-anchor="start" x="560.5" y="-1772.3" font-family="Times,serif" font-size="14.00">remember_created_at :datetime</text>
<text text-anchor="start" x="560.5" y="-1757.3" font-family="Times,serif" font-size="14.00">sign_in_count :integer</text>
<text text-anchor="start" x="560.5" y="-1742.3" font-family="Times,serif" font-size="14.00">current_sign_in_at :datetime</text>
<text text-anchor="start" x="560.5" y="-1727.3" font-family="Times,serif" font-size="14.00">last_sign_in_at :datetime</text>
<text text-anchor="start" x="560.5" y="-1712.3" font-family="Times,serif" font-size="14.00">current_sign_in_ip :string</text>
<text text-anchor="start" x="560.5" y="-1697.3" font-family="Times,serif" font-size="14.00">last_sign_in_ip :string</text>
<text text-anchor="start" x="560.5" y="-1682.3" font-family="Times,serif" font-size="14.00">created_at :datetime</text>
<text text-anchor="start" x="560.5" y="-1667.3" font-family="Times,serif" font-size="14.00">updated_at :datetime</text>
<text text-anchor="start" x="560.5" y="-1652.3" font-family="Times,serif" font-size="14.00">role :integer</text>
<text text-anchor="start" x="560.5" y="-1637.3" font-family="Times,serif" font-size="14.00">confirmation_token :string</text>
<text text-anchor="start" x="560.5" y="-1622.3" font-family="Times,serif" font-size="14.00">confirmed_at :datetime</text>
<text text-anchor="start" x="560.5" y="-1607.3" font-family="Times,serif" font-size="14.00">confirmation_sent_at :datetime</text>
<text text-anchor="start" x="560.5" y="-1592.3" font-family="Times,serif" font-size="14.00">unconfirmed_email :string</text>
<text text-anchor="start" x="560.5" y="-1577.3" font-family="Times,serif" font-size="14.00">name :string</text>
<text text-anchor="start" x="560.5" y="-1562.3" font-family="Times,serif" font-size="14.00">first_name :string</text>
<text text-anchor="start" x="560.5" y="-1547.3" font-family="Times,serif" font-size="14.00">last_name :string</text>
<text text-anchor="start" x="560.5" y="-1532.3" font-family="Times,serif" font-size="14.00">phone :string</text>
<text text-anchor="start" x="560.5" y="-1517.3" font-family="Times,serif" font-size="14.00">type :string</text>
<text text-anchor="start" x="560.5" y="-1502.3" font-family="Times,serif" font-size="14.00">service_id :integer</text>
<text text-anchor="start" x="560.5" y="-1487.3" font-family="Times,serif" font-size="14.00">company_id :integer</text>
<text text-anchor="start" x="560.5" y="-1472.3" font-family="Times,serif" font-size="14.00">lawfirm_id :integer</text>
</g>
<!-- Lawfirm&#45;&gt;Lawyer -->
<g id="edge8" class="edge"><title>Lawfirm&#45;&gt;Lawyer</title>
<path fill="none" stroke="#1e8078" d="M560.044,-1931.87C564.389,-1920.17 568.951,-1907.87 573.628,-1895.27"/>
<ellipse fill="none" stroke="#1e8078" cx="558.618" cy="-1935.72" rx="4.00001" ry="4.00001"/>
<polygon fill="#1e8078" stroke="#1e8078" points="573.746,-1894.95 581.445,-1887.14 575.486,-1890.26 577.226,-1885.57 577.226,-1885.57 577.226,-1885.57 575.486,-1890.26 573.007,-1884.01 573.746,-1894.95 573.746,-1894.95"/>
</g>
<!-- Lawfirm&#45;&gt;Service -->
<g id="edge9" class="edge"><title>Lawfirm&#45;&gt;Service</title>
<path fill="none" stroke="#50c9d5" d="M526.406,-1931.3C529.545,-1803.83 535.055,-1580.05 538.614,-1435.49"/>
<ellipse fill="none" stroke="#50c9d5" cx="526.306" cy="-1935.37" rx="4" ry="4"/>
<polygon fill="#50c9d5" stroke="#50c9d5" points="538.621,-1435.22 543.366,-1425.34 538.744,-1430.22 538.867,-1425.23 538.867,-1425.23 538.867,-1425.23 538.744,-1430.22 534.369,-1425.12 538.621,-1435.22 538.621,-1435.22"/>
</g>
<!-- Lawyer&#45;&gt;Service -->
<g id="edge12" class="edge"><title>Lawyer&#45;&gt;Service</title>
<path fill="none" stroke="#357f76" d="M589.637,-1456.51C587.436,-1449.19 585.254,-1441.92 583.104,-1434.77"/>
<ellipse fill="none" stroke="#357f76" cx="590.823" cy="-1460.46" rx="4.00001" ry="4.00001"/>
<polygon fill="#357f76" stroke="#357f76" points="583.071,-1434.66 584.502,-1423.79 581.632,-1429.87 580.193,-1425.08 580.193,-1425.08 580.193,-1425.08 581.632,-1429.87 575.883,-1426.38 583.071,-1434.66 583.071,-1434.66"/>
</g>
<!-- Lawyer&#45;&gt;PaperTrail::Version -->
<g id="edge11" class="edge"><title>Lawyer&#45;&gt;PaperTrail::Version</title>
<path fill="none" stroke="#5a53fe" d="M765.099,-1627.41C883.2,-1569.19 1054,-1457.42 1054,-1298 1054,-1298 1054,-1298 1054,-298 1054,-200.809 1049.09,-167.375 993,-88 978.825,-67.9399 956.925,-51.5564 937.619,-39.7957"/>
<ellipse fill="none" stroke="#5a53fe" cx="761.347" cy="-1629.25" rx="4.00002" ry="4.00002"/>
<polygon fill="#5a53fe" stroke="#5a53fe" points="937.593,-39.781 931.245,-30.8395 933.281,-37.2509 928.968,-34.7209 928.968,-34.7209 928.968,-34.7209 933.281,-37.2509 926.691,-38.6023 937.593,-39.781 937.593,-39.781"/>
<text text-anchor="middle" x="1077.5" y="-797.3" font-family="Times,serif" font-size="14.00">versions</text>
</g>
<!-- Lease -->
<g id="node8" class="node"><title>Lease</title>
<path fill="none" stroke="black" d="M791,-926C791,-926 901,-926 901,-926 907,-926 913,-932 913,-938 913,-938 913,-1080 913,-1080 913,-1086 907,-1092 901,-1092 901,-1092 791,-1092 791,-1092 785,-1092 779,-1086 779,-1080 779,-1080 779,-938 779,-938 779,-932 785,-926 791,-926"/>
<text text-anchor="middle" x="846" y="-1076.8" font-family="Times,serif" font-size="14.00">Lease</text>
<polyline fill="none" stroke="black" points="779,-1069 913,-1069 "/>
<text text-anchor="start" x="787" y="-1053.8" font-family="Times,serif" font-size="14.00">id :integer</text>
<text text-anchor="start" x="787" y="-1038.8" font-family="Times,serif" font-size="14.00">lease_number :string</text>
<text text-anchor="start" x="787" y="-1023.8" font-family="Times,serif" font-size="14.00">lessee :integer</text>
<text text-anchor="start" x="787" y="-1008.8" font-family="Times,serif" font-size="14.00">description :string</text>
<text text-anchor="start" x="787" y="-993.8" font-family="Times,serif" font-size="14.00">comments :text</text>
<text text-anchor="start" x="787" y="-978.8" font-family="Times,serif" font-size="14.00">user_id :integer</text>
<text text-anchor="start" x="787" y="-963.8" font-family="Times,serif" font-size="14.00">created_at :datetime</text>
<text text-anchor="start" x="787" y="-948.8" font-family="Times,serif" font-size="14.00">updated_at :datetime</text>
<text text-anchor="start" x="787" y="-933.8" font-family="Times,serif" font-size="14.00">service_id :integer</text>
</g>
<!-- Lease&#45;&gt;Flow -->
<g id="edge13" class="edge"><title>Lease&#45;&gt;Flow</title>
<path fill="none" stroke="#fc22fe" d="M793.425,-919.244C785.966,-908.421 778.074,-897.753 770,-888 711.923,-817.844 635.034,-747.841 578.864,-700.009"/>
<ellipse fill="none" stroke="#fc22fe" cx="795.764" cy="-922.688" rx="4.00002" ry="4.00002"/>
<polygon fill="#fc22fe" stroke="#fc22fe" points="578.707,-699.876 573.99,-689.977 574.894,-696.643 571.08,-693.409 571.08,-693.409 571.08,-693.409 574.894,-696.643 568.17,-696.841 578.707,-699.876 578.707,-699.876"/>
</g>
<!-- Lessee -->
<g id="node9" class="node"><title>Lessee</title>
<path fill="none" stroke="black" d="M487,-888.5C487,-888.5 597,-888.5 597,-888.5 603,-888.5 609,-894.5 609,-900.5 609,-900.5 609,-1117.5 609,-1117.5 609,-1123.5 603,-1129.5 597,-1129.5 597,-1129.5 487,-1129.5 487,-1129.5 481,-1129.5 475,-1123.5 475,-1117.5 475,-1117.5 475,-900.5 475,-900.5 475,-894.5 481,-888.5 487,-888.5"/>
<text text-anchor="middle" x="542" y="-1114.3" font-family="Times,serif" font-size="14.00">Lessee</text>
<polyline fill="none" stroke="black" points="475,-1106.5 609,-1106.5 "/>
<text text-anchor="start" x="483" y="-1091.3" font-family="Times,serif" font-size="14.00">id :integer</text>
<text text-anchor="start" x="483" y="-1076.3" font-family="Times,serif" font-size="14.00">last_name :string</text>
<text text-anchor="start" x="483" y="-1061.3" font-family="Times,serif" font-size="14.00">first_name :string</text>
<text text-anchor="start" x="483" y="-1046.3" font-family="Times,serif" font-size="14.00">address :string</text>
<text text-anchor="start" x="483" y="-1031.3" font-family="Times,serif" font-size="14.00">city :string</text>
<text text-anchor="start" x="483" y="-1016.3" font-family="Times,serif" font-size="14.00">state :string</text>
<text text-anchor="start" x="483" y="-1001.3" font-family="Times,serif" font-size="14.00">zip :string</text>
<text text-anchor="start" x="483" y="-986.3" font-family="Times,serif" font-size="14.00">phone :string</text>
<text text-anchor="start" x="483" y="-971.3" font-family="Times,serif" font-size="14.00">email :string</text>
<text text-anchor="start" x="483" y="-956.3" font-family="Times,serif" font-size="14.00">company :string</text>
<text text-anchor="start" x="483" y="-941.3" font-family="Times,serif" font-size="14.00">bus_phone :string</text>
<text text-anchor="start" x="483" y="-926.3" font-family="Times,serif" font-size="14.00">created_at :datetime</text>
<text text-anchor="start" x="483" y="-911.3" font-family="Times,serif" font-size="14.00">updated_at :datetime</text>
<text text-anchor="start" x="483" y="-896.3" font-family="Times,serif" font-size="14.00">service_id :integer</text>
</g>
<!-- Parcel -->
<g id="node10" class="node"><title>Parcel</title>
<path fill="none" stroke="black" d="M639,-941C639,-941 749,-941 749,-941 755,-941 761,-947 761,-953 761,-953 761,-1065 761,-1065 761,-1071 755,-1077 749,-1077 749,-1077 639,-1077 639,-1077 633,-1077 627,-1071 627,-1065 627,-1065 627,-953 627,-953 627,-947 633,-941 639,-941"/>
<text text-anchor="middle" x="694" y="-1061.8" font-family="Times,serif" font-size="14.00">Parcel</text>
<polyline fill="none" stroke="black" points="627,-1054 761,-1054 "/>
<text text-anchor="start" x="635" y="-1038.8" font-family="Times,serif" font-size="14.00">id :integer</text>
<text text-anchor="start" x="635" y="-1023.8" font-family="Times,serif" font-size="14.00">tax_map :string</text>
<text text-anchor="start" x="635" y="-1008.8" font-family="Times,serif" font-size="14.00">tax_parcel :string</text>
<text text-anchor="start" x="635" y="-993.8" font-family="Times,serif" font-size="14.00">deed_id :integer</text>
<text text-anchor="start" x="635" y="-978.8" font-family="Times,serif" font-size="14.00">created_at :datetime</text>
<text text-anchor="start" x="635" y="-963.8" font-family="Times,serif" font-size="14.00">updated_at :datetime</text>
<text text-anchor="start" x="635" y="-948.8" font-family="Times,serif" font-size="14.00">service_id :integer</text>
</g>
<!-- RequestStateMachine -->
<g id="node11" class="node"><title>RequestStateMachine</title>
<polygon fill="none" stroke="black" points="761.5,-2007 761.5,-2053 900.5,-2053 900.5,-2007 761.5,-2007"/>
<text text-anchor="middle" x="831" y="-2037.8" font-family="Times,serif" font-size="14.00">RequestStateMachine</text>
<polyline fill="none" stroke="black" points="761.5,-2030 900.5,-2030 "/>
<text text-anchor="middle" x="831" y="-2014.8" font-family="Times,serif" font-size="14.00"> </text>
</g>
<!-- Service&#45;&gt;Flow -->
<g id="edge15" class="edge"><title>Service&#45;&gt;Flow</title>
<path fill="none" stroke="#af1f18" d="M474.557,-1160.89C471.157,-1150.61 468.233,-1140.24 466,-1130 435.405,-989.676 461.323,-822.099 482.762,-723.452"/>
<ellipse fill="none" stroke="#af1f18" cx="475.949" cy="-1164.96" rx="4.00001" ry="4.00001"/>
<polygon fill="#af1f18" stroke="#af1f18" points="482.795,-723.301 489.347,-714.507 483.874,-718.419 484.953,-713.536 484.953,-713.536 484.953,-713.536 483.874,-718.419 480.559,-712.566 482.795,-723.301 482.795,-723.301"/>
</g>
<!-- Service&#45;&gt;Lease -->
<g id="edge17" class="edge"><title>Service&#45;&gt;Lease</title>
<path fill="none" stroke="#ad3021" d="M626,-1245.9C671.892,-1215.95 727.801,-1175.02 770,-1130 778.45,-1120.98 786.503,-1110.9 793.992,-1100.51"/>
<ellipse fill="none" stroke="#ad3021" cx="622.372" cy="-1248.25" rx="4.00002" ry="4.00002"/>
<polygon fill="#ad3021" stroke="#ad3021" points="794.129,-1100.32 803.557,-1094.72 797.001,-1096.23 799.873,-1092.13 799.873,-1092.13 799.873,-1092.13 797.001,-1096.23 796.19,-1089.55 794.129,-1100.32 794.129,-1100.32"/>
</g>
<!-- Service&#45;&gt;Lessee -->
<g id="edge16" class="edge"><title>Service&#45;&gt;Lessee</title>
<path fill="none" stroke="#d2eff7" d="M542,-1160.66C542,-1153.75 542,-1146.81 542,-1139.92"/>
<ellipse fill="none" stroke="#d2eff7" cx="542" cy="-1164.89" rx="4" ry="4"/>
<polygon fill="#d2eff7" stroke="#d2eff7" points="542,-1139.86 546.5,-1129.86 542,-1134.86 542,-1129.86 542,-1129.86 542,-1129.86 542,-1134.86 537.5,-1129.86 542,-1139.86 542,-1139.86"/>
</g>
<!-- Service&#45;&gt;Parcel -->
<g id="edge18" class="edge"><title>Service&#45;&gt;Parcel</title>
<path fill="none" stroke="#047d72" d="M613.503,-1161.46C627.237,-1135.62 641.168,-1109.41 653.493,-1086.22"/>
<ellipse fill="none" stroke="#047d72" cx="611.432" cy="-1165.36" rx="4.00002" ry="4.00002"/>
<polygon fill="#047d72" stroke="#047d72" points="653.619,-1085.98 662.285,-1079.26 655.965,-1081.57 658.312,-1077.15 658.312,-1077.15 658.312,-1077.15 655.965,-1081.57 654.338,-1075.04 653.619,-1085.98 653.619,-1085.98"/>
</g>
<!-- ServiceRequest -->
<g id="node14" class="node"><title>ServiceRequest</title>
<path fill="none" stroke="black" d="M842,-733C842,-733 952,-733 952,-733 958,-733 964,-739 964,-745 964,-745 964,-857 964,-857 964,-863 958,-869 952,-869 952,-869 842,-869 842,-869 836,-869 830,-863 830,-857 830,-857 830,-745 830,-745 830,-739 836,-733 842,-733"/>
<text text-anchor="middle" x="897" y="-853.8" font-family="Times,serif" font-size="14.00">ServiceRequest</text>
<polyline fill="none" stroke="black" points="830,-846 964,-846 "/>
<text text-anchor="start" x="838" y="-830.8" font-family="Times,serif" font-size="14.00">id :integer</text>
<text text-anchor="start" x="838" y="-815.8" font-family="Times,serif" font-size="14.00">to_state :string</text>
<text text-anchor="start" x="838" y="-800.8" font-family="Times,serif" font-size="14.00">metadata :text</text>
<text text-anchor="start" x="838" y="-785.8" font-family="Times,serif" font-size="14.00">sort_key :integer</text>
<text text-anchor="start" x="838" y="-770.8" font-family="Times,serif" font-size="14.00">service_id :integer</text>
<text text-anchor="start" x="838" y="-755.8" font-family="Times,serif" font-size="14.00">created_at :datetime</text>
<text text-anchor="start" x="838" y="-740.8" font-family="Times,serif" font-size="14.00">updated_at :datetime</text>
</g>
<!-- Service&#45;&gt;ServiceRequest -->
<g id="edge14" class="edge"><title>Service&#45;&gt;ServiceRequest</title>
<path fill="none" stroke="#4e46c7" d="M627.222,-1285.67C717.864,-1269.63 856.947,-1229.41 922,-1130 970.758,-1055.49 950.851,-950.074 927.833,-879.035"/>
<ellipse fill="none" stroke="#4e46c7" cx="623.093" cy="-1286.38" rx="4.00001" ry="4.00001"/>
<polygon fill="#4e46c7" stroke="#4e46c7" points="927.732,-878.733 928.84,-867.823 926.151,-873.99 924.571,-869.246 924.571,-869.246 924.571,-869.246 926.151,-873.99 920.302,-870.669 927.732,-878.733 927.732,-878.733"/>
</g>
<!-- Service&#45;&gt;User -->
<g id="edge19" class="edge"><title>Service&#45;&gt;User</title>
<path fill="none" stroke="#55b2a3" d="M460.584,-1166.86C455.244,-1154.71 450.58,-1142.32 447,-1130 388.689,-929.274 388.088,-689.683 398.532,-519.635"/>
<polygon fill="#55b2a3" stroke="#55b2a3" points="460.647,-1167 460.697,-1177.96 462.72,-1171.55 464.792,-1176.1 464.792,-1176.1 464.792,-1176.1 462.72,-1171.55 468.887,-1174.23 460.647,-1167 460.647,-1167"/>
<polygon fill="#55b2a3" stroke="#55b2a3" points="398.538,-519.536 403.66,-509.84 398.853,-514.546 399.168,-509.556 399.168,-509.556 399.168,-509.556 398.853,-514.546 394.677,-509.272 398.538,-519.536 398.538,-519.536"/>
</g>
<!-- Service&#45;&gt;PaperTrail::Version -->
<g id="edge20" class="edge"><title>Service&#45;&gt;PaperTrail::Version</title>
<path fill="none" stroke="#f80ae7" d="M627.176,-1288.48C724.08,-1274.87 878.283,-1236.72 951,-1130 981.839,-1084.74 979,-1064.77 979,-1010 979,-1010 979,-1010 979,-298 979,-201.646 933.425,-93.8929 910.229,-45.2897"/>
<ellipse fill="none" stroke="#f80ae7" cx="623.106" cy="-1289.03" rx="4.00001" ry="4.00001"/>
<polygon fill="#f80ae7" stroke="#f80ae7" points="910.14,-45.1068 909.824,-34.1455 907.958,-40.6082 905.775,-36.1096 905.775,-36.1096 905.775,-36.1096 907.958,-40.6082 901.727,-38.0737 910.14,-45.1068 910.14,-45.1068"/>
<text text-anchor="middle" x="1002.5" y="-634.3" font-family="Times,serif" font-size="14.00">versions</text>
</g>
<!-- ServiceCreator -->
<g id="node13" class="node"><title>ServiceCreator</title>
<polygon fill="none" stroke="black" points="919,-2007 919,-2053 1019,-2053 1019,-2007 919,-2007"/>
<text text-anchor="middle" x="969" y="-2037.8" font-family="Times,serif" font-size="14.00">ServiceCreator</text>
<polyline fill="none" stroke="black" points="919,-2030 1019,-2030 "/>
<text text-anchor="middle" x="969" y="-2014.8" font-family="Times,serif" font-size="14.00"> </text>
</g>
<!-- ServiceRequest&#45;&gt;PaperTrail::Version -->
<g id="edge21" class="edge"><title>ServiceRequest&#45;&gt;PaperTrail::Version</title>
<path fill="none" stroke="#c94b0a" d="M897,-724.617C897,-555.902 897,-154.21 897,-46.1576"/>
<ellipse fill="none" stroke="#c94b0a" cx="897" cy="-728.736" rx="4" ry="4"/>
<polygon fill="#c94b0a" stroke="#c94b0a" points="897,-46.0852 901.5,-36.0852 897,-41.0852 897,-36.0852 897,-36.0852 897,-36.0852 897,-41.0852 892.5,-36.0853 897,-46.0852 897,-46.0852"/>
<text text-anchor="middle" x="920.5" y="-532.3" font-family="Times,serif" font-size="14.00">versions</text>
</g>
<!-- User&#45;&gt;PaperTrail::Version -->
<g id="edge22" class="edge"><title>User&#45;&gt;PaperTrail::Version</title>
<path fill="none" stroke="#d43af4" d="M530.542,-233.168C614.105,-183.816 732.138,-114.327 836,-54 843.824,-49.4553 852.231,-44.6087 860.226,-40.0159"/>
<ellipse fill="none" stroke="#d43af4" cx="527.021" cy="-235.248" rx="4.00002" ry="4.00002"/>
<polygon fill="#d43af4" stroke="#d43af4" points="860.352,-39.9439 871.265,-38.8713 864.689,-37.4559 869.026,-34.968 869.026,-34.968 869.026,-34.968 864.689,-37.4559 866.787,-31.0646 860.352,-39.9439 860.352,-39.9439"/>
<text text-anchor="middle" x="859.5" y="-58.3" font-family="Times,serif" font-size="14.00">versions</text>
</g>
</g>
</svg>
