<?xml version="1.0" encoding="UTF-8" standalone="no"?>
<!DOCTYPE svg PUBLIC "-//W3C//DTD SVG 1.1//EN"
 "http://www.w3.org/Graphics/SVG/1.1/DTD/svg11.dtd">
<!-- Generated by graphviz version 2.36.0 (20140111.2315)
 -->
<!-- Title: models_diagram Pages: 1 -->
<svg width="1821pt" height="484pt"
 viewBox="0.00 0.00 1821.00 484.00" xmlns="http://www.w3.org/2000/svg" xmlns:xlink="http://www.w3.org/1999/xlink">
<g id="graph0" class="graph" transform="scale(1 1) rotate(0) translate(4 480)">
<title>models_diagram</title>
<polygon fill="white" stroke="none" points="-4,4 -4,-480 1817,-480 1817,4 -4,4"/>
<!-- _diagram_info -->
<g id="node1" class="node"><title>_diagram_info</title>
<text text-anchor="start" x="8" y="-461.6" font-family="Times,serif" font-size="13.00">Models diagram</text>
<text text-anchor="start" x="8" y="-447.6" font-family="Times,serif" font-size="13.00">Date: Mar 15 2015 &#45; 09:13</text>
<text text-anchor="start" x="8" y="-433.6" font-family="Times,serif" font-size="13.00">Migration version: 20150315011344</text>
<text text-anchor="start" x="8" y="-419.6" font-family="Times,serif" font-size="13.00">Generated by RailRoady 1.3.0</text>
<text text-anchor="start" x="8" y="-405.6" font-family="Times,serif" font-size="13.00">http://railroady.prestonlee.com</text>
</g>
<!-- Absdash -->
<g id="node2" class="node"><title>Absdash</title>
<ellipse fill="none" stroke="black" cx="268" cy="-437" rx="42.3701" ry="18"/>
<text text-anchor="middle" x="268" y="-433.3" font-family="Times,serif" font-size="14.00">Absdash</text>
</g>
<!-- AbstractBuilder -->
<g id="node3" class="node"><title>AbstractBuilder</title>
<polygon fill="none" stroke="black" points="434,-455 328,-455 328,-419 434,-419 434,-455"/>
<text text-anchor="middle" x="381" y="-433.3" font-family="Times,serif" font-size="14.00">AbstractBuilder</text>
</g>
<!-- Abstractor -->
<g id="node4" class="node"><title>Abstractor</title>
<ellipse fill="none" stroke="black" cx="1038" cy="-342" rx="49.0941" ry="18"/>
<text text-anchor="middle" x="1038" y="-338.3" font-family="Times,serif" font-size="14.00">Abstractor</text>
</g>
<!-- Document -->
<g id="node12" class="node"><title>Document</title>
<ellipse fill="none" stroke="black" cx="835" cy="-268" rx="48.6179" ry="18"/>
<text text-anchor="middle" x="835" y="-264.3" font-family="Times,serif" font-size="14.00">Document</text>
</g>
<!-- Abstractor&#45;&gt;Document -->
<g id="edge3" class="edge"><title>Abstractor&#45;&gt;Document</title>
<path fill="none" stroke="#179936" d="M995.718,-324.847C978.212,-318.251 957.675,-310.63 939,-304 919.673,-297.139 898.21,-289.859 879.825,-283.725"/>
<polygon fill="#179936" stroke="#179936" points="995.745,-324.858 1003.51,-332.603 1000.42,-326.625 1005.1,-328.393 1005.1,-328.393 1005.1,-328.393 1000.42,-326.625 1006.69,-324.184 995.745,-324.858 995.745,-324.858"/>
<polygon fill="#179936" stroke="#179936" points="879.73,-283.694 871.661,-276.269 874.986,-282.116 870.241,-280.539 870.241,-280.539 870.241,-280.539 874.986,-282.116 868.821,-284.809 879.73,-283.694 879.73,-283.694"/>
</g>
<!-- Service -->
<g id="node23" class="node"><title>Service</title>
<ellipse fill="none" stroke="black" cx="612" cy="-268" rx="37.5442" ry="18"/>
<text text-anchor="middle" x="612" y="-264.3" font-family="Times,serif" font-size="14.00">Service</text>
</g>
<!-- Abstractor&#45;&gt;Service -->
<g id="edge4" class="edge"><title>Abstractor&#45;&gt;Service</title>
<path fill="none" stroke="#15f4c4" d="M984.293,-331.923C899.414,-317.577 735.807,-289.925 656.826,-276.576"/>
<polygon fill="#15f4c4" stroke="#15f4c4" points="984.552,-331.967 993.663,-338.07 989.482,-332.8 994.413,-333.633 994.413,-333.633 994.413,-333.633 989.482,-332.8 995.162,-329.196 984.552,-331.967 984.552,-331.967"/>
<polygon fill="#15f4c4" stroke="#15f4c4" points="656.575,-276.534 647.465,-270.43 651.645,-275.701 646.715,-274.867 646.715,-274.867 646.715,-274.867 651.645,-275.701 645.965,-279.304 656.575,-276.534 656.575,-276.534"/>
</g>
<!-- TitleAbstract -->
<g id="node26" class="node"><title>TitleAbstract</title>
<ellipse fill="none" stroke="black" cx="1119" cy="-92" rx="58.2422" ry="18"/>
<text text-anchor="middle" x="1119" y="-88.3" font-family="Times,serif" font-size="14.00">TitleAbstract</text>
</g>
<!-- Abstractor&#45;&gt;TitleAbstract -->
<g id="edge5" class="edge"><title>Abstractor&#45;&gt;TitleAbstract</title>
<path fill="none" stroke="#8ed731" d="M1063.87,-318.367C1068.05,-314.373 1072.24,-310.159 1076,-306 1111.1,-267.166 1113.92,-249.554 1123,-198 1127.6,-171.873 1125.69,-141.545 1123.17,-120.221"/>
<polygon fill="#8ed731" stroke="#8ed731" points="1063.77,-318.462 1053.37,-321.962 1060.1,-321.862 1056.43,-325.262 1056.43,-325.262 1056.43,-325.262 1060.1,-321.862 1059.49,-328.561 1063.77,-318.462 1063.77,-318.462"/>
<polygon fill="#8ed731" stroke="#8ed731" points="1123.16,-120.164 1126.34,-109.667 1122.52,-115.205 1121.87,-110.247 1121.87,-110.247 1121.87,-110.247 1122.52,-115.205 1117.41,-110.828 1123.16,-120.164 1123.16,-120.164"/>
</g>
<!-- PaperTrail::Version -->
<g id="node28" class="node"><title>PaperTrail::Version</title>
<ellipse fill="none" stroke="black" cx="683" cy="-92" rx="83.2892" ry="18"/>
<text text-anchor="middle" x="683" y="-88.3" font-family="Times,serif" font-size="14.00">PaperTrail::Version</text>
</g>
<!-- Abstractor&#45;&gt;PaperTrail::Version -->
<g id="edge1" class="edge"><title>Abstractor&#45;&gt;PaperTrail::Version</title>
<path fill="none" stroke="#ca0226" d="M1031.05,-316.295C1018.82,-277.455 989.739,-202.387 938,-162 890.366,-124.817 824.216,-107.631 771.228,-99.7074"/>
<ellipse fill="none" stroke="#ca0226" cx="1032.23" cy="-320.181" rx="4.00001" ry="4.00001"/>
<polygon fill="#ca0226" stroke="#ca0226" points="771.057,-99.6835 761.783,-93.832 766.106,-98.9857 761.155,-98.288 761.155,-98.288 761.155,-98.288 766.106,-98.9857 760.527,-102.744 771.057,-99.6835 771.057,-99.6835"/>
<text text-anchor="middle" x="1017.5" y="-220.3" font-family="Times,serif" font-size="14.00">versions</text>
</g>
<!-- UserDocument -->
<g id="node29" class="node"><title>UserDocument</title>
<ellipse fill="none" stroke="black" cx="957" cy="-92" rx="65.4659" ry="18"/>
<text text-anchor="middle" x="957" y="-88.3" font-family="Times,serif" font-size="14.00">UserDocument</text>
</g>
<!-- Abstractor&#45;&gt;UserDocument -->
<g id="edge2" class="edge"><title>Abstractor&#45;&gt;UserDocument</title>
<path fill="none" stroke="#17b671" d="M1055.3,-317.268C1071.35,-292.293 1091.31,-251.722 1081,-216 1067.87,-170.519 1056.92,-158.827 1021,-128 1014.3,-122.248 1006.49,-117.032 998.691,-112.487"/>
<ellipse fill="none" stroke="#17b671" cx="1052.91" cy="-320.859" rx="4.00002" ry="4.00002"/>
<polygon fill="#17b671" stroke="#17b671" points="998.69,-112.486 992.115,-103.709 994.314,-110.067 989.938,-107.648 989.938,-107.648 989.938,-107.648 994.314,-110.067 987.761,-111.586 998.69,-112.486 998.69,-112.486"/>
</g>
<!-- AbstractorDashboard -->
<g id="node5" class="node"><title>AbstractorDashboard</title>
<ellipse fill="none" stroke="black" cx="822" cy="-437" rx="88.0886" ry="18"/>
<text text-anchor="middle" x="822" y="-433.3" font-family="Times,serif" font-size="14.00">AbstractorDashboard</text>
</g>
<!-- Company -->
<g id="node6" class="node"><title>Company</title>
<ellipse fill="none" stroke="black" cx="498" cy="-437" rx="46.2191" ry="18"/>
<text text-anchor="middle" x="498" y="-433.3" font-family="Times,serif" font-size="14.00">Company</text>
</g>
<!-- Employee -->
<g id="node13" class="node"><title>Employee</title>
<ellipse fill="none" stroke="black" cx="573" cy="-342" rx="47.169" ry="18"/>
<text text-anchor="middle" x="573" y="-338.3" font-family="Times,serif" font-size="14.00">Employee</text>
</g>
<!-- Company&#45;&gt;Employee -->
<g id="edge6" class="edge"><title>Company&#45;&gt;Employee</title>
<path fill="none" stroke="#ad930c" d="M516.488,-413.074C527.69,-399.184 541.97,-381.478 553.372,-367.339"/>
<ellipse fill="none" stroke="#ad930c" cx="513.92" cy="-416.26" rx="4.00002" ry="4.00002"/>
<polygon fill="#ad930c" stroke="#ad930c" points="553.43,-367.267 563.21,-362.307 556.569,-363.375 559.708,-359.483 559.708,-359.483 559.708,-359.483 556.569,-363.375 556.205,-356.658 553.43,-367.267 553.43,-367.267"/>
</g>
<!-- Flow -->
<g id="node14" class="node"><title>Flow</title>
<ellipse fill="none" stroke="black" cx="246" cy="-92" rx="29.3722" ry="18"/>
<text text-anchor="middle" x="246" y="-88.3" font-family="Times,serif" font-size="14.00">Flow</text>
</g>
<!-- Company&#45;&gt;Flow -->
<g id="edge8" class="edge"><title>Company&#45;&gt;Flow</title>
<path fill="none" stroke="#e123b8" d="M472.726,-415.442C463.781,-409.03 453.358,-402.474 443,-398 389.383,-374.842 186,-401.404 186,-343 186,-343 186,-343 186,-179 186,-153.186 204.408,-129.583 220.832,-113.663"/>
<ellipse fill="none" stroke="#e123b8" cx="476.039" cy="-417.898" rx="4.00002" ry="4.00002"/>
<polygon fill="#e123b8" stroke="#e123b8" points="221.28,-113.251 231.689,-109.803 224.963,-109.87 228.646,-106.488 228.646,-106.488 228.646,-106.488 224.963,-109.87 225.602,-103.173 221.28,-113.251 221.28,-113.251"/>
</g>
<!-- Company&#45;&gt;Service -->
<g id="edge7" class="edge"><title>Company&#45;&gt;Service</title>
<path fill="none" stroke="#41aacd" d="M496.393,-408.468C496.341,-384.176 499.732,-348.864 517,-324 530.266,-304.898 552.471,-291.51 572.079,-282.729"/>
<polygon fill="#41aacd" stroke="#41aacd" points="496.4,-408.779 492.124,-418.877 496.511,-413.778 496.623,-418.777 496.623,-418.777 496.623,-418.777 496.511,-413.778 501.121,-418.677 496.4,-408.779 496.4,-408.779"/>
<polygon fill="#41aacd" stroke="#41aacd" points="572.23,-282.665 583.192,-282.93 576.838,-280.724 581.445,-278.783 581.445,-278.783 581.445,-278.783 576.838,-280.724 579.698,-274.636 572.23,-282.665 572.23,-282.665"/>
</g>
<!-- Contact -->
<g id="node7" class="node"><title>Contact</title>
<ellipse fill="none" stroke="black" cx="967" cy="-437" rx="38.4949" ry="18"/>
<text text-anchor="middle" x="967" y="-433.3" font-family="Times,serif" font-size="14.00">Contact</text>
</g>
<!-- CurativeBuilder -->
<g id="node8" class="node"><title>CurativeBuilder</title>
<polygon fill="none" stroke="black" points="1130.25,-455 1023.75,-455 1023.75,-419 1130.25,-419 1130.25,-455"/>
<text text-anchor="middle" x="1077" y="-433.3" font-family="Times,serif" font-size="14.00">CurativeBuilder</text>
</g>
<!-- Dashboard -->
<g id="node9" class="node"><title>Dashboard</title>
<ellipse fill="none" stroke="black" cx="1199" cy="-437" rx="50.0684" ry="18"/>
<text text-anchor="middle" x="1199" y="-433.3" font-family="Times,serif" font-size="14.00">Dashboard</text>
</g>
<!-- Deed -->
<g id="node10" class="node"><title>Deed</title>
<ellipse fill="none" stroke="black" cx="1205" cy="-180" rx="29.3479" ry="18"/>
<text text-anchor="middle" x="1205" y="-176.3" font-family="Times,serif" font-size="14.00">Deed</text>
</g>
<!-- DeedTitleAbstract -->
<g id="node11" class="node"><title>DeedTitleAbstract</title>
<ellipse fill="none" stroke="black" cx="1177" cy="-18" rx="77.4897" ry="18"/>
<text text-anchor="middle" x="1177" y="-14.3" font-family="Times,serif" font-size="14.00">DeedTitleAbstract</text>
</g>
<!-- Deed&#45;&gt;DeedTitleAbstract -->
<g id="edge9" class="edge"><title>Deed&#45;&gt;DeedTitleAbstract</title>
<path fill="none" stroke="#fdced9" d="M1200.57,-153.658C1195.44,-124.346 1187.02,-76.2762 1181.76,-46.1987"/>
<ellipse fill="none" stroke="#fdced9" cx="1201.31" cy="-157.937" rx="4.00001" ry="4.00001"/>
<polygon fill="#fdced9" stroke="#fdced9" points="1181.7,-45.85 1184.41,-35.2239 1180.84,-40.9248 1179.97,-35.9997 1179.97,-35.9997 1179.97,-35.9997 1180.84,-40.9248 1175.54,-36.7754 1181.7,-45.85 1181.7,-45.85"/>
</g>
<!-- Deed&#45;&gt;TitleAbstract -->
<g id="edge10" class="edge"><title>Deed&#45;&gt;TitleAbstract</title>
<path fill="none" stroke="#b44043" d="M1186.08,-155.461C1178.58,-146.565 1169.68,-136.536 1161,-128 1156.75,-123.823 1152.06,-119.589 1147.4,-115.578"/>
<polygon fill="#b44043" stroke="#b44043" points="1186.15,-155.541 1189.07,-166.11 1189.34,-159.389 1192.54,-163.237 1192.54,-163.237 1192.54,-163.237 1189.34,-159.389 1196,-160.363 1186.15,-155.541 1186.15,-155.541"/>
<polygon fill="#b44043" stroke="#b44043" points="1147.33,-115.518 1142.56,-105.641 1143.5,-112.303 1139.67,-109.088 1139.67,-109.088 1139.67,-109.088 1143.5,-112.303 1136.77,-112.534 1147.33,-115.518 1147.33,-115.518"/>
</g>
<!-- User -->
<g id="node27" class="node"><title>User</title>
<ellipse fill="none" stroke="black" cx="779" cy="-180" rx="27.4223" ry="18"/>
<text text-anchor="middle" x="779" y="-176.3" font-family="Times,serif" font-size="14.00">User</text>
</g>
<!-- Document&#45;&gt;User -->
<g id="edge12" class="edge"><title>Document&#45;&gt;User</title>
<path fill="none" stroke="#679609" d="M818.646,-241.885C811.189,-230.434 802.391,-216.922 794.98,-205.541"/>
<polygon fill="#679609" stroke="#679609" points="818.746,-242.038 820.432,-252.874 821.474,-246.228 824.203,-250.418 824.203,-250.418 824.203,-250.418 821.474,-246.228 827.974,-247.963 818.746,-242.038 818.746,-242.038"/>
<polygon fill="#679609" stroke="#679609" points="794.842,-205.329 793.157,-194.494 792.114,-201.139 789.386,-196.949 789.386,-196.949 789.386,-196.949 792.114,-201.139 785.615,-199.405 794.842,-205.329 794.842,-205.329"/>
</g>
<!-- Document&#45;&gt;UserDocument -->
<g id="edge11" class="edge"><title>Document&#45;&gt;UserDocument</title>
<path fill="none" stroke="#4e7312" d="M834.199,-241.77C834.656,-219.14 838.341,-185.911 854,-162 868.342,-140.1 892.305,-123.435 913.51,-111.973"/>
<ellipse fill="none" stroke="#4e7312" cx="834.181" cy="-245.883" rx="4" ry="4"/>
<polygon fill="#4e7312" stroke="#4e7312" points="913.51,-111.973 924.46,-111.377 917.952,-109.677 922.393,-107.38 922.393,-107.38 922.393,-107.38 917.952,-109.677 920.326,-103.383 913.51,-111.973 913.51,-111.973"/>
</g>
<!-- Employee&#45;&gt;Document -->
<g id="edge15" class="edge"><title>Employee&#45;&gt;Document</title>
<path fill="none" stroke="#84a2e4" d="M619.98,-328.089C667.243,-315.101 739.748,-295.176 787.274,-282.116"/>
<polygon fill="#84a2e4" stroke="#84a2e4" points="619.902,-328.111 609.068,-326.421 615.081,-329.436 610.26,-330.761 610.26,-330.761 610.26,-330.761 615.081,-329.436 611.452,-335.1 619.902,-328.111 619.902,-328.111"/>
<polygon fill="#84a2e4" stroke="#84a2e4" points="787.376,-282.088 798.211,-283.777 792.197,-280.763 797.018,-279.438 797.018,-279.438 797.018,-279.438 792.197,-280.763 795.826,-275.099 787.376,-282.088 787.376,-282.088"/>
</g>
<!-- Employee&#45;&gt;Service -->
<g id="edge16" class="edge"><title>Employee&#45;&gt;Service</title>
<path fill="none" stroke="#845600" d="M586.928,-315.287C590.606,-308.497 594.572,-301.175 598.24,-294.402"/>
<polygon fill="#845600" stroke="#845600" points="586.808,-315.508 578.089,-322.157 584.427,-319.904 582.045,-324.301 582.045,-324.301 582.045,-324.301 584.427,-319.904 586.002,-326.444 586.808,-315.508 586.808,-315.508"/>
<polygon fill="#845600" stroke="#845600" points="598.241,-294.402 606.96,-287.752 600.622,-290.005 603.004,-285.609 603.004,-285.609 603.004,-285.609 600.622,-290.005 599.047,-283.465 598.241,-294.402 598.241,-294.402"/>
</g>
<!-- Employee&#45;&gt;PaperTrail::Version -->
<g id="edge13" class="edge"><title>Employee&#45;&gt;PaperTrail::Version</title>
<path fill="none" stroke="#f1c2de" d="M530.694,-326.935C453.954,-299.226 304.884,-233.982 363,-162 391.774,-126.36 511.189,-108.245 595.688,-99.7163"/>
<ellipse fill="none" stroke="#f1c2de" cx="534.565" cy="-328.313" rx="4.00001" ry="4.00001"/>
<polygon fill="#f1c2de" stroke="#f1c2de" points="595.858,-99.6997 606.25,-103.202 600.835,-99.2114 605.811,-98.7232 605.811,-98.7232 605.811,-98.7232 600.835,-99.2114 605.371,-94.2447 595.858,-99.6997 595.858,-99.6997"/>
<text text-anchor="middle" x="387.5" y="-220.3" font-family="Times,serif" font-size="14.00">versions</text>
</g>
<!-- Employee&#45;&gt;UserDocument -->
<g id="edge14" class="edge"><title>Employee&#45;&gt;UserDocument</title>
<path fill="none" stroke="#89b24f" d="M627.68,-337.384C707.457,-331.155 850.758,-316.066 892,-286 944.94,-247.406 955.296,-163.568 956.979,-120.202"/>
<ellipse fill="none" stroke="#89b24f" cx="623.208" cy="-337.725" rx="4" ry="4"/>
<polygon fill="#89b24f" stroke="#89b24f" points="956.981,-120.097 961.739,-110.217 957.111,-115.099 957.24,-110.1 957.24,-110.1 957.24,-110.1 957.111,-115.099 952.742,-109.984 956.981,-120.097 956.981,-120.097"/>
</g>
<!-- GroupdocsAdapter -->
<g id="node15" class="node"><title>GroupdocsAdapter</title>
<polygon fill="none" stroke="black" points="1390.25,-455 1267.75,-455 1267.75,-419 1390.25,-419 1390.25,-455"/>
<text text-anchor="middle" x="1329" y="-433.3" font-family="Times,serif" font-size="14.00">GroupdocsAdapter</text>
</g>
<!-- Lawfirm -->
<g id="node16" class="node"><title>Lawfirm</title>
<ellipse fill="none" stroke="black" cx="673" cy="-437" rx="42.3701" ry="18"/>
<text text-anchor="middle" x="673" y="-433.3" font-family="Times,serif" font-size="14.00">Lawfirm</text>
</g>
<!-- Lawyer -->
<g id="node17" class="node"><title>Lawyer</title>
<ellipse fill="none" stroke="black" cx="811" cy="-342" rx="38.0212" ry="18"/>
<text text-anchor="middle" x="811" y="-338.3" font-family="Times,serif" font-size="14.00">Lawyer</text>
</g>
<!-- Lawfirm&#45;&gt;Lawyer -->
<g id="edge17" class="edge"><title>Lawfirm&#45;&gt;Lawyer</title>
<path fill="none" stroke="#703c5a" d="M699.594,-416.078C707.678,-410.155 716.637,-403.722 725,-398 742.895,-385.756 763.328,-372.654 779.785,-362.309"/>
<ellipse fill="none" stroke="#703c5a" cx="696.261" cy="-418.534" rx="4.00002" ry="4.00002"/>
<polygon fill="#703c5a" stroke="#703c5a" points="780.001,-362.174 790.865,-360.684 784.24,-359.522 788.478,-356.869 788.478,-356.869 788.478,-356.869 784.24,-359.522 786.091,-353.055 780.001,-362.174 780.001,-362.174"/>
</g>
<!-- Lawfirm&#45;&gt;Service -->
<g id="edge18" class="edge"><title>Lawfirm&#45;&gt;Service</title>
<path fill="none" stroke="#4eb70b" d="M664,-411.36C652.68,-380.37 633.321,-327.371 621.687,-295.52"/>
<ellipse fill="none" stroke="#4eb70b" cx="665.443" cy="-415.311" rx="4.00001" ry="4.00001"/>
<polygon fill="#4eb70b" stroke="#4eb70b" points="621.632,-295.37 622.428,-284.433 619.917,-290.673 618.201,-285.977 618.201,-285.977 618.201,-285.977 619.917,-290.673 613.974,-287.521 621.632,-295.37 621.632,-295.37"/>
</g>
<!-- Lawyer&#45;&gt;Document -->
<g id="edge21" class="edge"><title>Lawyer&#45;&gt;Document</title>
<path fill="none" stroke="#734c4b" d="M819.945,-314.166C821.964,-308.108 824.107,-301.68 826.123,-295.63"/>
<polygon fill="#734c4b" stroke="#734c4b" points="819.85,-314.45 812.419,-322.514 818.269,-319.194 816.688,-323.937 816.688,-323.937 816.688,-323.937 818.269,-319.194 820.957,-325.36 819.85,-314.45 819.85,-314.45"/>
<polygon fill="#734c4b" stroke="#734c4b" points="826.191,-295.427 833.622,-287.364 827.772,-290.684 829.353,-285.941 829.353,-285.941 829.353,-285.941 827.772,-290.684 825.084,-284.517 826.191,-295.427 826.191,-295.427"/>
</g>
<!-- Lawyer&#45;&gt;Service -->
<g id="edge22" class="edge"><title>Lawyer&#45;&gt;Service</title>
<path fill="none" stroke="#ed83d0" d="M771.405,-327.15C753.277,-320.771 731.527,-313.064 712,-306 691.637,-298.634 669.004,-290.274 650.427,-283.367"/>
<polygon fill="#ed83d0" stroke="#ed83d0" points="771.633,-327.23 779.575,-334.791 776.35,-328.887 781.067,-330.545 781.067,-330.545 781.067,-330.545 776.35,-328.887 782.559,-326.299 771.633,-327.23 771.633,-327.23"/>
<polygon fill="#ed83d0" stroke="#ed83d0" points="650.213,-283.287 642.411,-275.58 645.527,-281.542 640.841,-279.798 640.841,-279.798 640.841,-279.798 645.527,-281.542 639.271,-284.015 650.213,-283.287 650.213,-283.287"/>
</g>
<!-- Lawyer&#45;&gt;TitleAbstract -->
<g id="edge23" class="edge"><title>Lawyer&#45;&gt;TitleAbstract</title>
<path fill="none" stroke="#db78b3" d="M855.806,-332.004C886.798,-324.015 927.591,-309.813 957,-286 988.181,-260.753 988.307,-246.815 1014,-216 1042.75,-181.514 1076.56,-142.114 1097.88,-117.398"/>
<polygon fill="#db78b3" stroke="#db78b3" points="855.415,-332.1 844.631,-330.11 850.558,-333.29 845.702,-334.48 845.702,-334.48 845.702,-334.48 850.558,-333.29 846.773,-338.851 855.415,-332.1 855.415,-332.1"/>
<polygon fill="#db78b3" stroke="#db78b3" points="1098.07,-117.176 1108.02,-112.549 1101.34,-113.392 1104.61,-109.607 1104.61,-109.607 1104.61,-109.607 1101.34,-113.392 1101.2,-106.666 1098.07,-117.176 1098.07,-117.176"/>
</g>
<!-- Lawyer&#45;&gt;PaperTrail::Version -->
<g id="edge19" class="edge"><title>Lawyer&#45;&gt;PaperTrail::Version</title>
<path fill="none" stroke="#835d44" d="M795.762,-317.396C789.721,-307.774 782.838,-296.469 777,-286 744.593,-227.881 711.666,-156.951 694.708,-119.351"/>
<ellipse fill="none" stroke="#835d44" cx="798.046" cy="-321.004" rx="4.00002" ry="4.00002"/>
<polygon fill="#835d44" stroke="#835d44" points="694.651,-119.225 694.661,-108.259 692.604,-114.664 690.556,-110.102 690.556,-110.102 690.556,-110.102 692.604,-114.664 686.451,-111.945 694.651,-119.225 694.651,-119.225"/>
<text text-anchor="middle" x="771.5" y="-220.3" font-family="Times,serif" font-size="14.00">versions</text>
</g>
<!-- Lawyer&#45;&gt;UserDocument -->
<g id="edge20" class="edge"><title>Lawyer&#45;&gt;UserDocument</title>
<path fill="none" stroke="#071053" d="M851.45,-329.87C876.376,-321.293 907.559,-307.246 929,-286 980.613,-234.856 984.741,-199.35 971,-128 970.473,-125.263 969.734,-122.467 968.867,-119.709"/>
<ellipse fill="none" stroke="#071053" cx="847.395" cy="-331.209" rx="4.00001" ry="4.00001"/>
<polygon fill="#071053" stroke="#071053" points="968.769,-119.44 969.551,-108.502 967.047,-114.746 965.326,-110.052 965.326,-110.052 965.326,-110.052 967.047,-114.746 961.101,-111.601 968.769,-119.44 968.769,-119.44"/>
</g>
<!-- Lease -->
<g id="node18" class="node"><title>Lease</title>
<ellipse fill="none" stroke="black" cx="246" cy="-180" rx="31.2735" ry="18"/>
<text text-anchor="middle" x="246" y="-176.3" font-family="Times,serif" font-size="14.00">Lease</text>
</g>
<!-- Lease&#45;&gt;Flow -->
<g id="edge24" class="edge"><title>Lease&#45;&gt;Flow</title>
<path fill="none" stroke="#e4d4f6" d="M246,-153.339C246,-142.855 246,-130.718 246,-120.091"/>
<ellipse fill="none" stroke="#e4d4f6" cx="246" cy="-157.597" rx="4" ry="4"/>
<polygon fill="#e4d4f6" stroke="#e4d4f6" points="246,-120.084 250.5,-110.084 246,-115.084 246,-110.084 246,-110.084 246,-110.084 246,-115.084 241.5,-110.084 246,-120.084 246,-120.084"/>
</g>
<!-- Lessee -->
<g id="node19" class="node"><title>Lessee</title>
<ellipse fill="none" stroke="black" cx="576" cy="-180" rx="35.6194" ry="18"/>
<text text-anchor="middle" x="576" y="-176.3" font-family="Times,serif" font-size="14.00">Lessee</text>
</g>
<!-- OpinionBuilder -->
<g id="node20" class="node"><title>OpinionBuilder</title>
<polygon fill="none" stroke="black" points="1513,-455 1409,-455 1409,-419 1513,-419 1513,-455"/>
<text text-anchor="middle" x="1461" y="-433.3" font-family="Times,serif" font-size="14.00">OpinionBuilder</text>
</g>
<!-- Parcel -->
<g id="node21" class="node"><title>Parcel</title>
<ellipse fill="none" stroke="black" cx="896" cy="-180" rx="33.2209" ry="18"/>
<text text-anchor="middle" x="896" y="-176.3" font-family="Times,serif" font-size="14.00">Parcel</text>
</g>
<!-- Parcel&#45;&gt;TitleAbstract -->
<g id="edge25" class="edge"><title>Parcel&#45;&gt;TitleAbstract</title>
<path fill="none" stroke="#f64165" d="M930.156,-165.828C969.446,-150.676 1033.99,-125.783 1076.5,-109.391"/>
<ellipse fill="none" stroke="#f64165" cx="926.189" cy="-167.358" rx="4.00001" ry="4.00001"/>
<ellipse fill="#f64165" stroke="#f64165" cx="1080.43" cy="-107.873" rx="4.00001" ry="4.00001"/>
</g>
<!-- RequestStateMachine -->
<g id="node22" class="node"><title>RequestStateMachine</title>
<polygon fill="none" stroke="black" points="1670.25,-455 1531.75,-455 1531.75,-419 1670.25,-419 1670.25,-455"/>
<text text-anchor="middle" x="1601" y="-433.3" font-family="Times,serif" font-size="14.00">RequestStateMachine</text>
</g>
<!-- Service&#45;&gt;Flow -->
<g id="edge27" class="edge"><title>Service&#45;&gt;Flow</title>
<path fill="none" stroke="#5d9265" d="M571.495,-256.859C505.781,-240.246 381.396,-208.07 363,-198 323.854,-176.57 286.982,-139.679 265.45,-115.82"/>
<ellipse fill="none" stroke="#5d9265" cx="575.713" cy="-257.924" rx="4.00001" ry="4.00001"/>
<polygon fill="#5d9265" stroke="#5d9265" points="265.389,-115.751 262.121,-105.284 262.072,-112.01 258.755,-108.269 258.755,-108.269 258.755,-108.269 262.072,-112.01 255.388,-111.255 265.389,-115.751 265.389,-115.751"/>
</g>
<!-- Service&#45;&gt;Lease -->
<g id="edge29" class="edge"><title>Service&#45;&gt;Lease</title>
<path fill="none" stroke="#e805b8" d="M567.141,-263.157C527.495,-258.753 468.589,-249.721 420,-232 406.535,-227.089 405.471,-220.896 392,-216 349.558,-200.574 335.57,-209.873 292,-198 288.334,-197.001 284.549,-195.834 280.797,-194.587"/>
<ellipse fill="none" stroke="#e805b8" cx="571.321" cy="-263.604" rx="4" ry="4"/>
<polygon fill="#e805b8" stroke="#e805b8" points="280.483,-194.477 272.539,-186.918 275.765,-192.82 271.048,-191.164 271.048,-191.164 271.048,-191.164 275.765,-192.82 269.557,-195.41 280.483,-194.477 280.483,-194.477"/>
</g>
<!-- Service&#45;&gt;Lessee -->
<g id="edge28" class="edge"><title>Service&#45;&gt;Lessee</title>
<path fill="none" stroke="#6e6f67" d="M601.72,-242.442C597.077,-231.35 591.588,-218.237 586.875,-206.98"/>
<ellipse fill="none" stroke="#6e6f67" cx="603.343" cy="-246.319" rx="4.00002" ry="4.00002"/>
<polygon fill="#6e6f67" stroke="#6e6f67" points="586.837,-206.887 587.126,-195.925 584.906,-202.275 582.975,-197.663 582.975,-197.663 582.975,-197.663 584.906,-202.275 578.824,-199.401 586.837,-206.887 586.837,-206.887"/>
</g>
<!-- Service&#45;&gt;Parcel -->
<g id="edge30" class="edge"><title>Service&#45;&gt;Parcel</title>
<path fill="none" stroke="#939adf" d="M655.88,-261.436C692.181,-256.098 744.771,-246.657 789,-232 815.426,-223.243 843.802,-209.499 864.689,-198.485"/>
<ellipse fill="none" stroke="#939adf" cx="651.893" cy="-262.008" rx="4.00001" ry="4.00001"/>
<polygon fill="#939adf" stroke="#939adf" points="864.909,-198.366 875.849,-197.61 869.317,-196.005 873.724,-193.644 873.724,-193.644 873.724,-193.644 869.317,-196.005 871.599,-189.677 864.909,-198.366 864.909,-198.366"/>
</g>
<!-- ServiceTransition -->
<g id="node24" class="node"><title>ServiceTransition</title>
<ellipse fill="none" stroke="black" cx="447" cy="-180" rx="75.0904" ry="18"/>
<text text-anchor="middle" x="447" y="-176.3" font-family="Times,serif" font-size="14.00">ServiceTransition</text>
</g>
<!-- Service&#45;&gt;ServiceTransition -->
<g id="edge26" class="edge"><title>Service&#45;&gt;ServiceTransition</title>
<path fill="none" stroke="#721470" d="M580.413,-250.537C553.54,-236.53 514.832,-216.355 486.025,-201.34"/>
<ellipse fill="none" stroke="#721470" cx="584.107" cy="-252.462" rx="4.00002" ry="4.00002"/>
<polygon fill="#721470" stroke="#721470" points="485.916,-201.283 479.128,-192.671 481.482,-198.972 477.048,-196.661 477.048,-196.661 477.048,-196.661 481.482,-198.972 474.968,-200.652 485.916,-201.283 485.916,-201.283"/>
</g>
<!-- Service&#45;&gt;User -->
<g id="edge31" class="edge"><title>Service&#45;&gt;User</title>
<path fill="none" stroke="#258085" d="M658.711,-262.526C699.971,-257.574 755.869,-248.085 771,-232 776.938,-225.688 779.531,-216.869 780.46,-208.337"/>
<polygon fill="#258085" stroke="#258085" points="658.505,-262.549 648.057,-259.218 653.537,-263.119 648.57,-263.689 648.57,-263.689 648.57,-263.689 653.537,-263.119 649.082,-268.159 658.505,-262.549 658.505,-262.549"/>
<polygon fill="#258085" stroke="#258085" points="780.463,-208.252 785.376,-198.448 780.672,-203.256 780.88,-198.26 780.88,-198.26 780.88,-198.26 780.672,-203.256 776.384,-198.073 780.463,-208.252 780.463,-208.252"/>
</g>
<!-- Service&#45;&gt;PaperTrail::Version -->
<g id="edge32" class="edge"><title>Service&#45;&gt;PaperTrail::Version</title>
<path fill="none" stroke="#4b3a7a" d="M622.031,-242.416C635.269,-209.974 658.485,-153.08 672.129,-119.641"/>
<ellipse fill="none" stroke="#4b3a7a" cx="620.448" cy="-246.296" rx="4.00001" ry="4.00001"/>
<polygon fill="#4b3a7a" stroke="#4b3a7a" points="672.257,-119.329 680.201,-111.77 674.146,-114.699 676.035,-110.07 676.035,-110.07 676.035,-110.07 674.146,-114.699 671.868,-108.37 672.257,-119.329 672.257,-119.329"/>
<text text-anchor="middle" x="677.5" y="-176.3" font-family="Times,serif" font-size="14.00">versions</text>
</g>
<!-- ServiceTransition&#45;&gt;PaperTrail::Version -->
<g id="edge33" class="edge"><title>ServiceTransition&#45;&gt;PaperTrail::Version</title>
<path fill="none" stroke="#4e7b7a" d="M494.098,-161.837C534.325,-147.178 592.025,-126.152 633.051,-111.202"/>
<ellipse fill="none" stroke="#4e7b7a" cx="490.259" cy="-163.236" rx="4.00001" ry="4.00001"/>
<polygon fill="#4e7b7a" stroke="#4e7b7a" points="633.183,-111.154 644.12,-111.958 637.881,-109.442 642.579,-107.73 642.579,-107.73 642.579,-107.73 637.881,-109.442 641.038,-103.502 633.183,-111.154 633.183,-111.154"/>
<text text-anchor="middle" x="609.5" y="-132.3" font-family="Times,serif" font-size="14.00">versions</text>
</g>
<!-- ServicesUsers -->
<g id="node25" class="node"><title>ServicesUsers</title>
<ellipse fill="none" stroke="black" cx="1751" cy="-437" rx="62.0922" ry="18"/>
<text text-anchor="middle" x="1751" y="-433.3" font-family="Times,serif" font-size="14.00">ServicesUsers</text>
</g>
<!-- TitleAbstract&#45;&gt;DeedTitleAbstract -->
<g id="edge34" class="edge"><title>TitleAbstract&#45;&gt;DeedTitleAbstract</title>
<path fill="none" stroke="#100c04" d="M1137.69,-67.8034C1143.78,-60.2361 1150.58,-51.8009 1156.78,-44.1004"/>
<ellipse fill="none" stroke="#100c04" cx="1134.96" cy="-71.1858" rx="4.00002" ry="4.00002"/>
<polygon fill="#100c04" stroke="#100c04" points="1156.94,-43.8962 1166.72,-38.9316 1160.08,-40.0024 1163.22,-36.1086 1163.22,-36.1086 1163.22,-36.1086 1160.08,-40.0024 1159.71,-33.2856 1156.94,-43.8962 1156.94,-43.8962"/>
</g>
<!-- User&#45;&gt;PaperTrail::Version -->
<g id="edge35" class="edge"><title>User&#45;&gt;PaperTrail::Version</title>
<path fill="none" stroke="#ba31ad" d="M760.382,-158.09C751.524,-148.55 740.576,-137.327 730,-128 725.193,-123.761 719.905,-119.488 714.665,-115.455"/>
<ellipse fill="none" stroke="#ba31ad" cx="763.173" cy="-161.131" rx="4.00002" ry="4.00002"/>
<polygon fill="#ba31ad" stroke="#ba31ad" points="714.54,-115.362 709.248,-105.757 710.543,-112.358 706.545,-109.355 706.545,-109.355 706.545,-109.355 710.543,-112.358 703.842,-112.953 714.54,-115.362 714.54,-115.362"/>
<text text-anchor="middle" x="768.5" y="-132.3" font-family="Times,serif" font-size="14.00">versions</text>
</g>
<!-- User&#45;&gt;UserDocument -->
<g id="edge36" class="edge"><title>User&#45;&gt;UserDocument</title>
<path fill="none" stroke="#572f7b" d="M795.473,-156.992C804.129,-146.826 815.524,-135.397 828,-128 847.127,-116.66 870.01,-108.905 891.156,-103.641"/>
<ellipse fill="none" stroke="#572f7b" cx="792.731" cy="-160.339" rx="4.00002" ry="4.00002"/>
<polygon fill="#572f7b" stroke="#572f7b" points="891.314,-103.604 902.077,-105.704 896.182,-102.463 901.051,-101.323 901.051,-101.323 901.051,-101.323 896.182,-102.463 900.024,-96.9415 891.314,-103.604 891.314,-103.604"/>
</g>
</g>
</svg>
