<?xml version="1.0" encoding="UTF-8" standalone="no"?>
<!DOCTYPE svg PUBLIC "-//W3C//DTD SVG 1.1//EN"
 "http://www.w3.org/Graphics/SVG/1.1/DTD/svg11.dtd">
<!-- Generated by graphviz version 2.36.0 (20140111.2315)
 -->
<!-- Title: models_diagram Pages: 1 -->
<svg width="1026pt" height="446pt"
 viewBox="0.00 0.00 1026.00 446.00" xmlns="http://www.w3.org/2000/svg" xmlns:xlink="http://www.w3.org/1999/xlink">
<g id="graph0" class="graph" transform="scale(1 1) rotate(0) translate(4 442)">
<title>models_diagram</title>
<polygon fill="white" stroke="none" points="-4,4 -4,-442 1022,-442 1022,4 -4,4"/>
<!-- _diagram_info -->
<g id="node1" class="node"><title>_diagram_info</title>
<text text-anchor="start" x="8" y="-423.6" font-family="Times,serif" font-size="13.00">Models diagram</text>
<text text-anchor="start" x="8" y="-409.6" font-family="Times,serif" font-size="13.00">Date: Dec 30 2014 &#45; 23:13</text>
<text text-anchor="start" x="8" y="-395.6" font-family="Times,serif" font-size="13.00">Migration version: 20141231034655</text>
<text text-anchor="start" x="8" y="-381.6" font-family="Times,serif" font-size="13.00">Generated by RailRoady 1.2.0</text>
<text text-anchor="start" x="8" y="-367.6" font-family="Times,serif" font-size="13.00">http://railroady.prestonlee.com</text>
</g>
<!-- Client -->
<g id="node2" class="node"><title>Client</title>
<ellipse fill="none" stroke="black" cx="597" cy="-306" rx="33.2209" ry="18"/>
<text text-anchor="middle" x="597" y="-302.3" font-family="Times,serif" font-size="14.00">Client</text>
</g>
<!-- Service -->
<g id="node13" class="node"><title>Service</title>
<ellipse fill="none" stroke="black" cx="452" cy="-234" rx="37.5442" ry="18"/>
<text text-anchor="middle" x="452" y="-230.3" font-family="Times,serif" font-size="14.00">Service</text>
</g>
<!-- Client&#45;&gt;Service -->
<g id="edge1" class="edge"><title>Client&#45;&gt;Service</title>
<path fill="none" stroke="#0feff6" d="M563.87,-289.006C540.791,-277.865 510.072,-263.035 486.664,-251.734"/>
<polygon fill="#0feff6" stroke="#0feff6" points="564.051,-289.093 571.1,-297.493 568.553,-291.267 573.056,-293.441 573.056,-293.441 573.056,-293.441 568.553,-291.267 575.013,-289.388 564.051,-289.093 564.051,-289.093"/>
<polygon fill="#0feff6" stroke="#0feff6" points="486.449,-251.631 479.4,-243.231 481.947,-249.457 477.444,-247.283 477.444,-247.283 477.444,-247.283 481.947,-249.457 475.487,-251.336 486.449,-251.631 486.449,-251.631"/>
</g>
<!-- Company -->
<g id="node3" class="node"><title>Company</title>
<ellipse fill="none" stroke="black" cx="719" cy="-306" rx="46.2191" ry="18"/>
<text text-anchor="middle" x="719" y="-302.3" font-family="Times,serif" font-size="14.00">Company</text>
</g>
<!-- Flow -->
<g id="node6" class="node"><title>Flow</title>
<ellipse fill="none" stroke="black" cx="689" cy="-90" rx="29.3722" ry="18"/>
<text text-anchor="middle" x="689" y="-86.3" font-family="Times,serif" font-size="14.00">Flow</text>
</g>
<!-- Company&#45;&gt;Flow -->
<g id="edge4" class="edge"><title>Company&#45;&gt;Flow</title>
<path fill="none" stroke="#7e44d7" d="M716.305,-279.238C712.857,-247.39 706.434,-191.567 699,-144 697.678,-135.544 696.026,-126.369 694.447,-118.067"/>
<ellipse fill="none" stroke="#7e44d7" cx="716.771" cy="-283.581" rx="4" ry="4"/>
<polygon fill="#7e44d7" stroke="#7e44d7" points="694.425,-117.955 696.934,-107.28 693.471,-113.047 692.517,-108.138 692.517,-108.138 692.517,-108.138 693.471,-113.047 688.099,-108.997 694.425,-117.955 694.425,-117.955"/>
</g>
<!-- Company&#45;&gt;Service -->
<g id="edge3" class="edge"><title>Company&#45;&gt;Service</title>
<path fill="none" stroke="#e9e883" d="M673.876,-293.17C623.661,-280.005 543.156,-258.899 494.168,-246.055"/>
<ellipse fill="none" stroke="#e9e883" cx="678.006" cy="-294.252" rx="4.00001" ry="4.00001"/>
<polygon fill="#e9e883" stroke="#e9e883" points="493.888,-245.982 485.356,-239.093 489.051,-244.714 484.215,-243.446 484.215,-243.446 484.215,-243.446 489.051,-244.714 483.074,-247.799 493.888,-245.982 493.888,-245.982"/>
</g>
<!-- User -->
<g id="node16" class="node"><title>User</title>
<ellipse fill="none" stroke="black" cx="689" cy="-18" rx="27.4223" ry="18"/>
<text text-anchor="middle" x="689" y="-14.3" font-family="Times,serif" font-size="14.00">User</text>
</g>
<!-- Company&#45;&gt;User -->
<g id="edge2" class="edge"><title>Company&#45;&gt;User</title>
<path fill="none" stroke="#bac2cc" d="M725.255,-280.052C734.985,-236.571 750.341,-144.611 727,-72 723.482,-61.0544 716.775,-50.453 709.964,-41.6451"/>
<ellipse fill="none" stroke="#bac2cc" cx="724.298" cy="-284.185" rx="4.00001" ry="4.00001"/>
<polygon fill="#bac2cc" stroke="#bac2cc" points="709.858,-41.5168 706.976,-30.9366 706.68,-37.657 703.502,-33.7971 703.502,-33.7971 703.502,-33.7971 706.68,-37.657 700.028,-36.6576 709.858,-41.5168 709.858,-41.5168"/>
</g>
<!-- Contact -->
<g id="node4" class="node"><title>Contact</title>
<ellipse fill="none" stroke="black" cx="603" cy="-90" rx="38.4949" ry="18"/>
<text text-anchor="middle" x="603" y="-86.3" font-family="Times,serif" font-size="14.00">Contact</text>
</g>
<!-- Customer -->
<g id="node5" class="node"><title>Customer</title>
<ellipse fill="none" stroke="black" cx="696" cy="-399" rx="46.2191" ry="18"/>
<text text-anchor="middle" x="696" y="-395.3" font-family="Times,serif" font-size="14.00">Customer</text>
</g>
<!-- Customer&#45;&gt;Client -->
<g id="edge8" class="edge"><title>Customer&#45;&gt;Client</title>
<path fill="none" stroke="#54687b" d="M672.811,-376.685C657.171,-362.309 636.592,-343.392 620.821,-328.896"/>
<ellipse fill="none" stroke="#54687b" cx="675.811" cy="-379.442" rx="4.00002" ry="4.00002"/>
<polygon fill="#54687b" stroke="#54687b" points="620.427,-328.534 616.11,-318.453 616.745,-325.15 613.064,-321.766 613.064,-321.766 613.064,-321.766 616.745,-325.15 610.019,-325.079 620.427,-328.534 620.427,-328.534"/>
</g>
<!-- Customer&#45;&gt;Flow -->
<g id="edge7" class="edge"><title>Customer&#45;&gt;Flow</title>
<path fill="none" stroke="#136a6f" d="M726.509,-378.531C743.981,-365.472 764.306,-346.559 774,-324 780.317,-309.3 777.091,-303.699 774,-288 761.117,-222.579 724.692,-152.328 703.946,-115.988"/>
<ellipse fill="none" stroke="#136a6f" cx="722.978" cy="-381.077" rx="4.00002" ry="4.00002"/>
<polygon fill="#136a6f" stroke="#136a6f" points="703.801,-115.739 702.682,-104.83 701.295,-111.412 698.788,-107.086 698.788,-107.086 698.788,-107.086 701.295,-111.412 694.894,-109.342 703.801,-115.739 703.801,-115.739"/>
</g>
<!-- Customer&#45;&gt;Service -->
<g id="edge6" class="edge"><title>Customer&#45;&gt;Service</title>
<path fill="none" stroke="#5f2b8b" d="M659,-381.456C629.764,-367.715 588.454,-346.787 555,-324 525.514,-303.916 494.987,-276.57 474.899,-257.511"/>
<ellipse fill="none" stroke="#5f2b8b" cx="662.908" cy="-383.276" rx="4.00002" ry="4.00002"/>
<polygon fill="#5f2b8b" stroke="#5f2b8b" points="474.696,-257.317 470.593,-247.147 471.087,-253.856 467.479,-250.395 467.479,-250.395 467.479,-250.395 471.087,-253.856 464.364,-253.643 474.696,-257.317 474.696,-257.317"/>
</g>
<!-- Customer&#45;&gt;User -->
<g id="edge5" class="edge"><title>Customer&#45;&gt;User</title>
<path fill="none" stroke="#b668c1" d="M726.544,-378.851C746.245,-365.35 771.383,-345.834 789,-324 816.709,-289.659 833,-279.126 833,-235 833,-235 833,-235 833,-161 833,-98.3274 762.99,-54.0163 720.601,-32.931"/>
<ellipse fill="none" stroke="#b668c1" cx="723.144" cy="-381.137" rx="4.00002" ry="4.00002"/>
<polygon fill="#b668c1" stroke="#b668c1" points="720.51,-32.8869 713.453,-24.4934 716.005,-30.7173 711.5,-28.5477 711.5,-28.5477 711.5,-28.5477 716.005,-30.7173 709.547,-32.602 720.51,-32.8869 720.51,-32.8869"/>
</g>
<!-- Flow&#45;&gt;User -->
<g id="edge9" class="edge"><title>Flow&#45;&gt;User</title>
<path fill="none" stroke="#fa2baf" d="M689,-63.6398C689,-58.0629 689,-52.1319 689,-46.4761"/>
<ellipse fill="none" stroke="#fa2baf" cx="689" cy="-67.6966" rx="4" ry="4"/>
<polygon fill="#fa2baf" stroke="#fa2baf" points="689,-46.1043 693.5,-36.1043 689,-41.1043 689,-36.1043 689,-36.1043 689,-36.1043 689,-41.1043 684.5,-36.1044 689,-46.1043 689,-46.1043"/>
</g>
<!-- Lawfirm -->
<g id="node7" class="node"><title>Lawfirm</title>
<ellipse fill="none" stroke="black" cx="268" cy="-399" rx="42.3701" ry="18"/>
<text text-anchor="middle" x="268" y="-395.3" font-family="Times,serif" font-size="14.00">Lawfirm</text>
</g>
<!-- Lawfirm&#45;&gt;Flow -->
<g id="edge12" class="edge"><title>Lawfirm&#45;&gt;Flow</title>
<path fill="none" stroke="#90397f" d="M259.741,-373.094C244.675,-322.42 219.458,-206.813 279,-144 335.985,-83.8849 569.824,-128.806 650,-108 652.502,-107.351 655.049,-106.561 657.582,-105.682"/>
<ellipse fill="none" stroke="#90397f" cx="260.973" cy="-377.109" rx="4.00001" ry="4.00001"/>
<polygon fill="#90397f" stroke="#90397f" points="657.837,-105.582 668.789,-106.146 662.496,-103.768 667.155,-101.953 667.155,-101.953 667.155,-101.953 662.496,-103.768 665.522,-97.7595 657.837,-105.582 657.837,-105.582"/>
</g>
<!-- Lawyer -->
<g id="node8" class="node"><title>Lawyer</title>
<ellipse fill="none" stroke="black" cx="395" cy="-306" rx="38.0212" ry="18"/>
<text text-anchor="middle" x="395" y="-302.3" font-family="Times,serif" font-size="14.00">Lawyer</text>
</g>
<!-- Lawfirm&#45;&gt;Lawyer -->
<g id="edge13" class="edge"><title>Lawfirm&#45;&gt;Lawyer</title>
<path fill="none" stroke="#0f44b8" d="M295.431,-378.345C316.392,-363.325 345.198,-342.685 366.435,-327.468"/>
<ellipse fill="none" stroke="#0f44b8" cx="291.939" cy="-380.847" rx="4.00002" ry="4.00002"/>
<polygon fill="#0f44b8" stroke="#0f44b8" points="366.613,-327.34 377.363,-325.174 370.677,-324.428 374.742,-321.516 374.742,-321.516 374.742,-321.516 370.677,-324.428 372.12,-317.858 366.613,-327.34 366.613,-327.34"/>
</g>
<!-- Lawfirm&#45;&gt;Service -->
<g id="edge11" class="edge"><title>Lawfirm&#45;&gt;Service</title>
<path fill="none" stroke="#0f0a55" d="M280.847,-374.137C294.805,-349.973 319.03,-312.733 348,-288 367.38,-271.455 392.812,-258.376 413.676,-249.351"/>
<ellipse fill="none" stroke="#0f0a55" cx="278.824" cy="-377.708" rx="4.00002" ry="4.00002"/>
<polygon fill="#0f0a55" stroke="#0f0a55" points="413.678,-249.35 424.64,-249.642 418.29,-247.421 422.903,-245.491 422.903,-245.491 422.903,-245.491 418.29,-247.421 421.166,-241.34 413.678,-249.35 413.678,-249.35"/>
</g>
<!-- Lawfirm&#45;&gt;User -->
<g id="edge10" class="edge"><title>Lawfirm&#45;&gt;User</title>
<path fill="none" stroke="#46e5b0" d="M242.366,-377.693C209.863,-349.461 158,-295.011 158,-235 158,-235 158,-235 158,-161 158,-58.7583 530.039,-28.187 651.293,-20.9384"/>
<ellipse fill="none" stroke="#46e5b0" cx="245.54" cy="-380.392" rx="4.00002" ry="4.00002"/>
<polygon fill="#46e5b0" stroke="#46e5b0" points="651.586,-20.9216 661.829,-24.837 656.578,-20.633 661.569,-20.3445 661.569,-20.3445 661.569,-20.3445 656.578,-20.633 661.31,-15.852 651.586,-20.9216 651.586,-20.9216"/>
</g>
<!-- Lawyer&#45;&gt;Service -->
<g id="edge14" class="edge"><title>Lawyer&#45;&gt;Service</title>
<path fill="none" stroke="#11419d" d="M414.634,-280.889C420.384,-273.827 426.669,-266.108 432.416,-259.05"/>
<polygon fill="#11419d" stroke="#11419d" points="414.535,-281.01 404.731,-285.923 411.377,-284.887 408.22,-288.765 408.22,-288.765 408.22,-288.765 411.377,-284.887 411.71,-291.606 414.535,-281.01 414.535,-281.01"/>
<polygon fill="#11419d" stroke="#11419d" points="432.537,-258.902 442.341,-253.989 435.694,-255.024 438.851,-251.147 438.851,-251.147 438.851,-251.147 435.694,-255.024 435.362,-248.306 432.537,-258.902 432.537,-258.902"/>
</g>
<!-- Lease -->
<g id="node9" class="node"><title>Lease</title>
<ellipse fill="none" stroke="black" cx="659" cy="-162" rx="31.2735" ry="18"/>
<text text-anchor="middle" x="659" y="-158.3" font-family="Times,serif" font-size="14.00">Lease</text>
</g>
<!-- Lease&#45;&gt;Contact -->
<g id="edge15" class="edge"><title>Lease&#45;&gt;Contact</title>
<path fill="none" stroke="#f5634d" d="M641.438,-139.047C635.437,-131.547 628.691,-123.114 622.544,-115.43"/>
<ellipse fill="none" stroke="#f5634d" cx="644.073" cy="-142.341" rx="4.00002" ry="4.00002"/>
<polygon fill="#f5634d" stroke="#f5634d" points="622.421,-115.276 619.688,-104.656 619.297,-111.372 616.174,-107.467 616.174,-107.467 616.174,-107.467 619.297,-111.372 612.66,-110.278 622.421,-115.276 622.421,-115.276"/>
</g>
<!-- Lease&#45;&gt;Flow -->
<g id="edge16" class="edge"><title>Lease&#45;&gt;Flow</title>
<path fill="none" stroke="#4c6dbd" d="M669.307,-136.95C672.106,-130.418 675.148,-123.322 677.984,-116.703"/>
<ellipse fill="none" stroke="#4c6dbd" cx="667.685" cy="-140.734" rx="4.00002" ry="4.00002"/>
<polygon fill="#4c6dbd" stroke="#4c6dbd" points="678.002,-116.661 686.078,-109.243 679.972,-112.066 681.941,-107.47 681.941,-107.47 681.941,-107.47 679.972,-112.066 677.805,-105.697 678.002,-116.661 678.002,-116.661"/>
</g>
<!-- Lessee -->
<g id="node10" class="node"><title>Lessee</title>
<ellipse fill="none" stroke="black" cx="573" cy="-162" rx="35.6194" ry="18"/>
<text text-anchor="middle" x="573" y="-158.3" font-family="Times,serif" font-size="14.00">Lessee</text>
</g>
<!-- Parcel -->
<g id="node11" class="node"><title>Parcel</title>
<ellipse fill="none" stroke="black" cx="333" cy="-162" rx="33.2209" ry="18"/>
<text text-anchor="middle" x="333" y="-158.3" font-family="Times,serif" font-size="14.00">Parcel</text>
</g>
<!-- RequestStateMachine -->
<g id="node12" class="node"><title>RequestStateMachine</title>
<polygon fill="none" stroke="black" points="899.25,-417 760.75,-417 760.75,-381 899.25,-381 899.25,-417"/>
<text text-anchor="middle" x="830" y="-395.3" font-family="Times,serif" font-size="14.00">RequestStateMachine</text>
</g>
<!-- Service&#45;&gt;Flow -->
<g id="edge17" class="edge"><title>Service&#45;&gt;Flow</title>
<path fill="none" stroke="#29ba83" d="M409.115,-225.689C349.255,-213.745 252.117,-186.977 291,-144 344.792,-84.5445 572.425,-128.264 650,-108 652.501,-107.347 655.048,-106.554 657.58,-105.673"/>
<ellipse fill="none" stroke="#29ba83" cx="413.369" cy="-226.514" rx="4.00001" ry="4.00001"/>
<polygon fill="#29ba83" stroke="#29ba83" points="657.836,-105.573 668.787,-106.132 662.494,-103.756 667.152,-101.94 667.152,-101.94 667.152,-101.94 662.494,-103.756 665.517,-97.7471 657.836,-105.573 657.836,-105.573"/>
</g>
<!-- Service&#45;&gt;Lease -->
<g id="edge19" class="edge"><title>Service&#45;&gt;Lease</title>
<path fill="none" stroke="#08b430" d="M490.703,-221.453C524.315,-211.214 574.184,-195.518 617,-180 619.547,-179.077 622.169,-178.095 624.799,-177.086"/>
<ellipse fill="none" stroke="#08b430" cx="486.772" cy="-222.645" rx="4.00001" ry="4.00001"/>
<polygon fill="#08b430" stroke="#08b430" points="624.936,-177.032 635.89,-177.562 629.59,-175.203 634.243,-173.373 634.243,-173.373 634.243,-173.373 629.59,-175.203 632.597,-169.185 624.936,-177.032 624.936,-177.032"/>
</g>
<!-- Service&#45;&gt;Lessee -->
<g id="edge18" class="edge"><title>Service&#45;&gt;Lessee</title>
<path fill="none" stroke="#636ffc" d="M482.227,-215.513C500.333,-205.039 523.311,-191.746 541.618,-181.155"/>
<ellipse fill="none" stroke="#636ffc" cx="478.506" cy="-217.666" rx="4.00002" ry="4.00002"/>
<polygon fill="#636ffc" stroke="#636ffc" points="541.796,-181.052 552.705,-179.94 546.123,-178.548 550.451,-176.045 550.451,-176.045 550.451,-176.045 546.123,-178.548 548.198,-172.149 541.796,-181.052 541.796,-181.052"/>
</g>
<!-- Service&#45;&gt;Parcel -->
<g id="edge20" class="edge"><title>Service&#45;&gt;Parcel</title>
<path fill="none" stroke="#c9cd7b" d="M422.226,-215.486C404.38,-204.988 381.734,-191.667 363.722,-181.072"/>
<ellipse fill="none" stroke="#c9cd7b" cx="425.889" cy="-217.641" rx="4.00002" ry="4.00002"/>
<polygon fill="#c9cd7b" stroke="#c9cd7b" points="363.395,-180.879 357.057,-171.93 359.085,-178.344 354.776,-175.809 354.776,-175.809 354.776,-175.809 359.085,-178.344 352.494,-179.688 363.395,-180.879 363.395,-180.879"/>
</g>
<!-- ServiceRequest -->
<g id="node15" class="node"><title>ServiceRequest</title>
<ellipse fill="none" stroke="black" cx="452" cy="-162" rx="67.3907" ry="18"/>
<text text-anchor="middle" x="452" y="-158.3" font-family="Times,serif" font-size="14.00">ServiceRequest</text>
</g>
<!-- Service&#45;&gt;ServiceRequest -->
<g id="edge21" class="edge"><title>Service&#45;&gt;ServiceRequest</title>
<path fill="none" stroke="#a3dffa" d="M452,-207.64C452,-202.063 452,-196.132 452,-190.476"/>
<ellipse fill="none" stroke="#a3dffa" cx="452" cy="-211.697" rx="4" ry="4"/>
<polygon fill="#a3dffa" stroke="#a3dffa" points="452,-190.104 456.5,-180.104 452,-185.104 452,-180.104 452,-180.104 452,-180.104 452,-185.104 447.5,-180.104 452,-190.104 452,-190.104"/>
</g>
<!-- Service&#45;&gt;User -->
<g id="edge22" class="edge"><title>Service&#45;&gt;User</title>
<path fill="none" stroke="#fef49c" d="M406.218,-227.119C343.552,-217.131 242.726,-192.981 279,-144 324.469,-82.6025 560.773,-39.2787 652.524,-24.5354"/>
<polygon fill="#fef49c" stroke="#fef49c" points="406.413,-227.149 415.62,-233.106 411.356,-227.903 416.299,-228.658 416.299,-228.658 416.299,-228.658 411.356,-227.903 416.978,-224.209 406.413,-227.149 406.413,-227.149"/>
<polygon fill="#fef49c" stroke="#fef49c" points="652.592,-24.5247 663.173,-27.4033 657.53,-23.7417 662.469,-22.9588 662.469,-22.9588 662.469,-22.9588 657.53,-23.7417 661.764,-18.5143 652.592,-24.5247 652.592,-24.5247"/>
</g>
<!-- ServiceCreator -->
<g id="node14" class="node"><title>ServiceCreator</title>
<polygon fill="none" stroke="black" points="1018,-417 918,-417 918,-381 1018,-381 1018,-417"/>
<text text-anchor="middle" x="968" y="-395.3" font-family="Times,serif" font-size="14.00">ServiceCreator</text>
</g>
</g>
</svg>
