<?xml version="1.0" encoding="UTF-8" standalone="no"?>
<!DOCTYPE svg PUBLIC "-//W3C//DTD SVG 1.1//EN"
 "http://www.w3.org/Graphics/SVG/1.1/DTD/svg11.dtd">
<!-- Generated by graphviz version 2.36.0 (20140111.2315)
 -->
<!-- Title: models_diagram Pages: 1 -->
<svg width="1132pt" height="2144pt"
 viewBox="0.00 0.00 1132.00 2144.00" xmlns="http://www.w3.org/2000/svg" xmlns:xlink="http://www.w3.org/1999/xlink">
<g id="graph0" class="graph" transform="scale(1 1) rotate(0) translate(4 2140)">
<title>models_diagram</title>
<polygon fill="white" stroke="none" points="-4,4 -4,-2140 1128,-2140 1128,4 -4,4"/>
<!-- _diagram_info -->
<g id="node1" class="node"><title>_diagram_info</title>
<text text-anchor="start" x="8" y="-2054.6" font-family="Times,serif" font-size="13.00">Models diagram</text>
<text text-anchor="start" x="8" y="-2040.6" font-family="Times,serif" font-size="13.00">Date: Jan 11 2015 &#45; 21:27</text>
<text text-anchor="start" x="8" y="-2026.6" font-family="Times,serif" font-size="13.00">Migration version: 20150111233500</text>
<text text-anchor="start" x="8" y="-2012.6" font-family="Times,serif" font-size="13.00">Generated by RailRoady 1.2.0</text>
<text text-anchor="start" x="8" y="-1998.6" font-family="Times,serif" font-size="13.00">http://railroady.prestonlee.com</text>
</g>
<!-- Client -->
<g id="node2" class="node"><title>Client</title>
<path fill="none" stroke="black" d="M140.5,-1464.5C140.5,-1464.5 321.5,-1464.5 321.5,-1464.5 327.5,-1464.5 333.5,-1470.5 333.5,-1476.5 333.5,-1476.5 333.5,-1873.5 333.5,-1873.5 333.5,-1879.5 327.5,-1885.5 321.5,-1885.5 321.5,-1885.5 140.5,-1885.5 140.5,-1885.5 134.5,-1885.5 128.5,-1879.5 128.5,-1873.5 128.5,-1873.5 128.5,-1476.5 128.5,-1476.5 128.5,-1470.5 134.5,-1464.5 140.5,-1464.5"/>
<text text-anchor="middle" x="231" y="-1870.3" font-family="Times,serif" font-size="14.00">Client</text>
<polyline fill="none" stroke="black" points="128.5,-1862.5 333.5,-1862.5 "/>
<text text-anchor="start" x="136.5" y="-1847.3" font-family="Times,serif" font-size="14.00">id :integer</text>
<text text-anchor="start" x="136.5" y="-1832.3" font-family="Times,serif" font-size="14.00">email :string</text>
<text text-anchor="start" x="136.5" y="-1817.3" font-family="Times,serif" font-size="14.00">encrypted_password :string</text>
<text text-anchor="start" x="136.5" y="-1802.3" font-family="Times,serif" font-size="14.00">reset_password_token :string</text>
<text text-anchor="start" x="136.5" y="-1787.3" font-family="Times,serif" font-size="14.00">reset_password_sent_at :datetime</text>
<text text-anchor="start" x="136.5" y="-1772.3" font-family="Times,serif" font-size="14.00">remember_created_at :datetime</text>
<text text-anchor="start" x="136.5" y="-1757.3" font-family="Times,serif" font-size="14.00">sign_in_count :integer</text>
<text text-anchor="start" x="136.5" y="-1742.3" font-family="Times,serif" font-size="14.00">current_sign_in_at :datetime</text>
<text text-anchor="start" x="136.5" y="-1727.3" font-family="Times,serif" font-size="14.00">last_sign_in_at :datetime</text>
<text text-anchor="start" x="136.5" y="-1712.3" font-family="Times,serif" font-size="14.00">current_sign_in_ip :string</text>
<text text-anchor="start" x="136.5" y="-1697.3" font-family="Times,serif" font-size="14.00">last_sign_in_ip :string</text>
<text text-anchor="start" x="136.5" y="-1682.3" font-family="Times,serif" font-size="14.00">created_at :datetime</text>
<text text-anchor="start" x="136.5" y="-1667.3" font-family="Times,serif" font-size="14.00">updated_at :datetime</text>
<text text-anchor="start" x="136.5" y="-1652.3" font-family="Times,serif" font-size="14.00">role :integer</text>
<text text-anchor="start" x="136.5" y="-1637.3" font-family="Times,serif" font-size="14.00">confirmation_token :string</text>
<text text-anchor="start" x="136.5" y="-1622.3" font-family="Times,serif" font-size="14.00">confirmed_at :datetime</text>
<text text-anchor="start" x="136.5" y="-1607.3" font-family="Times,serif" font-size="14.00">confirmation_sent_at :datetime</text>
<text text-anchor="start" x="136.5" y="-1592.3" font-family="Times,serif" font-size="14.00">unconfirmed_email :string</text>
<text text-anchor="start" x="136.5" y="-1577.3" font-family="Times,serif" font-size="14.00">name :string</text>
<text text-anchor="start" x="136.5" y="-1562.3" font-family="Times,serif" font-size="14.00">first_name :string</text>
<text text-anchor="start" x="136.5" y="-1547.3" font-family="Times,serif" font-size="14.00">last_name :string</text>
<text text-anchor="start" x="136.5" y="-1532.3" font-family="Times,serif" font-size="14.00">phone :string</text>
<text text-anchor="start" x="136.5" y="-1517.3" font-family="Times,serif" font-size="14.00">type :string</text>
<text text-anchor="start" x="136.5" y="-1502.3" font-family="Times,serif" font-size="14.00">service_id :integer</text>
<text text-anchor="start" x="136.5" y="-1487.3" font-family="Times,serif" font-size="14.00">company_id :integer</text>
<text text-anchor="start" x="136.5" y="-1472.3" font-family="Times,serif" font-size="14.00">lawfirm_id :integer</text>
</g>
<!-- Service -->
<g id="node12" class="node"><title>Service</title>
<path fill="none" stroke="black" d="M500,-1169C500,-1169 630,-1169 630,-1169 636,-1169 642,-1175 642,-1181 642,-1181 642,-1413 642,-1413 642,-1419 636,-1425 630,-1425 630,-1425 500,-1425 500,-1425 494,-1425 488,-1419 488,-1413 488,-1413 488,-1181 488,-1181 488,-1175 494,-1169 500,-1169"/>
<text text-anchor="middle" x="565" y="-1409.8" font-family="Times,serif" font-size="14.00">Service</text>
<polyline fill="none" stroke="black" points="488,-1402 642,-1402 "/>
<text text-anchor="start" x="496" y="-1386.8" font-family="Times,serif" font-size="14.00">id :integer</text>
<text text-anchor="start" x="496" y="-1371.8" font-family="Times,serif" font-size="14.00">county :string</text>
<text text-anchor="start" x="496" y="-1356.8" font-family="Times,serif" font-size="14.00">start_date :date</text>
<text text-anchor="start" x="496" y="-1341.8" font-family="Times,serif" font-size="14.00">end_date :date</text>
<text text-anchor="start" x="496" y="-1326.8" font-family="Times,serif" font-size="14.00">requested_delivery :date</text>
<text text-anchor="start" x="496" y="-1311.8" font-family="Times,serif" font-size="14.00">lease_file :string</text>
<text text-anchor="start" x="496" y="-1296.8" font-family="Times,serif" font-size="14.00">created_at :datetime</text>
<text text-anchor="start" x="496" y="-1281.8" font-family="Times,serif" font-size="14.00">updated_at :datetime</text>
<text text-anchor="start" x="496" y="-1266.8" font-family="Times,serif" font-size="14.00">lease_id :integer</text>
<text text-anchor="start" x="496" y="-1251.8" font-family="Times,serif" font-size="14.00">lessee_id :integer</text>
<text text-anchor="start" x="496" y="-1236.8" font-family="Times,serif" font-size="14.00">flow_id :integer</text>
<text text-anchor="start" x="496" y="-1221.8" font-family="Times,serif" font-size="14.00">lease_number :string</text>
<text text-anchor="start" x="496" y="-1206.8" font-family="Times,serif" font-size="14.00">state :string</text>
<text text-anchor="start" x="496" y="-1191.8" font-family="Times,serif" font-size="14.00">description :string</text>
<text text-anchor="start" x="496" y="-1176.8" font-family="Times,serif" font-size="14.00">parcel_id :integer</text>
</g>
<!-- Client&#45;&gt;Service -->
<g id="edge2" class="edge"><title>Client&#45;&gt;Service</title>
<path fill="none" stroke="#53f6a2" d="M338.668,-1512.36C356.577,-1488.69 375.648,-1465.18 395,-1444 420.666,-1415.91 451.534,-1387.97 479.883,-1364.17"/>
<ellipse fill="none" stroke="#53f6a2" cx="336.052" cy="-1515.84" rx="4.00002" ry="4.00002"/>
<polygon fill="#53f6a2" stroke="#53f6a2" points="480.122,-1363.97 490.686,-1361.03 483.964,-1360.77 487.806,-1357.57 487.806,-1357.57 487.806,-1357.57 483.964,-1360.77 484.925,-1354.11 480.122,-1363.97 480.122,-1363.97"/>
</g>
<!-- PaperTrail::Version -->
<g id="node16" class="node"><title>PaperTrail::Version</title>
<ellipse fill="none" stroke="black" cx="920" cy="-18" rx="83.2892" ry="18"/>
<text text-anchor="middle" x="920" y="-14.3" font-family="Times,serif" font-size="14.00">PaperTrail::Version</text>
</g>
<!-- Client&#45;&gt;PaperTrail::Version -->
<g id="edge1" class="edge"><title>Client&#45;&gt;PaperTrail::Version</title>
<path fill="none" stroke="#60a361" d="M255.072,-1456.16C259.099,-1404.39 262,-1349.29 262,-1298 262,-1298 262,-1298 262,-298 262,-197.804 264.777,-149.343 344,-88 417.344,-31.2094 683.362,-20.4212 826.804,-18.8369"/>
<ellipse fill="none" stroke="#60a361" cx="254.732" cy="-1460.45" rx="4" ry="4"/>
<polygon fill="#60a361" stroke="#60a361" points="826.916,-18.8359 836.96,-23.238 831.916,-18.787 836.916,-18.7382 836.916,-18.7382 836.916,-18.7382 831.916,-18.787 836.872,-14.2384 826.916,-18.8359 826.916,-18.8359"/>
<text text-anchor="middle" x="285.5" y="-797.3" font-family="Times,serif" font-size="14.00">versions</text>
</g>
<!-- Company -->
<g id="node3" class="node"><title>Company</title>
<path fill="none" stroke="black" d="M238.5,-1924.5C238.5,-1924.5 355.5,-1924.5 355.5,-1924.5 361.5,-1924.5 367.5,-1930.5 367.5,-1936.5 367.5,-1936.5 367.5,-2123.5 367.5,-2123.5 367.5,-2129.5 361.5,-2135.5 355.5,-2135.5 355.5,-2135.5 238.5,-2135.5 238.5,-2135.5 232.5,-2135.5 226.5,-2129.5 226.5,-2123.5 226.5,-2123.5 226.5,-1936.5 226.5,-1936.5 226.5,-1930.5 232.5,-1924.5 238.5,-1924.5"/>
<text text-anchor="middle" x="297" y="-2120.3" font-family="Times,serif" font-size="14.00">Company</text>
<polyline fill="none" stroke="black" points="226.5,-2112.5 367.5,-2112.5 "/>
<text text-anchor="start" x="234.5" y="-2097.3" font-family="Times,serif" font-size="14.00">id :integer</text>
<text text-anchor="start" x="234.5" y="-2082.3" font-family="Times,serif" font-size="14.00">name :string</text>
<text text-anchor="start" x="234.5" y="-2067.3" font-family="Times,serif" font-size="14.00">billing_address :string</text>
<text text-anchor="start" x="234.5" y="-2052.3" font-family="Times,serif" font-size="14.00">billing_contact :string</text>
<text text-anchor="start" x="234.5" y="-2037.3" font-family="Times,serif" font-size="14.00">city :string</text>
<text text-anchor="start" x="234.5" y="-2022.3" font-family="Times,serif" font-size="14.00">state :string</text>
<text text-anchor="start" x="234.5" y="-2007.3" font-family="Times,serif" font-size="14.00">zip :string</text>
<text text-anchor="start" x="234.5" y="-1992.3" font-family="Times,serif" font-size="14.00">phone :string</text>
<text text-anchor="start" x="234.5" y="-1977.3" font-family="Times,serif" font-size="14.00">email :string</text>
<text text-anchor="start" x="234.5" y="-1962.3" font-family="Times,serif" font-size="14.00">created_at :datetime</text>
<text text-anchor="start" x="234.5" y="-1947.3" font-family="Times,serif" font-size="14.00">updated_at :datetime</text>
<text text-anchor="start" x="234.5" y="-1932.3" font-family="Times,serif" font-size="14.00">type :string</text>
</g>
<!-- Company&#45;&gt;Client -->
<g id="edge4" class="edge"><title>Company&#45;&gt;Client</title>
<path fill="none" stroke="#fe1397" d="M275.854,-1915.9C274.624,-1909.32 273.37,-1902.61 272.098,-1895.81"/>
<ellipse fill="none" stroke="#fe1397" cx="276.641" cy="-1920.11" rx="4.00001" ry="4.00001"/>
<polygon fill="#fe1397" stroke="#fe1397" points="272.062,-1895.62 274.647,-1884.96 271.143,-1890.7 270.224,-1885.79 270.224,-1885.79 270.224,-1885.79 271.143,-1890.7 265.8,-1886.62 272.062,-1895.62 272.062,-1895.62"/>
</g>
<!-- Flow -->
<g id="node5" class="node"><title>Flow</title>
<path fill="none" stroke="black" d="M472,-562.5C472,-562.5 582,-562.5 582,-562.5 588,-562.5 594,-568.5 594,-574.5 594,-574.5 594,-701.5 594,-701.5 594,-707.5 588,-713.5 582,-713.5 582,-713.5 472,-713.5 472,-713.5 466,-713.5 460,-707.5 460,-701.5 460,-701.5 460,-574.5 460,-574.5 460,-568.5 466,-562.5 472,-562.5"/>
<text text-anchor="middle" x="527" y="-698.3" font-family="Times,serif" font-size="14.00">Flow</text>
<polyline fill="none" stroke="black" points="460,-690.5 594,-690.5 "/>
<text text-anchor="start" x="468" y="-675.3" font-family="Times,serif" font-size="14.00">id :integer</text>
<text text-anchor="start" x="468" y="-660.3" font-family="Times,serif" font-size="14.00">flow_type :string</text>
<text text-anchor="start" x="468" y="-645.3" font-family="Times,serif" font-size="14.00">assignee :string</text>
<text text-anchor="start" x="468" y="-630.3" font-family="Times,serif" font-size="14.00">received_at :date</text>
<text text-anchor="start" x="468" y="-615.3" font-family="Times,serif" font-size="14.00">completed_at :date</text>
<text text-anchor="start" x="468" y="-600.3" font-family="Times,serif" font-size="14.00">created_at :datetime</text>
<text text-anchor="start" x="468" y="-585.3" font-family="Times,serif" font-size="14.00">updated_at :datetime</text>
<text text-anchor="start" x="468" y="-570.3" font-family="Times,serif" font-size="14.00">service_id :integer</text>
</g>
<!-- Company&#45;&gt;Flow -->
<g id="edge6" class="edge"><title>Company&#45;&gt;Flow</title>
<path fill="none" stroke="#abb7ea" d="M334.785,-1916.42C337.497,-1906.2 339.961,-1895.96 342,-1886 445.483,-1380.79 283.687,-1215.52 463,-732 464.142,-728.922 465.408,-725.848 466.777,-722.792"/>
<ellipse fill="none" stroke="#abb7ea" cx="333.714" cy="-1920.36" rx="4.00001" ry="4.00001"/>
<polygon fill="#abb7ea" stroke="#abb7ea" points="466.825,-722.693 475.227,-715.645 469,-718.19 471.175,-713.688 471.175,-713.688 471.175,-713.688 469,-718.19 467.123,-711.731 466.825,-722.693 466.825,-722.693"/>
</g>
<!-- Company&#45;&gt;Service -->
<g id="edge5" class="edge"><title>Company&#45;&gt;Service</title>
<path fill="none" stroke="#e590be" d="M370.537,-1917.19C372.441,-1913.45 374.269,-1909.71 376,-1906 448.292,-1750.9 502.265,-1561.05 533.64,-1435.19"/>
<ellipse fill="none" stroke="#e590be" cx="368.636" cy="-1920.83" rx="4.00002" ry="4.00002"/>
<polygon fill="#e590be" stroke="#e590be" points="533.733,-1434.82 540.507,-1426.19 534.936,-1429.96 536.139,-1425.11 536.139,-1425.11 536.139,-1425.11 534.936,-1429.96 531.771,-1424.03 533.733,-1434.82 533.733,-1434.82"/>
</g>
<!-- User -->
<g id="node15" class="node"><title>User</title>
<path fill="none" stroke="black" d="M365.5,-88.5C365.5,-88.5 546.5,-88.5 546.5,-88.5 552.5,-88.5 558.5,-94.5 558.5,-100.5 558.5,-100.5 558.5,-497.5 558.5,-497.5 558.5,-503.5 552.5,-509.5 546.5,-509.5 546.5,-509.5 365.5,-509.5 365.5,-509.5 359.5,-509.5 353.5,-503.5 353.5,-497.5 353.5,-497.5 353.5,-100.5 353.5,-100.5 353.5,-94.5 359.5,-88.5 365.5,-88.5"/>
<text text-anchor="middle" x="456" y="-494.3" font-family="Times,serif" font-size="14.00">User</text>
<polyline fill="none" stroke="black" points="353.5,-486.5 558.5,-486.5 "/>
<text text-anchor="start" x="361.5" y="-471.3" font-family="Times,serif" font-size="14.00">id :integer</text>
<text text-anchor="start" x="361.5" y="-456.3" font-family="Times,serif" font-size="14.00">email :string</text>
<text text-anchor="start" x="361.5" y="-441.3" font-family="Times,serif" font-size="14.00">encrypted_password :string</text>
<text text-anchor="start" x="361.5" y="-426.3" font-family="Times,serif" font-size="14.00">reset_password_token :string</text>
<text text-anchor="start" x="361.5" y="-411.3" font-family="Times,serif" font-size="14.00">reset_password_sent_at :datetime</text>
<text text-anchor="start" x="361.5" y="-396.3" font-family="Times,serif" font-size="14.00">remember_created_at :datetime</text>
<text text-anchor="start" x="361.5" y="-381.3" font-family="Times,serif" font-size="14.00">sign_in_count :integer</text>
<text text-anchor="start" x="361.5" y="-366.3" font-family="Times,serif" font-size="14.00">current_sign_in_at :datetime</text>
<text text-anchor="start" x="361.5" y="-351.3" font-family="Times,serif" font-size="14.00">last_sign_in_at :datetime</text>
<text text-anchor="start" x="361.5" y="-336.3" font-family="Times,serif" font-size="14.00">current_sign_in_ip :string</text>
<text text-anchor="start" x="361.5" y="-321.3" font-family="Times,serif" font-size="14.00">last_sign_in_ip :string</text>
<text text-anchor="start" x="361.5" y="-306.3" font-family="Times,serif" font-size="14.00">created_at :datetime</text>
<text text-anchor="start" x="361.5" y="-291.3" font-family="Times,serif" font-size="14.00">updated_at :datetime</text>
<text text-anchor="start" x="361.5" y="-276.3" font-family="Times,serif" font-size="14.00">role :integer</text>
<text text-anchor="start" x="361.5" y="-261.3" font-family="Times,serif" font-size="14.00">confirmation_token :string</text>
<text text-anchor="start" x="361.5" y="-246.3" font-family="Times,serif" font-size="14.00">confirmed_at :datetime</text>
<text text-anchor="start" x="361.5" y="-231.3" font-family="Times,serif" font-size="14.00">confirmation_sent_at :datetime</text>
<text text-anchor="start" x="361.5" y="-216.3" font-family="Times,serif" font-size="14.00">unconfirmed_email :string</text>
<text text-anchor="start" x="361.5" y="-201.3" font-family="Times,serif" font-size="14.00">name :string</text>
<text text-anchor="start" x="361.5" y="-186.3" font-family="Times,serif" font-size="14.00">first_name :string</text>
<text text-anchor="start" x="361.5" y="-171.3" font-family="Times,serif" font-size="14.00">last_name :string</text>
<text text-anchor="start" x="361.5" y="-156.3" font-family="Times,serif" font-size="14.00">phone :string</text>
<text text-anchor="start" x="361.5" y="-141.3" font-family="Times,serif" font-size="14.00">type :string</text>
<text text-anchor="start" x="361.5" y="-126.3" font-family="Times,serif" font-size="14.00">service_id :integer</text>
<text text-anchor="start" x="361.5" y="-111.3" font-family="Times,serif" font-size="14.00">company_id :integer</text>
<text text-anchor="start" x="361.5" y="-96.3" font-family="Times,serif" font-size="14.00">lawfirm_id :integer</text>
</g>
<!-- Company&#45;&gt;User -->
<g id="edge3" class="edge"><title>Company&#45;&gt;User</title>
<path fill="none" stroke="#c10473" d="M220.282,-1926.54C219.196,-1925.68 218.102,-1924.83 217,-1924 179.665,-1895.92 147.106,-1923.31 119,-1886 62.617,-1811.14 100,-1769.71 100,-1676 100,-1676 100,-1676 100,-637 100,-500.552 239.632,-402.834 343.999,-348.852"/>
<ellipse fill="none" stroke="#c10473" cx="223.351" cy="-1929.11" rx="4.00002" ry="4.00002"/>
<polygon fill="#c10473" stroke="#c10473" points="344.123,-348.788 355.075,-348.251 348.576,-346.516 353.03,-344.243 353.03,-344.243 353.03,-344.243 348.576,-346.516 350.985,-340.235 344.123,-348.788 344.123,-348.788"/>
</g>
<!-- Contact -->
<g id="node4" class="node"><title>Contact</title>
<path fill="none" stroke="black" d="M629,-1939.5C629,-1939.5 739,-1939.5 739,-1939.5 745,-1939.5 751,-1945.5 751,-1951.5 751,-1951.5 751,-2108.5 751,-2108.5 751,-2114.5 745,-2120.5 739,-2120.5 739,-2120.5 629,-2120.5 629,-2120.5 623,-2120.5 617,-2114.5 617,-2108.5 617,-2108.5 617,-1951.5 617,-1951.5 617,-1945.5 623,-1939.5 629,-1939.5"/>
<text text-anchor="middle" x="684" y="-2105.3" font-family="Times,serif" font-size="14.00">Contact</text>
<polyline fill="none" stroke="black" points="617,-2097.5 751,-2097.5 "/>
<text text-anchor="start" x="625" y="-2082.3" font-family="Times,serif" font-size="14.00">id :integer</text>
<text text-anchor="start" x="625" y="-2067.3" font-family="Times,serif" font-size="14.00">name :string</text>
<text text-anchor="start" x="625" y="-2052.3" font-family="Times,serif" font-size="14.00">address :string</text>
<text text-anchor="start" x="625" y="-2037.3" font-family="Times,serif" font-size="14.00">city :string</text>
<text text-anchor="start" x="625" y="-2022.3" font-family="Times,serif" font-size="14.00">state :string</text>
<text text-anchor="start" x="625" y="-2007.3" font-family="Times,serif" font-size="14.00">zip :string</text>
<text text-anchor="start" x="625" y="-1992.3" font-family="Times,serif" font-size="14.00">phone :string</text>
<text text-anchor="start" x="625" y="-1977.3" font-family="Times,serif" font-size="14.00">email :string</text>
<text text-anchor="start" x="625" y="-1962.3" font-family="Times,serif" font-size="14.00">created_at :datetime</text>
<text text-anchor="start" x="625" y="-1947.3" font-family="Times,serif" font-size="14.00">updated_at :datetime</text>
</g>
<!-- Flow&#45;&gt;User -->
<g id="edge7" class="edge"><title>Flow&#45;&gt;User</title>
<path fill="none" stroke="#c441cc" d="M509.536,-554.107C507.235,-543.187 504.797,-531.614 502.279,-519.662"/>
<ellipse fill="none" stroke="#c441cc" cx="510.418" cy="-558.295" rx="4.00001" ry="4.00001"/>
<polygon fill="#c441cc" stroke="#c441cc" points="502.208,-519.324 504.549,-508.611 501.177,-514.431 500.146,-509.538 500.146,-509.538 500.146,-509.538 501.177,-514.431 495.743,-510.466 502.208,-519.324 502.208,-519.324"/>
</g>
<!-- Lawfirm -->
<g id="node6" class="node"><title>Lawfirm</title>
<path fill="none" stroke="black" d="M477,-1939.5C477,-1939.5 587,-1939.5 587,-1939.5 593,-1939.5 599,-1945.5 599,-1951.5 599,-1951.5 599,-2108.5 599,-2108.5 599,-2114.5 593,-2120.5 587,-2120.5 587,-2120.5 477,-2120.5 477,-2120.5 471,-2120.5 465,-2114.5 465,-2108.5 465,-2108.5 465,-1951.5 465,-1951.5 465,-1945.5 471,-1939.5 477,-1939.5"/>
<text text-anchor="middle" x="532" y="-2105.3" font-family="Times,serif" font-size="14.00">Lawfirm</text>
<polyline fill="none" stroke="black" points="465,-2097.5 599,-2097.5 "/>
<text text-anchor="start" x="473" y="-2082.3" font-family="Times,serif" font-size="14.00">id :integer</text>
<text text-anchor="start" x="473" y="-2067.3" font-family="Times,serif" font-size="14.00">name :string</text>
<text text-anchor="start" x="473" y="-2052.3" font-family="Times,serif" font-size="14.00">address :string</text>
<text text-anchor="start" x="473" y="-2037.3" font-family="Times,serif" font-size="14.00">city :string</text>
<text text-anchor="start" x="473" y="-2022.3" font-family="Times,serif" font-size="14.00">state :string</text>
<text text-anchor="start" x="473" y="-2007.3" font-family="Times,serif" font-size="14.00">zip :string</text>
<text text-anchor="start" x="473" y="-1992.3" font-family="Times,serif" font-size="14.00">phone :string</text>
<text text-anchor="start" x="473" y="-1977.3" font-family="Times,serif" font-size="14.00">email :string</text>
<text text-anchor="start" x="473" y="-1962.3" font-family="Times,serif" font-size="14.00">created_at :datetime</text>
<text text-anchor="start" x="473" y="-1947.3" font-family="Times,serif" font-size="14.00">updated_at :datetime</text>
</g>
<!-- Lawfirm&#45;&gt;Flow -->
<g id="edge10" class="edge"><title>Lawfirm&#45;&gt;Flow</title>
<path fill="none" stroke="#06f4c6" d="M521.689,-1931.4C509.504,-1812.26 489.554,-1604.57 479,-1426 471.235,-1294.61 472,-1261.6 470,-1130 468.365,-1022.46 467.245,-995.52 470,-888 471.778,-818.598 459.611,-798.945 478,-732 478.808,-729.059 479.719,-726.106 480.716,-723.155"/>
<ellipse fill="none" stroke="#06f4c6" cx="522.109" cy="-1935.49" rx="4" ry="4"/>
<polygon fill="#06f4c6" stroke="#06f4c6" points="480.723,-723.138 488.399,-715.306 482.449,-718.445 484.175,-713.753 484.175,-713.753 484.175,-713.753 482.449,-718.445 479.952,-712.199 480.723,-723.138 480.723,-723.138"/>
</g>
<!-- Lawyer -->
<g id="node7" class="node"><title>Lawyer</title>
<path fill="none" stroke="black" d="M572.5,-1464.5C572.5,-1464.5 753.5,-1464.5 753.5,-1464.5 759.5,-1464.5 765.5,-1470.5 765.5,-1476.5 765.5,-1476.5 765.5,-1873.5 765.5,-1873.5 765.5,-1879.5 759.5,-1885.5 753.5,-1885.5 753.5,-1885.5 572.5,-1885.5 572.5,-1885.5 566.5,-1885.5 560.5,-1879.5 560.5,-1873.5 560.5,-1873.5 560.5,-1476.5 560.5,-1476.5 560.5,-1470.5 566.5,-1464.5 572.5,-1464.5"/>
<text text-anchor="middle" x="663" y="-1870.3" font-family="Times,serif" font-size="14.00">Lawyer</text>
<polyline fill="none" stroke="black" points="560.5,-1862.5 765.5,-1862.5 "/>
<text text-anchor="start" x="568.5" y="-1847.3" font-family="Times,serif" font-size="14.00">id :integer</text>
<text text-anchor="start" x="568.5" y="-1832.3" font-family="Times,serif" font-size="14.00">email :string</text>
<text text-anchor="start" x="568.5" y="-1817.3" font-family="Times,serif" font-size="14.00">encrypted_password :string</text>
<text text-anchor="start" x="568.5" y="-1802.3" font-family="Times,serif" font-size="14.00">reset_password_token :string</text>
<text text-anchor="start" x="568.5" y="-1787.3" font-family="Times,serif" font-size="14.00">reset_password_sent_at :datetime</text>
<text text-anchor="start" x="568.5" y="-1772.3" font-family="Times,serif" font-size="14.00">remember_created_at :datetime</text>
<text text-anchor="start" x="568.5" y="-1757.3" font-family="Times,serif" font-size="14.00">sign_in_count :integer</text>
<text text-anchor="start" x="568.5" y="-1742.3" font-family="Times,serif" font-size="14.00">current_sign_in_at :datetime</text>
<text text-anchor="start" x="568.5" y="-1727.3" font-family="Times,serif" font-size="14.00">last_sign_in_at :datetime</text>
<text text-anchor="start" x="568.5" y="-1712.3" font-family="Times,serif" font-size="14.00">current_sign_in_ip :string</text>
<text text-anchor="start" x="568.5" y="-1697.3" font-family="Times,serif" font-size="14.00">last_sign_in_ip :string</text>
<text text-anchor="start" x="568.5" y="-1682.3" font-family="Times,serif" font-size="14.00">created_at :datetime</text>
<text text-anchor="start" x="568.5" y="-1667.3" font-family="Times,serif" font-size="14.00">updated_at :datetime</text>
<text text-anchor="start" x="568.5" y="-1652.3" font-family="Times,serif" font-size="14.00">role :integer</text>
<text text-anchor="start" x="568.5" y="-1637.3" font-family="Times,serif" font-size="14.00">confirmation_token :string</text>
<text text-anchor="start" x="568.5" y="-1622.3" font-family="Times,serif" font-size="14.00">confirmed_at :datetime</text>
<text text-anchor="start" x="568.5" y="-1607.3" font-family="Times,serif" font-size="14.00">confirmation_sent_at :datetime</text>
<text text-anchor="start" x="568.5" y="-1592.3" font-family="Times,serif" font-size="14.00">unconfirmed_email :string</text>
<text text-anchor="start" x="568.5" y="-1577.3" font-family="Times,serif" font-size="14.00">name :string</text>
<text text-anchor="start" x="568.5" y="-1562.3" font-family="Times,serif" font-size="14.00">first_name :string</text>
<text text-anchor="start" x="568.5" y="-1547.3" font-family="Times,serif" font-size="14.00">last_name :string</text>
<text text-anchor="start" x="568.5" y="-1532.3" font-family="Times,serif" font-size="14.00">phone :string</text>
<text text-anchor="start" x="568.5" y="-1517.3" font-family="Times,serif" font-size="14.00">type :string</text>
<text text-anchor="start" x="568.5" y="-1502.3" font-family="Times,serif" font-size="14.00">service_id :integer</text>
<text text-anchor="start" x="568.5" y="-1487.3" font-family="Times,serif" font-size="14.00">company_id :integer</text>
<text text-anchor="start" x="568.5" y="-1472.3" font-family="Times,serif" font-size="14.00">lawfirm_id :integer</text>
</g>
<!-- Lawfirm&#45;&gt;Lawyer -->
<g id="edge8" class="edge"><title>Lawfirm&#45;&gt;Lawyer</title>
<path fill="none" stroke="#712a3c" d="M568.044,-1931.87C572.389,-1920.17 576.951,-1907.87 581.628,-1895.27"/>
<ellipse fill="none" stroke="#712a3c" cx="566.618" cy="-1935.72" rx="4.00001" ry="4.00001"/>
<polygon fill="#712a3c" stroke="#712a3c" points="581.746,-1894.95 589.445,-1887.14 583.486,-1890.26 585.226,-1885.57 585.226,-1885.57 585.226,-1885.57 583.486,-1890.26 581.007,-1884.01 581.746,-1894.95 581.746,-1894.95"/>
</g>
<!-- Lawfirm&#45;&gt;Service -->
<g id="edge9" class="edge"><title>Lawfirm&#45;&gt;Service</title>
<path fill="none" stroke="#d1a14d" d="M534.195,-1931.09C537.018,-1818.38 542.696,-1627.72 552,-1464 552.53,-1454.68 553.132,-1445.07 553.781,-1435.4"/>
<ellipse fill="none" stroke="#d1a14d" cx="534.088" cy="-1935.41" rx="4" ry="4"/>
<polygon fill="#d1a14d" stroke="#d1a14d" points="553.79,-1435.28 558.963,-1425.61 554.131,-1430.29 554.473,-1425.3 554.473,-1425.3 554.473,-1425.3 554.131,-1430.29 549.984,-1424.99 553.79,-1435.28 553.79,-1435.28"/>
</g>
<!-- Lawyer&#45;&gt;Service -->
<g id="edge12" class="edge"><title>Lawyer&#45;&gt;Service</title>
<path fill="none" stroke="#dc907d" d="M606.314,-1456.51C604.405,-1449.19 602.512,-1441.92 600.647,-1434.77"/>
<ellipse fill="none" stroke="#dc907d" cx="607.332" cy="-1460.42" rx="4.00001" ry="4.00001"/>
<polygon fill="#dc907d" stroke="#dc907d" points="600.645,-1434.76 602.477,-1423.95 599.384,-1429.92 598.123,-1425.08 598.123,-1425.08 598.123,-1425.08 599.384,-1429.92 593.768,-1426.22 600.645,-1434.76 600.645,-1434.76"/>
</g>
<!-- Lawyer&#45;&gt;PaperTrail::Version -->
<g id="edge11" class="edge"><title>Lawyer&#45;&gt;PaperTrail::Version</title>
<path fill="none" stroke="#f1491b" d="M773.227,-1630.42C895.872,-1573.83 1077,-1462.41 1077,-1298 1077,-1298 1077,-1298 1077,-298 1077,-200.809 1072.09,-167.375 1016,-88 1001.83,-67.9399 979.925,-51.5564 960.619,-39.7957"/>
<ellipse fill="none" stroke="#f1491b" cx="769.241" cy="-1632.24" rx="4.00002" ry="4.00002"/>
<polygon fill="#f1491b" stroke="#f1491b" points="960.593,-39.781 954.245,-30.8395 956.281,-37.2509 951.968,-34.7209 951.968,-34.7209 951.968,-34.7209 956.281,-37.2509 949.691,-38.6023 960.593,-39.781 960.593,-39.781"/>
<text text-anchor="middle" x="1100.5" y="-797.3" font-family="Times,serif" font-size="14.00">versions</text>
</g>
<!-- Lease -->
<g id="node8" class="node"><title>Lease</title>
<path fill="none" stroke="black" d="M814,-926C814,-926 924,-926 924,-926 930,-926 936,-932 936,-938 936,-938 936,-1080 936,-1080 936,-1086 930,-1092 924,-1092 924,-1092 814,-1092 814,-1092 808,-1092 802,-1086 802,-1080 802,-1080 802,-938 802,-938 802,-932 808,-926 814,-926"/>
<text text-anchor="middle" x="869" y="-1076.8" font-family="Times,serif" font-size="14.00">Lease</text>
<polyline fill="none" stroke="black" points="802,-1069 936,-1069 "/>
<text text-anchor="start" x="810" y="-1053.8" font-family="Times,serif" font-size="14.00">id :integer</text>
<text text-anchor="start" x="810" y="-1038.8" font-family="Times,serif" font-size="14.00">lease_number :string</text>
<text text-anchor="start" x="810" y="-1023.8" font-family="Times,serif" font-size="14.00">lessee :integer</text>
<text text-anchor="start" x="810" y="-1008.8" font-family="Times,serif" font-size="14.00">description :string</text>
<text text-anchor="start" x="810" y="-993.8" font-family="Times,serif" font-size="14.00">comments :text</text>
<text text-anchor="start" x="810" y="-978.8" font-family="Times,serif" font-size="14.00">user_id :integer</text>
<text text-anchor="start" x="810" y="-963.8" font-family="Times,serif" font-size="14.00">created_at :datetime</text>
<text text-anchor="start" x="810" y="-948.8" font-family="Times,serif" font-size="14.00">updated_at :datetime</text>
<text text-anchor="start" x="810" y="-933.8" font-family="Times,serif" font-size="14.00">service_id :integer</text>
</g>
<!-- Lease&#45;&gt;Flow -->
<g id="edge13" class="edge"><title>Lease&#45;&gt;Flow</title>
<path fill="none" stroke="#85370e" d="M816.425,-919.244C808.966,-908.421 801.074,-897.753 793,-888 734.923,-817.844 658.034,-747.841 601.864,-700.009"/>
<ellipse fill="none" stroke="#85370e" cx="818.764" cy="-922.688" rx="4.00002" ry="4.00002"/>
<polygon fill="#85370e" stroke="#85370e" points="601.707,-699.876 596.99,-689.977 597.894,-696.643 594.08,-693.409 594.08,-693.409 594.08,-693.409 597.894,-696.643 591.17,-696.841 601.707,-699.876 601.707,-699.876"/>
</g>
<!-- Lessee -->
<g id="node9" class="node"><title>Lessee</title>
<path fill="none" stroke="black" d="M510,-888.5C510,-888.5 620,-888.5 620,-888.5 626,-888.5 632,-894.5 632,-900.5 632,-900.5 632,-1117.5 632,-1117.5 632,-1123.5 626,-1129.5 620,-1129.5 620,-1129.5 510,-1129.5 510,-1129.5 504,-1129.5 498,-1123.5 498,-1117.5 498,-1117.5 498,-900.5 498,-900.5 498,-894.5 504,-888.5 510,-888.5"/>
<text text-anchor="middle" x="565" y="-1114.3" font-family="Times,serif" font-size="14.00">Lessee</text>
<polyline fill="none" stroke="black" points="498,-1106.5 632,-1106.5 "/>
<text text-anchor="start" x="506" y="-1091.3" font-family="Times,serif" font-size="14.00">id :integer</text>
<text text-anchor="start" x="506" y="-1076.3" font-family="Times,serif" font-size="14.00">last_name :string</text>
<text text-anchor="start" x="506" y="-1061.3" font-family="Times,serif" font-size="14.00">first_name :string</text>
<text text-anchor="start" x="506" y="-1046.3" font-family="Times,serif" font-size="14.00">address :string</text>
<text text-anchor="start" x="506" y="-1031.3" font-family="Times,serif" font-size="14.00">city :string</text>
<text text-anchor="start" x="506" y="-1016.3" font-family="Times,serif" font-size="14.00">state :string</text>
<text text-anchor="start" x="506" y="-1001.3" font-family="Times,serif" font-size="14.00">zip :string</text>
<text text-anchor="start" x="506" y="-986.3" font-family="Times,serif" font-size="14.00">phone :string</text>
<text text-anchor="start" x="506" y="-971.3" font-family="Times,serif" font-size="14.00">email :string</text>
<text text-anchor="start" x="506" y="-956.3" font-family="Times,serif" font-size="14.00">company :string</text>
<text text-anchor="start" x="506" y="-941.3" font-family="Times,serif" font-size="14.00">bus_phone :string</text>
<text text-anchor="start" x="506" y="-926.3" font-family="Times,serif" font-size="14.00">created_at :datetime</text>
<text text-anchor="start" x="506" y="-911.3" font-family="Times,serif" font-size="14.00">updated_at :datetime</text>
<text text-anchor="start" x="506" y="-896.3" font-family="Times,serif" font-size="14.00">service_id :integer</text>
</g>
<!-- Parcel -->
<g id="node10" class="node"><title>Parcel</title>
<path fill="none" stroke="black" d="M662,-941C662,-941 772,-941 772,-941 778,-941 784,-947 784,-953 784,-953 784,-1065 784,-1065 784,-1071 778,-1077 772,-1077 772,-1077 662,-1077 662,-1077 656,-1077 650,-1071 650,-1065 650,-1065 650,-953 650,-953 650,-947 656,-941 662,-941"/>
<text text-anchor="middle" x="717" y="-1061.8" font-family="Times,serif" font-size="14.00">Parcel</text>
<polyline fill="none" stroke="black" points="650,-1054 784,-1054 "/>
<text text-anchor="start" x="658" y="-1038.8" font-family="Times,serif" font-size="14.00">id :integer</text>
<text text-anchor="start" x="658" y="-1023.8" font-family="Times,serif" font-size="14.00">tax_map :string</text>
<text text-anchor="start" x="658" y="-1008.8" font-family="Times,serif" font-size="14.00">tax_parcel :string</text>
<text text-anchor="start" x="658" y="-993.8" font-family="Times,serif" font-size="14.00">deed_id :integer</text>
<text text-anchor="start" x="658" y="-978.8" font-family="Times,serif" font-size="14.00">created_at :datetime</text>
<text text-anchor="start" x="658" y="-963.8" font-family="Times,serif" font-size="14.00">updated_at :datetime</text>
<text text-anchor="start" x="658" y="-948.8" font-family="Times,serif" font-size="14.00">service_id :integer</text>
</g>
<!-- RequestStateMachine -->
<g id="node11" class="node"><title>RequestStateMachine</title>
<polygon fill="none" stroke="black" points="769.5,-2007 769.5,-2053 908.5,-2053 908.5,-2007 769.5,-2007"/>
<text text-anchor="middle" x="839" y="-2037.8" font-family="Times,serif" font-size="14.00">RequestStateMachine</text>
<polyline fill="none" stroke="black" points="769.5,-2030 908.5,-2030 "/>
<text text-anchor="middle" x="839" y="-2014.8" font-family="Times,serif" font-size="14.00"> </text>
</g>
<!-- Service&#45;&gt;Flow -->
<g id="edge14" class="edge"><title>Service&#45;&gt;Flow</title>
<path fill="none" stroke="#9332e3" d="M497.557,-1160.89C494.157,-1150.61 491.233,-1140.24 489,-1130 458.405,-989.676 484.323,-822.099 505.762,-723.452"/>
<ellipse fill="none" stroke="#9332e3" cx="498.949" cy="-1164.96" rx="4.00001" ry="4.00001"/>
<polygon fill="#9332e3" stroke="#9332e3" points="505.795,-723.301 512.347,-714.507 506.874,-718.419 507.953,-713.536 507.953,-713.536 507.953,-713.536 506.874,-718.419 503.559,-712.566 505.795,-723.301 505.795,-723.301"/>
</g>
<!-- Service&#45;&gt;Lease -->
<g id="edge16" class="edge"><title>Service&#45;&gt;Lease</title>
<path fill="none" stroke="#d158df" d="M649,-1245.9C694.892,-1215.95 750.801,-1175.02 793,-1130 801.45,-1120.98 809.503,-1110.9 816.992,-1100.51"/>
<ellipse fill="none" stroke="#d158df" cx="645.372" cy="-1248.25" rx="4.00002" ry="4.00002"/>
<polygon fill="#d158df" stroke="#d158df" points="817.129,-1100.32 826.557,-1094.72 820.001,-1096.23 822.873,-1092.13 822.873,-1092.13 822.873,-1092.13 820.001,-1096.23 819.19,-1089.55 817.129,-1100.32 817.129,-1100.32"/>
</g>
<!-- Service&#45;&gt;Lessee -->
<g id="edge15" class="edge"><title>Service&#45;&gt;Lessee</title>
<path fill="none" stroke="#f4c336" d="M565,-1160.66C565,-1153.75 565,-1146.81 565,-1139.92"/>
<ellipse fill="none" stroke="#f4c336" cx="565" cy="-1164.89" rx="4" ry="4"/>
<polygon fill="#f4c336" stroke="#f4c336" points="565,-1139.86 569.5,-1129.86 565,-1134.86 565,-1129.86 565,-1129.86 565,-1129.86 565,-1134.86 560.5,-1129.86 565,-1139.86 565,-1139.86"/>
</g>
<!-- Service&#45;&gt;Parcel -->
<g id="edge17" class="edge"><title>Service&#45;&gt;Parcel</title>
<path fill="none" stroke="#cd65b0" d="M636.503,-1161.46C650.237,-1135.62 664.168,-1109.41 676.493,-1086.22"/>
<ellipse fill="none" stroke="#cd65b0" cx="634.432" cy="-1165.36" rx="4.00002" ry="4.00002"/>
<polygon fill="#cd65b0" stroke="#cd65b0" points="676.619,-1085.98 685.285,-1079.26 678.965,-1081.57 681.312,-1077.15 681.312,-1077.15 681.312,-1077.15 678.965,-1081.57 677.338,-1075.04 676.619,-1085.98 676.619,-1085.98"/>
</g>
<!-- ServiceRequest -->
<g id="node14" class="node"><title>ServiceRequest</title>
<path fill="none" stroke="black" d="M865,-733C865,-733 975,-733 975,-733 981,-733 987,-739 987,-745 987,-745 987,-857 987,-857 987,-863 981,-869 975,-869 975,-869 865,-869 865,-869 859,-869 853,-863 853,-857 853,-857 853,-745 853,-745 853,-739 859,-733 865,-733"/>
<text text-anchor="middle" x="920" y="-853.8" font-family="Times,serif" font-size="14.00">ServiceRequest</text>
<polyline fill="none" stroke="black" points="853,-846 987,-846 "/>
<text text-anchor="start" x="861" y="-830.8" font-family="Times,serif" font-size="14.00">id :integer</text>
<text text-anchor="start" x="861" y="-815.8" font-family="Times,serif" font-size="14.00">to_state :string</text>
<text text-anchor="start" x="861" y="-800.8" font-family="Times,serif" font-size="14.00">metadata :text</text>
<text text-anchor="start" x="861" y="-785.8" font-family="Times,serif" font-size="14.00">sort_key :integer</text>
<text text-anchor="start" x="861" y="-770.8" font-family="Times,serif" font-size="14.00">service_id :integer</text>
<text text-anchor="start" x="861" y="-755.8" font-family="Times,serif" font-size="14.00">created_at :datetime</text>
<text text-anchor="start" x="861" y="-740.8" font-family="Times,serif" font-size="14.00">updated_at :datetime</text>
</g>
<!-- Service&#45;&gt;ServiceRequest -->
<g id="edge18" class="edge"><title>Service&#45;&gt;ServiceRequest</title>
<path fill="none" stroke="#c001d1" d="M650.222,-1285.67C740.864,-1269.63 879.947,-1229.41 945,-1130 993.758,-1055.49 973.851,-950.074 950.833,-879.035"/>
<ellipse fill="none" stroke="#c001d1" cx="646.093" cy="-1286.38" rx="4.00001" ry="4.00001"/>
<polygon fill="#c001d1" stroke="#c001d1" points="950.732,-878.733 951.84,-867.823 949.151,-873.99 947.571,-869.246 947.571,-869.246 947.571,-869.246 949.151,-873.99 943.302,-870.669 950.732,-878.733 950.732,-878.733"/>
</g>
<!-- Service&#45;&gt;User -->
<g id="edge19" class="edge"><title>Service&#45;&gt;User</title>
<path fill="none" stroke="#8561c7" d="M483.584,-1166.86C478.244,-1154.71 473.58,-1142.32 470,-1130 411.709,-929.344 414.955,-689.744 428.73,-519.674"/>
<polygon fill="#8561c7" stroke="#8561c7" points="483.647,-1167 483.697,-1177.96 485.72,-1171.55 487.792,-1176.1 487.792,-1176.1 487.792,-1176.1 485.72,-1171.55 491.887,-1174.23 483.647,-1167 483.647,-1167"/>
<polygon fill="#8561c7" stroke="#8561c7" points="428.74,-519.56 434.05,-509.966 429.153,-514.577 429.566,-509.594 429.566,-509.594 429.566,-509.594 429.153,-514.577 425.081,-509.222 428.74,-519.56 428.74,-519.56"/>
</g>
<!-- Service&#45;&gt;PaperTrail::Version -->
<g id="edge20" class="edge"><title>Service&#45;&gt;PaperTrail::Version</title>
<path fill="none" stroke="#21183f" d="M650.176,-1288.48C747.08,-1274.87 901.283,-1236.72 974,-1130 1004.84,-1084.74 1002,-1064.77 1002,-1010 1002,-1010 1002,-1010 1002,-298 1002,-201.646 956.425,-93.8929 933.229,-45.2897"/>
<ellipse fill="none" stroke="#21183f" cx="646.106" cy="-1289.03" rx="4.00001" ry="4.00001"/>
<polygon fill="#21183f" stroke="#21183f" points="933.14,-45.1068 932.824,-34.1455 930.958,-40.6082 928.775,-36.1096 928.775,-36.1096 928.775,-36.1096 930.958,-40.6082 924.727,-38.0737 933.14,-45.1068 933.14,-45.1068"/>
<text text-anchor="middle" x="1025.5" y="-634.3" font-family="Times,serif" font-size="14.00">versions</text>
</g>
<!-- ServiceCreator -->
<g id="node13" class="node"><title>ServiceCreator</title>
<polygon fill="none" stroke="black" points="927,-2007 927,-2053 1027,-2053 1027,-2007 927,-2007"/>
<text text-anchor="middle" x="977" y="-2037.8" font-family="Times,serif" font-size="14.00">ServiceCreator</text>
<polyline fill="none" stroke="black" points="927,-2030 1027,-2030 "/>
<text text-anchor="middle" x="977" y="-2014.8" font-family="Times,serif" font-size="14.00"> </text>
</g>
<!-- ServiceRequest&#45;&gt;PaperTrail::Version -->
<g id="edge21" class="edge"><title>ServiceRequest&#45;&gt;PaperTrail::Version</title>
<path fill="none" stroke="#287829" d="M920,-724.617C920,-555.902 920,-154.21 920,-46.1576"/>
<ellipse fill="none" stroke="#287829" cx="920" cy="-728.736" rx="4" ry="4"/>
<polygon fill="#287829" stroke="#287829" points="920,-46.0852 924.5,-36.0852 920,-41.0852 920,-36.0852 920,-36.0852 920,-36.0852 920,-41.0852 915.5,-36.0853 920,-46.0852 920,-46.0852"/>
<text text-anchor="middle" x="943.5" y="-532.3" font-family="Times,serif" font-size="14.00">versions</text>
</g>
<!-- User&#45;&gt;PaperTrail::Version -->
<g id="edge22" class="edge"><title>User&#45;&gt;PaperTrail::Version</title>
<path fill="none" stroke="#1d4848" d="M565.941,-230.48C646.726,-181.101 759.315,-112.765 859,-54 866.718,-49.4499 875.024,-44.6325 882.946,-40.0749"/>
<ellipse fill="none" stroke="#1d4848" cx="562.128" cy="-232.812" rx="4.00002" ry="4.00002"/>
<polygon fill="#1d4848" stroke="#1d4848" points="883.002,-40.0432 893.915,-38.9711 887.339,-37.5554 891.676,-35.0677 891.676,-35.0677 891.676,-35.0677 887.339,-37.5554 889.437,-31.1642 883.002,-40.0432 883.002,-40.0432"/>
<text text-anchor="middle" x="882.5" y="-58.3" font-family="Times,serif" font-size="14.00">versions</text>
</g>
</g>
</svg>
