<?xml version="1.0" encoding="UTF-8" standalone="no"?>
<!DOCTYPE svg PUBLIC "-//W3C//DTD SVG 1.1//EN"
 "http://www.w3.org/Graphics/SVG/1.1/DTD/svg11.dtd">
<!-- Generated by graphviz version 2.36.0 (20140111.2315)
 -->
<!-- Title: models_diagram Pages: 1 -->
<svg width="1244pt" height="1866pt"
 viewBox="0.00 0.00 1244.00 1866.00" xmlns="http://www.w3.org/2000/svg" xmlns:xlink="http://www.w3.org/1999/xlink">
<g id="graph0" class="graph" transform="scale(1 1) rotate(0) translate(4 1862)">
<title>models_diagram</title>
<polygon fill="white" stroke="none" points="-4,4 -4,-1862 1240,-1862 1240,4 -4,4"/>
<!-- _diagram_info -->
<g id="node1" class="node"><title>_diagram_info</title>
<text text-anchor="start" x="8" y="-1776.6" font-family="Times,serif" font-size="13.00">Models diagram</text>
<text text-anchor="start" x="8" y="-1762.6" font-family="Times,serif" font-size="13.00">Date: Dec 30 2014 &#45; 23:13</text>
<text text-anchor="start" x="8" y="-1748.6" font-family="Times,serif" font-size="13.00">Migration version: 20141231034655</text>
<text text-anchor="start" x="8" y="-1734.6" font-family="Times,serif" font-size="13.00">Generated by RailRoady 1.2.0</text>
<text text-anchor="start" x="8" y="-1720.6" font-family="Times,serif" font-size="13.00">http://railroady.prestonlee.com</text>
</g>
<!-- Client -->
<g id="node2" class="node"><title>Client</title>
<path fill="none" stroke="black" d="M653.5,-1218.5C653.5,-1218.5 834.5,-1218.5 834.5,-1218.5 840.5,-1218.5 846.5,-1224.5 846.5,-1230.5 846.5,-1230.5 846.5,-1597.5 846.5,-1597.5 846.5,-1603.5 840.5,-1609.5 834.5,-1609.5 834.5,-1609.5 653.5,-1609.5 653.5,-1609.5 647.5,-1609.5 641.5,-1603.5 641.5,-1597.5 641.5,-1597.5 641.5,-1230.5 641.5,-1230.5 641.5,-1224.5 647.5,-1218.5 653.5,-1218.5"/>
<text text-anchor="middle" x="744" y="-1594.3" font-family="Times,serif" font-size="14.00">Client</text>
<polyline fill="none" stroke="black" points="641.5,-1586.5 846.5,-1586.5 "/>
<text text-anchor="start" x="649.5" y="-1571.3" font-family="Times,serif" font-size="14.00">id :integer</text>
<text text-anchor="start" x="649.5" y="-1556.3" font-family="Times,serif" font-size="14.00">email :string</text>
<text text-anchor="start" x="649.5" y="-1541.3" font-family="Times,serif" font-size="14.00">encrypted_password :string</text>
<text text-anchor="start" x="649.5" y="-1526.3" font-family="Times,serif" font-size="14.00">reset_password_token :string</text>
<text text-anchor="start" x="649.5" y="-1511.3" font-family="Times,serif" font-size="14.00">reset_password_sent_at :datetime</text>
<text text-anchor="start" x="649.5" y="-1496.3" font-family="Times,serif" font-size="14.00">remember_created_at :datetime</text>
<text text-anchor="start" x="649.5" y="-1481.3" font-family="Times,serif" font-size="14.00">sign_in_count :integer</text>
<text text-anchor="start" x="649.5" y="-1466.3" font-family="Times,serif" font-size="14.00">current_sign_in_at :datetime</text>
<text text-anchor="start" x="649.5" y="-1451.3" font-family="Times,serif" font-size="14.00">last_sign_in_at :datetime</text>
<text text-anchor="start" x="649.5" y="-1436.3" font-family="Times,serif" font-size="14.00">current_sign_in_ip :string</text>
<text text-anchor="start" x="649.5" y="-1421.3" font-family="Times,serif" font-size="14.00">last_sign_in_ip :string</text>
<text text-anchor="start" x="649.5" y="-1406.3" font-family="Times,serif" font-size="14.00">created_at :datetime</text>
<text text-anchor="start" x="649.5" y="-1391.3" font-family="Times,serif" font-size="14.00">updated_at :datetime</text>
<text text-anchor="start" x="649.5" y="-1376.3" font-family="Times,serif" font-size="14.00">role :integer</text>
<text text-anchor="start" x="649.5" y="-1361.3" font-family="Times,serif" font-size="14.00">confirmation_token :string</text>
<text text-anchor="start" x="649.5" y="-1346.3" font-family="Times,serif" font-size="14.00">confirmed_at :datetime</text>
<text text-anchor="start" x="649.5" y="-1331.3" font-family="Times,serif" font-size="14.00">confirmation_sent_at :datetime</text>
<text text-anchor="start" x="649.5" y="-1316.3" font-family="Times,serif" font-size="14.00">unconfirmed_email :string</text>
<text text-anchor="start" x="649.5" y="-1301.3" font-family="Times,serif" font-size="14.00">name :string</text>
<text text-anchor="start" x="649.5" y="-1286.3" font-family="Times,serif" font-size="14.00">first_name :string</text>
<text text-anchor="start" x="649.5" y="-1271.3" font-family="Times,serif" font-size="14.00">last_name :string</text>
<text text-anchor="start" x="649.5" y="-1256.3" font-family="Times,serif" font-size="14.00">phone :string</text>
<text text-anchor="start" x="649.5" y="-1241.3" font-family="Times,serif" font-size="14.00">type :string</text>
<text text-anchor="start" x="649.5" y="-1226.3" font-family="Times,serif" font-size="14.00">service_id :integer</text>
</g>
<!-- Service -->
<g id="node13" class="node"><title>Service</title>
<path fill="none" stroke="black" d="M496,-925C496,-925 626,-925 626,-925 632,-925 638,-931 638,-937 638,-937 638,-1169 638,-1169 638,-1175 632,-1181 626,-1181 626,-1181 496,-1181 496,-1181 490,-1181 484,-1175 484,-1169 484,-1169 484,-937 484,-937 484,-931 490,-925 496,-925"/>
<text text-anchor="middle" x="561" y="-1165.8" font-family="Times,serif" font-size="14.00">Service</text>
<polyline fill="none" stroke="black" points="484,-1158 638,-1158 "/>
<text text-anchor="start" x="492" y="-1142.8" font-family="Times,serif" font-size="14.00">id :integer</text>
<text text-anchor="start" x="492" y="-1127.8" font-family="Times,serif" font-size="14.00">county :string</text>
<text text-anchor="start" x="492" y="-1112.8" font-family="Times,serif" font-size="14.00">start_date :date</text>
<text text-anchor="start" x="492" y="-1097.8" font-family="Times,serif" font-size="14.00">end_date :date</text>
<text text-anchor="start" x="492" y="-1082.8" font-family="Times,serif" font-size="14.00">requested_delivery :date</text>
<text text-anchor="start" x="492" y="-1067.8" font-family="Times,serif" font-size="14.00">lease_file :string</text>
<text text-anchor="start" x="492" y="-1052.8" font-family="Times,serif" font-size="14.00">created_at :datetime</text>
<text text-anchor="start" x="492" y="-1037.8" font-family="Times,serif" font-size="14.00">updated_at :datetime</text>
<text text-anchor="start" x="492" y="-1022.8" font-family="Times,serif" font-size="14.00">lease_id :integer</text>
<text text-anchor="start" x="492" y="-1007.8" font-family="Times,serif" font-size="14.00">lessee_id :integer</text>
<text text-anchor="start" x="492" y="-992.8" font-family="Times,serif" font-size="14.00">flow_id :integer</text>
<text text-anchor="start" x="492" y="-977.8" font-family="Times,serif" font-size="14.00">lease_number :string</text>
<text text-anchor="start" x="492" y="-962.8" font-family="Times,serif" font-size="14.00">state :string</text>
<text text-anchor="start" x="492" y="-947.8" font-family="Times,serif" font-size="14.00">description :string</text>
<text text-anchor="start" x="492" y="-932.8" font-family="Times,serif" font-size="14.00">parcel_id :integer</text>
</g>
<!-- Client&#45;&gt;Service -->
<g id="edge1" class="edge"><title>Client&#45;&gt;Service</title>
<path fill="none" stroke="#68dd8d" d="M640.105,-1209.18C636.87,-1202.84 633.656,-1196.53 630.48,-1190.3"/>
<polygon fill="#68dd8d" stroke="#68dd8d" points="640.193,-1209.36 640.725,-1220.31 642.464,-1213.81 644.734,-1218.27 644.734,-1218.27 644.734,-1218.27 642.464,-1213.81 648.744,-1216.22 640.193,-1209.36 640.193,-1209.36"/>
<polygon fill="#68dd8d" stroke="#68dd8d" points="630.397,-1190.14 629.864,-1179.19 628.126,-1185.68 625.855,-1181.23 625.855,-1181.23 625.855,-1181.23 628.126,-1185.68 621.846,-1183.27 630.397,-1190.14 630.397,-1190.14"/>
</g>
<!-- Company -->
<g id="node3" class="node"><title>Company</title>
<path fill="none" stroke="black" d="M878.5,-1308.5C878.5,-1308.5 995.5,-1308.5 995.5,-1308.5 1001.5,-1308.5 1007.5,-1314.5 1007.5,-1320.5 1007.5,-1320.5 1007.5,-1507.5 1007.5,-1507.5 1007.5,-1513.5 1001.5,-1519.5 995.5,-1519.5 995.5,-1519.5 878.5,-1519.5 878.5,-1519.5 872.5,-1519.5 866.5,-1513.5 866.5,-1507.5 866.5,-1507.5 866.5,-1320.5 866.5,-1320.5 866.5,-1314.5 872.5,-1308.5 878.5,-1308.5"/>
<text text-anchor="middle" x="937" y="-1504.3" font-family="Times,serif" font-size="14.00">Company</text>
<polyline fill="none" stroke="black" points="866.5,-1496.5 1007.5,-1496.5 "/>
<text text-anchor="start" x="874.5" y="-1481.3" font-family="Times,serif" font-size="14.00">id :integer</text>
<text text-anchor="start" x="874.5" y="-1466.3" font-family="Times,serif" font-size="14.00">name :string</text>
<text text-anchor="start" x="874.5" y="-1451.3" font-family="Times,serif" font-size="14.00">billing_address :string</text>
<text text-anchor="start" x="874.5" y="-1436.3" font-family="Times,serif" font-size="14.00">billing_contact :string</text>
<text text-anchor="start" x="874.5" y="-1421.3" font-family="Times,serif" font-size="14.00">city :string</text>
<text text-anchor="start" x="874.5" y="-1406.3" font-family="Times,serif" font-size="14.00">state :string</text>
<text text-anchor="start" x="874.5" y="-1391.3" font-family="Times,serif" font-size="14.00">zip :string</text>
<text text-anchor="start" x="874.5" y="-1376.3" font-family="Times,serif" font-size="14.00">phone :string</text>
<text text-anchor="start" x="874.5" y="-1361.3" font-family="Times,serif" font-size="14.00">email :string</text>
<text text-anchor="start" x="874.5" y="-1346.3" font-family="Times,serif" font-size="14.00">created_at :datetime</text>
<text text-anchor="start" x="874.5" y="-1331.3" font-family="Times,serif" font-size="14.00">updated_at :datetime</text>
<text text-anchor="start" x="874.5" y="-1316.3" font-family="Times,serif" font-size="14.00">type :string</text>
</g>
<!-- Flow -->
<g id="node6" class="node"><title>Flow</title>
<path fill="none" stroke="black" d="M848,-443.5C848,-443.5 958,-443.5 958,-443.5 964,-443.5 970,-449.5 970,-455.5 970,-455.5 970,-582.5 970,-582.5 970,-588.5 964,-594.5 958,-594.5 958,-594.5 848,-594.5 848,-594.5 842,-594.5 836,-588.5 836,-582.5 836,-582.5 836,-455.5 836,-455.5 836,-449.5 842,-443.5 848,-443.5"/>
<text text-anchor="middle" x="903" y="-579.3" font-family="Times,serif" font-size="14.00">Flow</text>
<polyline fill="none" stroke="black" points="836,-571.5 970,-571.5 "/>
<text text-anchor="start" x="844" y="-556.3" font-family="Times,serif" font-size="14.00">id :integer</text>
<text text-anchor="start" x="844" y="-541.3" font-family="Times,serif" font-size="14.00">flow_type :string</text>
<text text-anchor="start" x="844" y="-526.3" font-family="Times,serif" font-size="14.00">assignee :string</text>
<text text-anchor="start" x="844" y="-511.3" font-family="Times,serif" font-size="14.00">received_at :date</text>
<text text-anchor="start" x="844" y="-496.3" font-family="Times,serif" font-size="14.00">completed_at :date</text>
<text text-anchor="start" x="844" y="-481.3" font-family="Times,serif" font-size="14.00">created_at :datetime</text>
<text text-anchor="start" x="844" y="-466.3" font-family="Times,serif" font-size="14.00">updated_at :datetime</text>
<text text-anchor="start" x="844" y="-451.3" font-family="Times,serif" font-size="14.00">service_id :integer</text>
</g>
<!-- Company&#45;&gt;Flow -->
<g id="edge4" class="edge"><title>Company&#45;&gt;Flow</title>
<path fill="none" stroke="#a75811" d="M948.2,-1300.01C960.68,-1149.74 974.972,-876.301 941,-646 939.001,-632.449 935.855,-618.335 932.207,-604.665"/>
<ellipse fill="none" stroke="#a75811" cx="947.83" cy="-1304.41" rx="4" ry="4"/>
<polygon fill="#a75811" stroke="#a75811" points="932.145,-604.44 933.809,-593.602 930.809,-599.622 929.473,-594.804 929.473,-594.804 929.473,-594.804 930.809,-599.622 925.136,-596.007 932.145,-604.44 932.145,-604.44"/>
</g>
<!-- Company&#45;&gt;Service -->
<g id="edge3" class="edge"><title>Company&#45;&gt;Service</title>
<path fill="none" stroke="#53406d" d="M904.687,-1301.04C892.474,-1271.72 876.224,-1241.71 855,-1218 798.626,-1155.01 712.105,-1110.84 647.498,-1084.34"/>
<ellipse fill="none" stroke="#53406d" cx="906.201" cy="-1304.76" rx="4.00002" ry="4.00002"/>
<polygon fill="#53406d" stroke="#53406d" points="647.404,-1084.3 639.816,-1076.39 642.767,-1082.43 638.131,-1080.56 638.131,-1080.56 638.131,-1080.56 642.767,-1082.43 636.446,-1084.73 647.404,-1084.3 647.404,-1084.3"/>
</g>
<!-- User -->
<g id="node16" class="node"><title>User</title>
<path fill="none" stroke="black" d="M812.5,-0.5C812.5,-0.5 993.5,-0.5 993.5,-0.5 999.5,-0.5 1005.5,-6.5 1005.5,-12.5 1005.5,-12.5 1005.5,-379.5 1005.5,-379.5 1005.5,-385.5 999.5,-391.5 993.5,-391.5 993.5,-391.5 812.5,-391.5 812.5,-391.5 806.5,-391.5 800.5,-385.5 800.5,-379.5 800.5,-379.5 800.5,-12.5 800.5,-12.5 800.5,-6.5 806.5,-0.5 812.5,-0.5"/>
<text text-anchor="middle" x="903" y="-376.3" font-family="Times,serif" font-size="14.00">User</text>
<polyline fill="none" stroke="black" points="800.5,-368.5 1005.5,-368.5 "/>
<text text-anchor="start" x="808.5" y="-353.3" font-family="Times,serif" font-size="14.00">id :integer</text>
<text text-anchor="start" x="808.5" y="-338.3" font-family="Times,serif" font-size="14.00">email :string</text>
<text text-anchor="start" x="808.5" y="-323.3" font-family="Times,serif" font-size="14.00">encrypted_password :string</text>
<text text-anchor="start" x="808.5" y="-308.3" font-family="Times,serif" font-size="14.00">reset_password_token :string</text>
<text text-anchor="start" x="808.5" y="-293.3" font-family="Times,serif" font-size="14.00">reset_password_sent_at :datetime</text>
<text text-anchor="start" x="808.5" y="-278.3" font-family="Times,serif" font-size="14.00">remember_created_at :datetime</text>
<text text-anchor="start" x="808.5" y="-263.3" font-family="Times,serif" font-size="14.00">sign_in_count :integer</text>
<text text-anchor="start" x="808.5" y="-248.3" font-family="Times,serif" font-size="14.00">current_sign_in_at :datetime</text>
<text text-anchor="start" x="808.5" y="-233.3" font-family="Times,serif" font-size="14.00">last_sign_in_at :datetime</text>
<text text-anchor="start" x="808.5" y="-218.3" font-family="Times,serif" font-size="14.00">current_sign_in_ip :string</text>
<text text-anchor="start" x="808.5" y="-203.3" font-family="Times,serif" font-size="14.00">last_sign_in_ip :string</text>
<text text-anchor="start" x="808.5" y="-188.3" font-family="Times,serif" font-size="14.00">created_at :datetime</text>
<text text-anchor="start" x="808.5" y="-173.3" font-family="Times,serif" font-size="14.00">updated_at :datetime</text>
<text text-anchor="start" x="808.5" y="-158.3" font-family="Times,serif" font-size="14.00">role :integer</text>
<text text-anchor="start" x="808.5" y="-143.3" font-family="Times,serif" font-size="14.00">confirmation_token :string</text>
<text text-anchor="start" x="808.5" y="-128.3" font-family="Times,serif" font-size="14.00">confirmed_at :datetime</text>
<text text-anchor="start" x="808.5" y="-113.3" font-family="Times,serif" font-size="14.00">confirmation_sent_at :datetime</text>
<text text-anchor="start" x="808.5" y="-98.3" font-family="Times,serif" font-size="14.00">unconfirmed_email :string</text>
<text text-anchor="start" x="808.5" y="-83.3" font-family="Times,serif" font-size="14.00">name :string</text>
<text text-anchor="start" x="808.5" y="-68.3" font-family="Times,serif" font-size="14.00">first_name :string</text>
<text text-anchor="start" x="808.5" y="-53.3" font-family="Times,serif" font-size="14.00">last_name :string</text>
<text text-anchor="start" x="808.5" y="-38.3" font-family="Times,serif" font-size="14.00">phone :string</text>
<text text-anchor="start" x="808.5" y="-23.3" font-family="Times,serif" font-size="14.00">type :string</text>
<text text-anchor="start" x="808.5" y="-8.3" font-family="Times,serif" font-size="14.00">service_id :integer</text>
</g>
<!-- Company&#45;&gt;User -->
<g id="edge2" class="edge"><title>Company&#45;&gt;User</title>
<path fill="none" stroke="#0134ab" d="M958.484,-1300.54C964.727,-1262.99 970.74,-1220.82 974,-1182 1002.04,-848.057 1032.03,-758.895 979,-428 977.604,-419.292 975.93,-410.467 974.033,-401.603"/>
<ellipse fill="none" stroke="#0134ab" cx="957.812" cy="-1304.53" rx="4.00001" ry="4.00001"/>
<polygon fill="#0134ab" stroke="#0134ab" points="973.975,-401.342 976.191,-390.602 972.887,-396.462 971.799,-391.581 971.799,-391.581 971.799,-391.581 972.887,-396.462 967.406,-392.561 973.975,-401.342 973.975,-401.342"/>
</g>
<!-- Contact -->
<g id="node4" class="node"><title>Contact</title>
<path fill="none" stroke="black" d="M696,-428.5C696,-428.5 806,-428.5 806,-428.5 812,-428.5 818,-434.5 818,-440.5 818,-440.5 818,-597.5 818,-597.5 818,-603.5 812,-609.5 806,-609.5 806,-609.5 696,-609.5 696,-609.5 690,-609.5 684,-603.5 684,-597.5 684,-597.5 684,-440.5 684,-440.5 684,-434.5 690,-428.5 696,-428.5"/>
<text text-anchor="middle" x="751" y="-594.3" font-family="Times,serif" font-size="14.00">Contact</text>
<polyline fill="none" stroke="black" points="684,-586.5 818,-586.5 "/>
<text text-anchor="start" x="692" y="-571.3" font-family="Times,serif" font-size="14.00">id :integer</text>
<text text-anchor="start" x="692" y="-556.3" font-family="Times,serif" font-size="14.00">name :string</text>
<text text-anchor="start" x="692" y="-541.3" font-family="Times,serif" font-size="14.00">address :string</text>
<text text-anchor="start" x="692" y="-526.3" font-family="Times,serif" font-size="14.00">city :string</text>
<text text-anchor="start" x="692" y="-511.3" font-family="Times,serif" font-size="14.00">state :string</text>
<text text-anchor="start" x="692" y="-496.3" font-family="Times,serif" font-size="14.00">zip :string</text>
<text text-anchor="start" x="692" y="-481.3" font-family="Times,serif" font-size="14.00">phone :string</text>
<text text-anchor="start" x="692" y="-466.3" font-family="Times,serif" font-size="14.00">email :string</text>
<text text-anchor="start" x="692" y="-451.3" font-family="Times,serif" font-size="14.00">created_at :datetime</text>
<text text-anchor="start" x="692" y="-436.3" font-family="Times,serif" font-size="14.00">updated_at :datetime</text>
</g>
<!-- Customer -->
<g id="node5" class="node"><title>Customer</title>
<path fill="none" stroke="black" d="M831.5,-1646.5C831.5,-1646.5 948.5,-1646.5 948.5,-1646.5 954.5,-1646.5 960.5,-1652.5 960.5,-1658.5 960.5,-1658.5 960.5,-1845.5 960.5,-1845.5 960.5,-1851.5 954.5,-1857.5 948.5,-1857.5 948.5,-1857.5 831.5,-1857.5 831.5,-1857.5 825.5,-1857.5 819.5,-1851.5 819.5,-1845.5 819.5,-1845.5 819.5,-1658.5 819.5,-1658.5 819.5,-1652.5 825.5,-1646.5 831.5,-1646.5"/>
<text text-anchor="middle" x="890" y="-1842.3" font-family="Times,serif" font-size="14.00">Customer</text>
<polyline fill="none" stroke="black" points="819.5,-1834.5 960.5,-1834.5 "/>
<text text-anchor="start" x="827.5" y="-1819.3" font-family="Times,serif" font-size="14.00">id :integer</text>
<text text-anchor="start" x="827.5" y="-1804.3" font-family="Times,serif" font-size="14.00">name :string</text>
<text text-anchor="start" x="827.5" y="-1789.3" font-family="Times,serif" font-size="14.00">billing_address :string</text>
<text text-anchor="start" x="827.5" y="-1774.3" font-family="Times,serif" font-size="14.00">billing_contact :string</text>
<text text-anchor="start" x="827.5" y="-1759.3" font-family="Times,serif" font-size="14.00">city :string</text>
<text text-anchor="start" x="827.5" y="-1744.3" font-family="Times,serif" font-size="14.00">state :string</text>
<text text-anchor="start" x="827.5" y="-1729.3" font-family="Times,serif" font-size="14.00">zip :string</text>
<text text-anchor="start" x="827.5" y="-1714.3" font-family="Times,serif" font-size="14.00">phone :string</text>
<text text-anchor="start" x="827.5" y="-1699.3" font-family="Times,serif" font-size="14.00">email :string</text>
<text text-anchor="start" x="827.5" y="-1684.3" font-family="Times,serif" font-size="14.00">created_at :datetime</text>
<text text-anchor="start" x="827.5" y="-1669.3" font-family="Times,serif" font-size="14.00">updated_at :datetime</text>
<text text-anchor="start" x="827.5" y="-1654.3" font-family="Times,serif" font-size="14.00">type :string</text>
</g>
<!-- Customer&#45;&gt;Client -->
<g id="edge8" class="edge"><title>Customer&#45;&gt;Client</title>
<path fill="none" stroke="#2c9abc" d="M841.149,-1638.58C838.399,-1632.25 835.598,-1625.8 832.764,-1619.28"/>
<ellipse fill="none" stroke="#2c9abc" cx="842.811" cy="-1642.4" rx="4.00002" ry="4.00002"/>
<polygon fill="#2c9abc" stroke="#2c9abc" points="832.574,-1618.84 832.716,-1607.88 830.582,-1614.26 828.589,-1609.67 828.589,-1609.67 828.589,-1609.67 830.582,-1614.26 824.462,-1611.46 832.574,-1618.84 832.574,-1618.84"/>
</g>
<!-- Customer&#45;&gt;Flow -->
<g id="edge7" class="edge"><title>Customer&#45;&gt;Flow</title>
<path fill="none" stroke="#0131ec" d="M966.107,-1648.96C967.069,-1647.96 968.034,-1646.97 969,-1646 987.525,-1627.31 1004.35,-1633.59 1016,-1610 1077.16,-1486.1 971.133,-667.894 965,-646 961.1,-632.076 955.679,-617.84 949.651,-604.184"/>
<ellipse fill="none" stroke="#0131ec" cx="963.365" cy="-1651.87" rx="4.00002" ry="4.00002"/>
<polygon fill="#0131ec" stroke="#0131ec" points="949.537,-603.935 949.487,-592.969 947.465,-599.384 945.392,-594.834 945.392,-594.834 945.392,-594.834 947.465,-599.384 941.297,-596.7 949.537,-603.935 949.537,-603.935"/>
</g>
<!-- Customer&#45;&gt;Service -->
<g id="edge6" class="edge"><title>Customer&#45;&gt;Service</title>
<path fill="none" stroke="#3da492" d="M811.526,-1729.45C752.216,-1708.86 674.061,-1671.64 632,-1610 620.276,-1592.82 592.537,-1350.53 575.408,-1191.51"/>
<ellipse fill="none" stroke="#3da492" cx="815.609" cy="-1730.84" rx="4.00001" ry="4.00001"/>
<polygon fill="#3da492" stroke="#3da492" points="575.364,-1191.11 578.769,-1180.68 574.83,-1186.13 574.295,-1181.16 574.295,-1181.16 574.295,-1181.16 574.83,-1186.13 569.821,-1181.64 575.364,-1191.11 575.364,-1191.11"/>
</g>
<!-- Customer&#45;&gt;User -->
<g id="edge5" class="edge"><title>Customer&#45;&gt;User</title>
<path fill="none" stroke="#7fe61f" d="M966.582,-1648.08C967.385,-1647.37 968.191,-1646.68 969,-1646 995.749,-1623.45 1019.85,-1639.28 1039,-1610 1174.55,-1402.8 1074,-1301.6 1074,-1054 1074,-1054 1074,-1054 1074,-766 1074,-641.342 1035.89,-507.573 995.654,-401.078"/>
<ellipse fill="none" stroke="#7fe61f" cx="963.456" cy="-1650.93" rx="4.00002" ry="4.00002"/>
<polygon fill="#7fe61f" stroke="#7fe61f" points="995.569,-400.855 996.211,-389.908 993.787,-396.183 992.006,-391.511 992.006,-391.511 992.006,-391.511 993.787,-396.183 987.801,-393.114 995.569,-400.855 995.569,-400.855"/>
</g>
<!-- Flow&#45;&gt;User -->
<g id="edge9" class="edge"><title>Flow&#45;&gt;User</title>
<path fill="none" stroke="#31fc0e" d="M903,-434.794C903,-424.257 903,-413.136 903,-401.691"/>
<ellipse fill="none" stroke="#31fc0e" cx="903" cy="-439.145" rx="4" ry="4"/>
<polygon fill="#31fc0e" stroke="#31fc0e" points="903,-401.555 907.5,-391.555 903,-396.555 903,-391.555 903,-391.555 903,-391.555 903,-396.555 898.5,-391.555 903,-401.555 903,-401.555"/>
</g>
<!-- Lawfirm -->
<g id="node7" class="node"><title>Lawfirm</title>
<path fill="none" stroke="black" d="M238.5,-1646.5C238.5,-1646.5 355.5,-1646.5 355.5,-1646.5 361.5,-1646.5 367.5,-1652.5 367.5,-1658.5 367.5,-1658.5 367.5,-1845.5 367.5,-1845.5 367.5,-1851.5 361.5,-1857.5 355.5,-1857.5 355.5,-1857.5 238.5,-1857.5 238.5,-1857.5 232.5,-1857.5 226.5,-1851.5 226.5,-1845.5 226.5,-1845.5 226.5,-1658.5 226.5,-1658.5 226.5,-1652.5 232.5,-1646.5 238.5,-1646.5"/>
<text text-anchor="middle" x="297" y="-1842.3" font-family="Times,serif" font-size="14.00">Lawfirm</text>
<polyline fill="none" stroke="black" points="226.5,-1834.5 367.5,-1834.5 "/>
<text text-anchor="start" x="234.5" y="-1819.3" font-family="Times,serif" font-size="14.00">id :integer</text>
<text text-anchor="start" x="234.5" y="-1804.3" font-family="Times,serif" font-size="14.00">name :string</text>
<text text-anchor="start" x="234.5" y="-1789.3" font-family="Times,serif" font-size="14.00">billing_address :string</text>
<text text-anchor="start" x="234.5" y="-1774.3" font-family="Times,serif" font-size="14.00">billing_contact :string</text>
<text text-anchor="start" x="234.5" y="-1759.3" font-family="Times,serif" font-size="14.00">city :string</text>
<text text-anchor="start" x="234.5" y="-1744.3" font-family="Times,serif" font-size="14.00">state :string</text>
<text text-anchor="start" x="234.5" y="-1729.3" font-family="Times,serif" font-size="14.00">zip :string</text>
<text text-anchor="start" x="234.5" y="-1714.3" font-family="Times,serif" font-size="14.00">phone :string</text>
<text text-anchor="start" x="234.5" y="-1699.3" font-family="Times,serif" font-size="14.00">email :string</text>
<text text-anchor="start" x="234.5" y="-1684.3" font-family="Times,serif" font-size="14.00">created_at :datetime</text>
<text text-anchor="start" x="234.5" y="-1669.3" font-family="Times,serif" font-size="14.00">updated_at :datetime</text>
<text text-anchor="start" x="234.5" y="-1654.3" font-family="Times,serif" font-size="14.00">type :string</text>
</g>
<!-- Lawfirm&#45;&gt;Flow -->
<g id="edge12" class="edge"><title>Lawfirm&#45;&gt;Flow</title>
<path fill="none" stroke="#e79255" d="M279.534,-1638.13C243.239,-1385.5 173.545,-785.704 306,-646 385.848,-561.782 723.491,-662.483 827,-610 832.016,-607.457 836.831,-604.421 841.431,-601.029"/>
<ellipse fill="none" stroke="#e79255" cx="280.132" cy="-1642.28" rx="4.00001" ry="4.00001"/>
<polygon fill="#e79255" stroke="#e79255" points="841.68,-600.829 852.294,-598.074 845.578,-597.697 849.475,-594.566 849.475,-594.566 849.475,-594.566 845.578,-597.697 846.657,-591.058 841.68,-600.829 841.68,-600.829"/>
</g>
<!-- Lawyer -->
<g id="node8" class="node"><title>Lawyer</title>
<path fill="none" stroke="black" d="M376.5,-1218.5C376.5,-1218.5 557.5,-1218.5 557.5,-1218.5 563.5,-1218.5 569.5,-1224.5 569.5,-1230.5 569.5,-1230.5 569.5,-1597.5 569.5,-1597.5 569.5,-1603.5 563.5,-1609.5 557.5,-1609.5 557.5,-1609.5 376.5,-1609.5 376.5,-1609.5 370.5,-1609.5 364.5,-1603.5 364.5,-1597.5 364.5,-1597.5 364.5,-1230.5 364.5,-1230.5 364.5,-1224.5 370.5,-1218.5 376.5,-1218.5"/>
<text text-anchor="middle" x="467" y="-1594.3" font-family="Times,serif" font-size="14.00">Lawyer</text>
<polyline fill="none" stroke="black" points="364.5,-1586.5 569.5,-1586.5 "/>
<text text-anchor="start" x="372.5" y="-1571.3" font-family="Times,serif" font-size="14.00">id :integer</text>
<text text-anchor="start" x="372.5" y="-1556.3" font-family="Times,serif" font-size="14.00">email :string</text>
<text text-anchor="start" x="372.5" y="-1541.3" font-family="Times,serif" font-size="14.00">encrypted_password :string</text>
<text text-anchor="start" x="372.5" y="-1526.3" font-family="Times,serif" font-size="14.00">reset_password_token :string</text>
<text text-anchor="start" x="372.5" y="-1511.3" font-family="Times,serif" font-size="14.00">reset_password_sent_at :datetime</text>
<text text-anchor="start" x="372.5" y="-1496.3" font-family="Times,serif" font-size="14.00">remember_created_at :datetime</text>
<text text-anchor="start" x="372.5" y="-1481.3" font-family="Times,serif" font-size="14.00">sign_in_count :integer</text>
<text text-anchor="start" x="372.5" y="-1466.3" font-family="Times,serif" font-size="14.00">current_sign_in_at :datetime</text>
<text text-anchor="start" x="372.5" y="-1451.3" font-family="Times,serif" font-size="14.00">last_sign_in_at :datetime</text>
<text text-anchor="start" x="372.5" y="-1436.3" font-family="Times,serif" font-size="14.00">current_sign_in_ip :string</text>
<text text-anchor="start" x="372.5" y="-1421.3" font-family="Times,serif" font-size="14.00">last_sign_in_ip :string</text>
<text text-anchor="start" x="372.5" y="-1406.3" font-family="Times,serif" font-size="14.00">created_at :datetime</text>
<text text-anchor="start" x="372.5" y="-1391.3" font-family="Times,serif" font-size="14.00">updated_at :datetime</text>
<text text-anchor="start" x="372.5" y="-1376.3" font-family="Times,serif" font-size="14.00">role :integer</text>
<text text-anchor="start" x="372.5" y="-1361.3" font-family="Times,serif" font-size="14.00">confirmation_token :string</text>
<text text-anchor="start" x="372.5" y="-1346.3" font-family="Times,serif" font-size="14.00">confirmed_at :datetime</text>
<text text-anchor="start" x="372.5" y="-1331.3" font-family="Times,serif" font-size="14.00">confirmation_sent_at :datetime</text>
<text text-anchor="start" x="372.5" y="-1316.3" font-family="Times,serif" font-size="14.00">unconfirmed_email :string</text>
<text text-anchor="start" x="372.5" y="-1301.3" font-family="Times,serif" font-size="14.00">name :string</text>
<text text-anchor="start" x="372.5" y="-1286.3" font-family="Times,serif" font-size="14.00">first_name :string</text>
<text text-anchor="start" x="372.5" y="-1271.3" font-family="Times,serif" font-size="14.00">last_name :string</text>
<text text-anchor="start" x="372.5" y="-1256.3" font-family="Times,serif" font-size="14.00">phone :string</text>
<text text-anchor="start" x="372.5" y="-1241.3" font-family="Times,serif" font-size="14.00">type :string</text>
<text text-anchor="start" x="372.5" y="-1226.3" font-family="Times,serif" font-size="14.00">service_id :integer</text>
</g>
<!-- Lawfirm&#45;&gt;Lawyer -->
<g id="edge13" class="edge"><title>Lawfirm&#45;&gt;Lawyer</title>
<path fill="none" stroke="#9d5c47" d="M353.74,-1638.85C357.047,-1632.32 360.418,-1625.66 363.83,-1618.91"/>
<ellipse fill="none" stroke="#9d5c47" cx="351.896" cy="-1642.5" rx="4.00002" ry="4.00002"/>
<polygon fill="#9d5c47" stroke="#9d5c47" points="363.991,-1618.59 372.521,-1611.7 366.249,-1614.13 368.506,-1609.67 368.506,-1609.67 368.506,-1609.67 366.249,-1614.13 364.491,-1607.64 363.991,-1618.59 363.991,-1618.59"/>
</g>
<!-- Lawfirm&#45;&gt;Service -->
<g id="edge11" class="edge"><title>Lawfirm&#45;&gt;Service</title>
<path fill="none" stroke="#7e055f" d="M299.198,-1638.05C303.546,-1503.45 316.488,-1287.93 355,-1218 382.394,-1168.26 431.705,-1128.18 475.214,-1100.09"/>
<ellipse fill="none" stroke="#7e055f" cx="299.061" cy="-1642.4" rx="4" ry="4"/>
<polygon fill="#7e055f" stroke="#7e055f" points="475.382,-1099.98 486.238,-1098.44 479.606,-1097.31 483.831,-1094.63 483.831,-1094.63 483.831,-1094.63 479.606,-1097.31 481.423,-1090.83 475.382,-1099.98 475.382,-1099.98"/>
</g>
<!-- Lawfirm&#45;&gt;User -->
<g id="edge10" class="edge"><title>Lawfirm&#45;&gt;User</title>
<path fill="none" stroke="#5a0d9d" d="M240.787,-1638.67C237.376,-1629.13 234.371,-1619.49 232,-1610 172.029,-1369.86 200,-1301.52 200,-1054 200,-1054 200,-1054 200,-766 200,-606.14 211.671,-542.721 323,-428 450.085,-297.043 660.878,-238.424 790.306,-213.638"/>
<ellipse fill="none" stroke="#5a0d9d" cx="242.221" cy="-1642.55" rx="4.00001" ry="4.00001"/>
<polygon fill="#5a0d9d" stroke="#5a0d9d" points="790.425,-213.615 801.084,-216.191 795.339,-212.692 800.253,-211.769 800.253,-211.769 800.253,-211.769 795.339,-212.692 799.422,-207.346 790.425,-213.615 790.425,-213.615"/>
</g>
<!-- Lawyer&#45;&gt;Service -->
<g id="edge14" class="edge"><title>Lawyer&#45;&gt;Service</title>
<path fill="none" stroke="#2cb39e" d="M520.596,-1208.31C522.093,-1202.59 523.581,-1196.91 525.054,-1191.28"/>
<polygon fill="#2cb39e" stroke="#2cb39e" points="520.522,-1208.59 513.636,-1217.13 519.255,-1213.43 517.989,-1218.27 517.989,-1218.27 517.989,-1218.27 519.255,-1213.43 522.342,-1219.41 520.522,-1208.59 520.522,-1208.59"/>
<polygon fill="#2cb39e" stroke="#2cb39e" points="525.153,-1190.9 532.04,-1182.37 526.42,-1186.07 527.687,-1181.23 527.687,-1181.23 527.687,-1181.23 526.42,-1186.07 523.333,-1180.09 525.153,-1190.9 525.153,-1190.9"/>
</g>
<!-- Lease -->
<g id="node9" class="node"><title>Lease</title>
<path fill="none" stroke="black" d="M810,-691.5C810,-691.5 920,-691.5 920,-691.5 926,-691.5 932,-697.5 932,-703.5 932,-703.5 932,-830.5 932,-830.5 932,-836.5 926,-842.5 920,-842.5 920,-842.5 810,-842.5 810,-842.5 804,-842.5 798,-836.5 798,-830.5 798,-830.5 798,-703.5 798,-703.5 798,-697.5 804,-691.5 810,-691.5"/>
<text text-anchor="middle" x="865" y="-827.3" font-family="Times,serif" font-size="14.00">Lease</text>
<polyline fill="none" stroke="black" points="798,-819.5 932,-819.5 "/>
<text text-anchor="start" x="806" y="-804.3" font-family="Times,serif" font-size="14.00">id :integer</text>
<text text-anchor="start" x="806" y="-789.3" font-family="Times,serif" font-size="14.00">lease_number :string</text>
<text text-anchor="start" x="806" y="-774.3" font-family="Times,serif" font-size="14.00">lessee :integer</text>
<text text-anchor="start" x="806" y="-759.3" font-family="Times,serif" font-size="14.00">description :string</text>
<text text-anchor="start" x="806" y="-744.3" font-family="Times,serif" font-size="14.00">comments :text</text>
<text text-anchor="start" x="806" y="-729.3" font-family="Times,serif" font-size="14.00">user_id :integer</text>
<text text-anchor="start" x="806" y="-714.3" font-family="Times,serif" font-size="14.00">created_at :datetime</text>
<text text-anchor="start" x="806" y="-699.3" font-family="Times,serif" font-size="14.00">updated_at :datetime</text>
</g>
<!-- Lease&#45;&gt;Contact -->
<g id="edge15" class="edge"><title>Lease&#45;&gt;Contact</title>
<path fill="none" stroke="#900fdd" d="M826.94,-683.871C817.274,-663.013 806.788,-640.385 796.783,-618.794"/>
<ellipse fill="none" stroke="#900fdd" cx="828.65" cy="-687.561" rx="4.00002" ry="4.00002"/>
<polygon fill="#900fdd" stroke="#900fdd" points="796.732,-618.685 796.611,-607.72 794.63,-614.149 792.528,-609.612 792.528,-609.612 792.528,-609.612 794.63,-614.149 788.445,-611.504 796.732,-618.685 796.732,-618.685"/>
</g>
<!-- Lease&#45;&gt;Flow -->
<g id="edge16" class="edge"><title>Lease&#45;&gt;Flow</title>
<path fill="none" stroke="#2c8d10" d="M877.787,-683.22C881.685,-657.985 885.975,-630.212 889.894,-604.842"/>
<ellipse fill="none" stroke="#2c8d10" cx="877.167" cy="-687.237" rx="4.00001" ry="4.00001"/>
<polygon fill="#2c8d10" stroke="#2c8d10" points="889.907,-604.761 895.881,-595.565 890.67,-599.819 891.433,-594.878 891.433,-594.878 891.433,-594.878 890.67,-599.819 886.986,-594.191 889.907,-604.761 889.907,-604.761"/>
</g>
<!-- Lessee -->
<g id="node10" class="node"><title>Lessee</title>
<path fill="none" stroke="black" d="M658,-646.5C658,-646.5 768,-646.5 768,-646.5 774,-646.5 780,-652.5 780,-658.5 780,-658.5 780,-875.5 780,-875.5 780,-881.5 774,-887.5 768,-887.5 768,-887.5 658,-887.5 658,-887.5 652,-887.5 646,-881.5 646,-875.5 646,-875.5 646,-658.5 646,-658.5 646,-652.5 652,-646.5 658,-646.5"/>
<text text-anchor="middle" x="713" y="-872.3" font-family="Times,serif" font-size="14.00">Lessee</text>
<polyline fill="none" stroke="black" points="646,-864.5 780,-864.5 "/>
<text text-anchor="start" x="654" y="-849.3" font-family="Times,serif" font-size="14.00">id :integer</text>
<text text-anchor="start" x="654" y="-834.3" font-family="Times,serif" font-size="14.00">last_name :string</text>
<text text-anchor="start" x="654" y="-819.3" font-family="Times,serif" font-size="14.00">first_name :string</text>
<text text-anchor="start" x="654" y="-804.3" font-family="Times,serif" font-size="14.00">address :string</text>
<text text-anchor="start" x="654" y="-789.3" font-family="Times,serif" font-size="14.00">city :string</text>
<text text-anchor="start" x="654" y="-774.3" font-family="Times,serif" font-size="14.00">state :string</text>
<text text-anchor="start" x="654" y="-759.3" font-family="Times,serif" font-size="14.00">zip :string</text>
<text text-anchor="start" x="654" y="-744.3" font-family="Times,serif" font-size="14.00">phone :string</text>
<text text-anchor="start" x="654" y="-729.3" font-family="Times,serif" font-size="14.00">email :string</text>
<text text-anchor="start" x="654" y="-714.3" font-family="Times,serif" font-size="14.00">company :string</text>
<text text-anchor="start" x="654" y="-699.3" font-family="Times,serif" font-size="14.00">bus_phone :string</text>
<text text-anchor="start" x="654" y="-684.3" font-family="Times,serif" font-size="14.00">created_at :datetime</text>
<text text-anchor="start" x="654" y="-669.3" font-family="Times,serif" font-size="14.00">updated_at :datetime</text>
<text text-anchor="start" x="654" y="-654.3" font-family="Times,serif" font-size="14.00">service_id :integer</text>
</g>
<!-- Parcel -->
<g id="node11" class="node"><title>Parcel</title>
<path fill="none" stroke="black" d="M354,-699C354,-699 464,-699 464,-699 470,-699 476,-705 476,-711 476,-711 476,-823 476,-823 476,-829 470,-835 464,-835 464,-835 354,-835 354,-835 348,-835 342,-829 342,-823 342,-823 342,-711 342,-711 342,-705 348,-699 354,-699"/>
<text text-anchor="middle" x="409" y="-819.8" font-family="Times,serif" font-size="14.00">Parcel</text>
<polyline fill="none" stroke="black" points="342,-812 476,-812 "/>
<text text-anchor="start" x="350" y="-796.8" font-family="Times,serif" font-size="14.00">id :integer</text>
<text text-anchor="start" x="350" y="-781.8" font-family="Times,serif" font-size="14.00">tax_map :string</text>
<text text-anchor="start" x="350" y="-766.8" font-family="Times,serif" font-size="14.00">tax_parcel :string</text>
<text text-anchor="start" x="350" y="-751.8" font-family="Times,serif" font-size="14.00">deed_id :integer</text>
<text text-anchor="start" x="350" y="-736.8" font-family="Times,serif" font-size="14.00">created_at :datetime</text>
<text text-anchor="start" x="350" y="-721.8" font-family="Times,serif" font-size="14.00">updated_at :datetime</text>
<text text-anchor="start" x="350" y="-706.8" font-family="Times,serif" font-size="14.00">service_id :integer</text>
</g>
<!-- RequestStateMachine -->
<g id="node12" class="node"><title>RequestStateMachine</title>
<polygon fill="none" stroke="black" points="978.5,-1729 978.5,-1775 1117.5,-1775 1117.5,-1729 978.5,-1729"/>
<text text-anchor="middle" x="1048" y="-1759.8" font-family="Times,serif" font-size="14.00">RequestStateMachine</text>
<polyline fill="none" stroke="black" points="978.5,-1752 1117.5,-1752 "/>
<text text-anchor="middle" x="1048" y="-1736.8" font-family="Times,serif" font-size="14.00"> </text>
</g>
<!-- Service&#45;&gt;Flow -->
<g id="edge17" class="edge"><title>Service&#45;&gt;Flow</title>
<path fill="none" stroke="#fb1e1e" d="M476.629,-1016.07C424.918,-989.073 363.056,-946.642 333,-888 308.471,-840.142 296.381,-685.384 333,-646 407.949,-565.391 728.923,-659.961 827,-610 832.011,-607.447 836.823,-604.404 841.42,-601.006"/>
<ellipse fill="none" stroke="#fb1e1e" cx="480.295" cy="-1017.95" rx="4.00002" ry="4.00002"/>
<polygon fill="#fb1e1e" stroke="#fb1e1e" points="841.67,-600.805 852.281,-598.04 845.565,-597.67 849.46,-594.535 849.46,-594.535 849.46,-594.535 845.565,-597.67 846.638,-591.029 841.67,-600.805 841.67,-600.805"/>
</g>
<!-- Service&#45;&gt;Lease -->
<g id="edge19" class="edge"><title>Service&#45;&gt;Lease</title>
<path fill="none" stroke="#90dbe3" d="M645.036,-1002.68C690.939,-973.152 746.847,-932.716 789,-888 799.476,-876.887 809.332,-864.127 818.254,-851.168"/>
<ellipse fill="none" stroke="#90dbe3" cx="641.421" cy="-1004.99" rx="4.00002" ry="4.00002"/>
<polygon fill="#90dbe3" stroke="#90dbe3" points="818.406,-850.942 827.715,-845.147 821.192,-846.79 823.979,-842.639 823.979,-842.639 823.979,-842.639 821.192,-846.79 820.243,-840.131 818.406,-850.942 818.406,-850.942"/>
</g>
<!-- Service&#45;&gt;Lessee -->
<g id="edge18" class="edge"><title>Service&#45;&gt;Lessee</title>
<path fill="none" stroke="#5bda4e" d="M632.896,-917.668C636.666,-910.623 640.45,-903.553 644.211,-896.527"/>
<ellipse fill="none" stroke="#5bda4e" cx="630.885" cy="-921.425" rx="4.00002" ry="4.00002"/>
<polygon fill="#5bda4e" stroke="#5bda4e" points="644.239,-896.474 652.926,-889.78 646.599,-892.065 648.958,-887.657 648.958,-887.657 648.958,-887.657 646.599,-892.065 644.991,-885.534 644.239,-896.474 644.239,-896.474"/>
</g>
<!-- Service&#45;&gt;Parcel -->
<g id="edge20" class="edge"><title>Service&#45;&gt;Parcel</title>
<path fill="none" stroke="#dc2a9a" d="M489.104,-917.668C475.545,-892.335 461.812,-866.675 449.637,-843.926"/>
<ellipse fill="none" stroke="#dc2a9a" cx="491.115" cy="-921.425" rx="4.00002" ry="4.00002"/>
<polygon fill="#dc2a9a" stroke="#dc2a9a" points="449.593,-843.845 448.842,-832.905 447.234,-839.437 444.874,-835.029 444.874,-835.029 444.874,-835.029 447.234,-839.437 440.907,-837.152 449.593,-843.845 449.593,-843.845"/>
</g>
<!-- ServiceRequest -->
<g id="node15" class="node"><title>ServiceRequest</title>
<path fill="none" stroke="black" d="M506,-699C506,-699 616,-699 616,-699 622,-699 628,-705 628,-711 628,-711 628,-823 628,-823 628,-829 622,-835 616,-835 616,-835 506,-835 506,-835 500,-835 494,-829 494,-823 494,-823 494,-711 494,-711 494,-705 500,-699 506,-699"/>
<text text-anchor="middle" x="561" y="-819.8" font-family="Times,serif" font-size="14.00">ServiceRequest</text>
<polyline fill="none" stroke="black" points="494,-812 628,-812 "/>
<text text-anchor="start" x="502" y="-796.8" font-family="Times,serif" font-size="14.00">id :integer</text>
<text text-anchor="start" x="502" y="-781.8" font-family="Times,serif" font-size="14.00">to_state :string</text>
<text text-anchor="start" x="502" y="-766.8" font-family="Times,serif" font-size="14.00">metadata :text</text>
<text text-anchor="start" x="502" y="-751.8" font-family="Times,serif" font-size="14.00">sort_key :integer</text>
<text text-anchor="start" x="502" y="-736.8" font-family="Times,serif" font-size="14.00">service_id :integer</text>
<text text-anchor="start" x="502" y="-721.8" font-family="Times,serif" font-size="14.00">created_at :datetime</text>
<text text-anchor="start" x="502" y="-706.8" font-family="Times,serif" font-size="14.00">updated_at :datetime</text>
</g>
<!-- Service&#45;&gt;ServiceRequest -->
<g id="edge21" class="edge"><title>Service&#45;&gt;ServiceRequest</title>
<path fill="none" stroke="#51fb23" d="M561,-916.938C561,-892.258 561,-867.298 561,-845.049"/>
<ellipse fill="none" stroke="#51fb23" cx="561" cy="-920.952" rx="4" ry="4"/>
<polygon fill="#51fb23" stroke="#51fb23" points="561,-845.029 565.5,-835.029 561,-840.029 561,-835.029 561,-835.029 561,-835.029 561,-840.029 556.5,-835.029 561,-845.029 561,-845.029"/>
</g>
<!-- Service&#45;&gt;User -->
<g id="edge22" class="edge"><title>Service&#45;&gt;User</title>
<path fill="none" stroke="#071ae9" d="M474.63,-1021.99C415.508,-996.4 341.607,-953.235 306,-888 254.47,-793.592 257.964,-742.233 306,-646 407.167,-443.328 648.196,-308.201 791.141,-242.795"/>
<polygon fill="#071ae9" stroke="#071ae9" points="474.774,-1022.06 482.23,-1030.1 479.379,-1024 483.984,-1025.95 483.984,-1025.95 483.984,-1025.95 479.379,-1024 485.737,-1021.81 474.774,-1022.06 474.774,-1022.06"/>
<polygon fill="#071ae9" stroke="#071ae9" points="791.306,-242.72 802.271,-242.686 795.859,-240.654 800.412,-238.588 800.412,-238.588 800.412,-238.588 795.859,-240.654 798.552,-234.49 791.306,-242.72 791.306,-242.72"/>
</g>
<!-- ServiceCreator -->
<g id="node14" class="node"><title>ServiceCreator</title>
<polygon fill="none" stroke="black" points="1136,-1729 1136,-1775 1236,-1775 1236,-1729 1136,-1729"/>
<text text-anchor="middle" x="1186" y="-1759.8" font-family="Times,serif" font-size="14.00">ServiceCreator</text>
<polyline fill="none" stroke="black" points="1136,-1752 1236,-1752 "/>
<text text-anchor="middle" x="1186" y="-1736.8" font-family="Times,serif" font-size="14.00"> </text>
</g>
</g>
</svg>
