<?xml version="1.0" encoding="UTF-8" standalone="no"?>
<!DOCTYPE svg PUBLIC "-//W3C//DTD SVG 1.1//EN"
 "http://www.w3.org/Graphics/SVG/1.1/DTD/svg11.dtd">
<!-- Generated by graphviz version 2.36.0 (20140111.2315)
 -->
<!-- Title: models_diagram Pages: 1 -->
<svg width="1620pt" height="2144pt"
 viewBox="0.00 0.00 1620.00 2144.00" xmlns="http://www.w3.org/2000/svg" xmlns:xlink="http://www.w3.org/1999/xlink">
<g id="graph0" class="graph" transform="scale(1 1) rotate(0) translate(4 2140)">
<title>models_diagram</title>
<polygon fill="white" stroke="none" points="-4,4 -4,-2140 1616,-2140 1616,4 -4,4"/>
<!-- _diagram_info -->
<g id="node1" class="node"><title>_diagram_info</title>
<text text-anchor="start" x="8" y="-2054.6" font-family="Times,serif" font-size="13.00">Models diagram</text>
<text text-anchor="start" x="8" y="-2040.6" font-family="Times,serif" font-size="13.00">Date: Jan 17 2015 &#45; 12:57</text>
<text text-anchor="start" x="8" y="-2026.6" font-family="Times,serif" font-size="13.00">Migration version: 20150115141211</text>
<text text-anchor="start" x="8" y="-2012.6" font-family="Times,serif" font-size="13.00">Generated by RailRoady 1.2.0</text>
<text text-anchor="start" x="8" y="-1998.6" font-family="Times,serif" font-size="13.00">http://railroady.prestonlee.com</text>
</g>
<!-- AbstractBuilder -->
<g id="node2" class="node"><title>AbstractBuilder</title>
<polygon fill="none" stroke="black" points="226,-2007 226,-2053 332,-2053 332,-2007 226,-2007"/>
<text text-anchor="middle" x="279" y="-2037.8" font-family="Times,serif" font-size="14.00">AbstractBuilder</text>
<polyline fill="none" stroke="black" points="226,-2030 332,-2030 "/>
<text text-anchor="middle" x="279" y="-2014.8" font-family="Times,serif" font-size="14.00"> </text>
</g>
<!-- Company -->
<g id="node3" class="node"><title>Company</title>
<path fill="none" stroke="black" d="M788.5,-1924.5C788.5,-1924.5 905.5,-1924.5 905.5,-1924.5 911.5,-1924.5 917.5,-1930.5 917.5,-1936.5 917.5,-1936.5 917.5,-2123.5 917.5,-2123.5 917.5,-2129.5 911.5,-2135.5 905.5,-2135.5 905.5,-2135.5 788.5,-2135.5 788.5,-2135.5 782.5,-2135.5 776.5,-2129.5 776.5,-2123.5 776.5,-2123.5 776.5,-1936.5 776.5,-1936.5 776.5,-1930.5 782.5,-1924.5 788.5,-1924.5"/>
<text text-anchor="middle" x="847" y="-2120.3" font-family="Times,serif" font-size="14.00">Company</text>
<polyline fill="none" stroke="black" points="776.5,-2112.5 917.5,-2112.5 "/>
<text text-anchor="start" x="784.5" y="-2097.3" font-family="Times,serif" font-size="14.00">id :integer</text>
<text text-anchor="start" x="784.5" y="-2082.3" font-family="Times,serif" font-size="14.00">name :string</text>
<text text-anchor="start" x="784.5" y="-2067.3" font-family="Times,serif" font-size="14.00">billing_address :string</text>
<text text-anchor="start" x="784.5" y="-2052.3" font-family="Times,serif" font-size="14.00">billing_contact :string</text>
<text text-anchor="start" x="784.5" y="-2037.3" font-family="Times,serif" font-size="14.00">city :string</text>
<text text-anchor="start" x="784.5" y="-2022.3" font-family="Times,serif" font-size="14.00">state :string</text>
<text text-anchor="start" x="784.5" y="-2007.3" font-family="Times,serif" font-size="14.00">zip :string</text>
<text text-anchor="start" x="784.5" y="-1992.3" font-family="Times,serif" font-size="14.00">phone :string</text>
<text text-anchor="start" x="784.5" y="-1977.3" font-family="Times,serif" font-size="14.00">email :string</text>
<text text-anchor="start" x="784.5" y="-1962.3" font-family="Times,serif" font-size="14.00">created_at :datetime</text>
<text text-anchor="start" x="784.5" y="-1947.3" font-family="Times,serif" font-size="14.00">updated_at :datetime</text>
<text text-anchor="start" x="784.5" y="-1932.3" font-family="Times,serif" font-size="14.00">type :string</text>
</g>
<!-- Employee -->
<g id="node6" class="node"><title>Employee</title>
<path fill="none" stroke="black" d="M690.5,-1464.5C690.5,-1464.5 871.5,-1464.5 871.5,-1464.5 877.5,-1464.5 883.5,-1470.5 883.5,-1476.5 883.5,-1476.5 883.5,-1873.5 883.5,-1873.5 883.5,-1879.5 877.5,-1885.5 871.5,-1885.5 871.5,-1885.5 690.5,-1885.5 690.5,-1885.5 684.5,-1885.5 678.5,-1879.5 678.5,-1873.5 678.5,-1873.5 678.5,-1476.5 678.5,-1476.5 678.5,-1470.5 684.5,-1464.5 690.5,-1464.5"/>
<text text-anchor="middle" x="781" y="-1870.3" font-family="Times,serif" font-size="14.00">Employee</text>
<polyline fill="none" stroke="black" points="678.5,-1862.5 883.5,-1862.5 "/>
<text text-anchor="start" x="686.5" y="-1847.3" font-family="Times,serif" font-size="14.00">id :integer</text>
<text text-anchor="start" x="686.5" y="-1832.3" font-family="Times,serif" font-size="14.00">email :string</text>
<text text-anchor="start" x="686.5" y="-1817.3" font-family="Times,serif" font-size="14.00">encrypted_password :string</text>
<text text-anchor="start" x="686.5" y="-1802.3" font-family="Times,serif" font-size="14.00">reset_password_token :string</text>
<text text-anchor="start" x="686.5" y="-1787.3" font-family="Times,serif" font-size="14.00">reset_password_sent_at :datetime</text>
<text text-anchor="start" x="686.5" y="-1772.3" font-family="Times,serif" font-size="14.00">remember_created_at :datetime</text>
<text text-anchor="start" x="686.5" y="-1757.3" font-family="Times,serif" font-size="14.00">sign_in_count :integer</text>
<text text-anchor="start" x="686.5" y="-1742.3" font-family="Times,serif" font-size="14.00">current_sign_in_at :datetime</text>
<text text-anchor="start" x="686.5" y="-1727.3" font-family="Times,serif" font-size="14.00">last_sign_in_at :datetime</text>
<text text-anchor="start" x="686.5" y="-1712.3" font-family="Times,serif" font-size="14.00">current_sign_in_ip :string</text>
<text text-anchor="start" x="686.5" y="-1697.3" font-family="Times,serif" font-size="14.00">last_sign_in_ip :string</text>
<text text-anchor="start" x="686.5" y="-1682.3" font-family="Times,serif" font-size="14.00">created_at :datetime</text>
<text text-anchor="start" x="686.5" y="-1667.3" font-family="Times,serif" font-size="14.00">updated_at :datetime</text>
<text text-anchor="start" x="686.5" y="-1652.3" font-family="Times,serif" font-size="14.00">role :integer</text>
<text text-anchor="start" x="686.5" y="-1637.3" font-family="Times,serif" font-size="14.00">confirmation_token :string</text>
<text text-anchor="start" x="686.5" y="-1622.3" font-family="Times,serif" font-size="14.00">confirmed_at :datetime</text>
<text text-anchor="start" x="686.5" y="-1607.3" font-family="Times,serif" font-size="14.00">confirmation_sent_at :datetime</text>
<text text-anchor="start" x="686.5" y="-1592.3" font-family="Times,serif" font-size="14.00">unconfirmed_email :string</text>
<text text-anchor="start" x="686.5" y="-1577.3" font-family="Times,serif" font-size="14.00">name :string</text>
<text text-anchor="start" x="686.5" y="-1562.3" font-family="Times,serif" font-size="14.00">first_name :string</text>
<text text-anchor="start" x="686.5" y="-1547.3" font-family="Times,serif" font-size="14.00">last_name :string</text>
<text text-anchor="start" x="686.5" y="-1532.3" font-family="Times,serif" font-size="14.00">phone :string</text>
<text text-anchor="start" x="686.5" y="-1517.3" font-family="Times,serif" font-size="14.00">type :string</text>
<text text-anchor="start" x="686.5" y="-1502.3" font-family="Times,serif" font-size="14.00">service_id :integer</text>
<text text-anchor="start" x="686.5" y="-1487.3" font-family="Times,serif" font-size="14.00">company_id :integer</text>
<text text-anchor="start" x="686.5" y="-1472.3" font-family="Times,serif" font-size="14.00">lawfirm_id :integer</text>
</g>
<!-- Company&#45;&gt;Employee -->
<g id="edge2" class="edge"><title>Company&#45;&gt;Employee</title>
<path fill="none" stroke="#79bb1f" d="M825.854,-1915.9C824.624,-1909.32 823.37,-1902.61 822.098,-1895.81"/>
<ellipse fill="none" stroke="#79bb1f" cx="826.641" cy="-1920.11" rx="4.00001" ry="4.00001"/>
<polygon fill="#79bb1f" stroke="#79bb1f" points="822.062,-1895.62 824.647,-1884.96 821.143,-1890.7 820.224,-1885.79 820.224,-1885.79 820.224,-1885.79 821.143,-1890.7 815.8,-1886.62 822.062,-1895.62 822.062,-1895.62"/>
</g>
<!-- Flow -->
<g id="node7" class="node"><title>Flow</title>
<path fill="none" stroke="black" d="M648,-562.5C648,-562.5 758,-562.5 758,-562.5 764,-562.5 770,-568.5 770,-574.5 770,-574.5 770,-701.5 770,-701.5 770,-707.5 764,-713.5 758,-713.5 758,-713.5 648,-713.5 648,-713.5 642,-713.5 636,-707.5 636,-701.5 636,-701.5 636,-574.5 636,-574.5 636,-568.5 642,-562.5 648,-562.5"/>
<text text-anchor="middle" x="703" y="-698.3" font-family="Times,serif" font-size="14.00">Flow</text>
<polyline fill="none" stroke="black" points="636,-690.5 770,-690.5 "/>
<text text-anchor="start" x="644" y="-675.3" font-family="Times,serif" font-size="14.00">id :integer</text>
<text text-anchor="start" x="644" y="-660.3" font-family="Times,serif" font-size="14.00">flow_type :string</text>
<text text-anchor="start" x="644" y="-645.3" font-family="Times,serif" font-size="14.00">assignee :string</text>
<text text-anchor="start" x="644" y="-630.3" font-family="Times,serif" font-size="14.00">received_at :date</text>
<text text-anchor="start" x="644" y="-615.3" font-family="Times,serif" font-size="14.00">completed_at :date</text>
<text text-anchor="start" x="644" y="-600.3" font-family="Times,serif" font-size="14.00">created_at :datetime</text>
<text text-anchor="start" x="644" y="-585.3" font-family="Times,serif" font-size="14.00">updated_at :datetime</text>
<text text-anchor="start" x="644" y="-570.3" font-family="Times,serif" font-size="14.00">service_id :integer</text>
</g>
<!-- Company&#45;&gt;Flow -->
<g id="edge4" class="edge"><title>Company&#45;&gt;Flow</title>
<path fill="none" stroke="#20adfc" d="M920.651,-1921.39C922.685,-1916.3 924.487,-1911.15 926,-1906 983.822,-1708.98 937.481,-1649.01 926,-1444 908.194,-1126.06 1013.26,-1002.97 846,-732 841.413,-724.568 810.692,-704.24 778.895,-684.478"/>
<ellipse fill="none" stroke="#20adfc" cx="919.068" cy="-1925.14" rx="4.00002" ry="4.00002"/>
<polygon fill="#20adfc" stroke="#20adfc" points="778.868,-684.462 772.729,-675.376 774.615,-681.832 770.362,-679.203 770.362,-679.203 770.362,-679.203 774.615,-681.832 767.996,-683.031 778.868,-684.462 778.868,-684.462"/>
</g>
<!-- Service -->
<g id="node15" class="node"><title>Service</title>
<path fill="none" stroke="black" d="M352,-1169C352,-1169 482,-1169 482,-1169 488,-1169 494,-1175 494,-1181 494,-1181 494,-1413 494,-1413 494,-1419 488,-1425 482,-1425 482,-1425 352,-1425 352,-1425 346,-1425 340,-1419 340,-1413 340,-1413 340,-1181 340,-1181 340,-1175 346,-1169 352,-1169"/>
<text text-anchor="middle" x="417" y="-1409.8" font-family="Times,serif" font-size="14.00">Service</text>
<polyline fill="none" stroke="black" points="340,-1402 494,-1402 "/>
<text text-anchor="start" x="348" y="-1386.8" font-family="Times,serif" font-size="14.00">id :integer</text>
<text text-anchor="start" x="348" y="-1371.8" font-family="Times,serif" font-size="14.00">county :string</text>
<text text-anchor="start" x="348" y="-1356.8" font-family="Times,serif" font-size="14.00">start_date :date</text>
<text text-anchor="start" x="348" y="-1341.8" font-family="Times,serif" font-size="14.00">end_date :date</text>
<text text-anchor="start" x="348" y="-1326.8" font-family="Times,serif" font-size="14.00">requested_delivery :date</text>
<text text-anchor="start" x="348" y="-1311.8" font-family="Times,serif" font-size="14.00">lease_file :string</text>
<text text-anchor="start" x="348" y="-1296.8" font-family="Times,serif" font-size="14.00">created_at :datetime</text>
<text text-anchor="start" x="348" y="-1281.8" font-family="Times,serif" font-size="14.00">updated_at :datetime</text>
<text text-anchor="start" x="348" y="-1266.8" font-family="Times,serif" font-size="14.00">lease_id :integer</text>
<text text-anchor="start" x="348" y="-1251.8" font-family="Times,serif" font-size="14.00">lessee_id :integer</text>
<text text-anchor="start" x="348" y="-1236.8" font-family="Times,serif" font-size="14.00">flow_id :integer</text>
<text text-anchor="start" x="348" y="-1221.8" font-family="Times,serif" font-size="14.00">lease_number :string</text>
<text text-anchor="start" x="348" y="-1206.8" font-family="Times,serif" font-size="14.00">state :string</text>
<text text-anchor="start" x="348" y="-1191.8" font-family="Times,serif" font-size="14.00">description :string</text>
<text text-anchor="start" x="348" y="-1176.8" font-family="Times,serif" font-size="14.00">parcel_id :integer</text>
</g>
<!-- Company&#45;&gt;Service -->
<g id="edge3" class="edge"><title>Company&#45;&gt;Service</title>
<path fill="none" stroke="#c43449" d="M769.49,-1979.18C735.538,-1954.38 697.301,-1922 670,-1886 565.536,-1748.24 494.604,-1560.76 455.029,-1434.87"/>
<ellipse fill="none" stroke="#c43449" cx="772.975" cy="-1981.7" rx="4.00002" ry="4.00002"/>
<polygon fill="#c43449" stroke="#c43449" points="454.977,-1434.71 456.295,-1423.82 453.488,-1429.93 451.999,-1425.16 451.999,-1425.16 451.999,-1425.16 453.488,-1429.93 447.704,-1426.5 454.977,-1434.71 454.977,-1434.71"/>
</g>
<!-- User -->
<g id="node18" class="node"><title>User</title>
<path fill="none" stroke="black" d="M389.5,-88.5C389.5,-88.5 570.5,-88.5 570.5,-88.5 576.5,-88.5 582.5,-94.5 582.5,-100.5 582.5,-100.5 582.5,-497.5 582.5,-497.5 582.5,-503.5 576.5,-509.5 570.5,-509.5 570.5,-509.5 389.5,-509.5 389.5,-509.5 383.5,-509.5 377.5,-503.5 377.5,-497.5 377.5,-497.5 377.5,-100.5 377.5,-100.5 377.5,-94.5 383.5,-88.5 389.5,-88.5"/>
<text text-anchor="middle" x="480" y="-494.3" font-family="Times,serif" font-size="14.00">User</text>
<polyline fill="none" stroke="black" points="377.5,-486.5 582.5,-486.5 "/>
<text text-anchor="start" x="385.5" y="-471.3" font-family="Times,serif" font-size="14.00">id :integer</text>
<text text-anchor="start" x="385.5" y="-456.3" font-family="Times,serif" font-size="14.00">email :string</text>
<text text-anchor="start" x="385.5" y="-441.3" font-family="Times,serif" font-size="14.00">encrypted_password :string</text>
<text text-anchor="start" x="385.5" y="-426.3" font-family="Times,serif" font-size="14.00">reset_password_token :string</text>
<text text-anchor="start" x="385.5" y="-411.3" font-family="Times,serif" font-size="14.00">reset_password_sent_at :datetime</text>
<text text-anchor="start" x="385.5" y="-396.3" font-family="Times,serif" font-size="14.00">remember_created_at :datetime</text>
<text text-anchor="start" x="385.5" y="-381.3" font-family="Times,serif" font-size="14.00">sign_in_count :integer</text>
<text text-anchor="start" x="385.5" y="-366.3" font-family="Times,serif" font-size="14.00">current_sign_in_at :datetime</text>
<text text-anchor="start" x="385.5" y="-351.3" font-family="Times,serif" font-size="14.00">last_sign_in_at :datetime</text>
<text text-anchor="start" x="385.5" y="-336.3" font-family="Times,serif" font-size="14.00">current_sign_in_ip :string</text>
<text text-anchor="start" x="385.5" y="-321.3" font-family="Times,serif" font-size="14.00">last_sign_in_ip :string</text>
<text text-anchor="start" x="385.5" y="-306.3" font-family="Times,serif" font-size="14.00">created_at :datetime</text>
<text text-anchor="start" x="385.5" y="-291.3" font-family="Times,serif" font-size="14.00">updated_at :datetime</text>
<text text-anchor="start" x="385.5" y="-276.3" font-family="Times,serif" font-size="14.00">role :integer</text>
<text text-anchor="start" x="385.5" y="-261.3" font-family="Times,serif" font-size="14.00">confirmation_token :string</text>
<text text-anchor="start" x="385.5" y="-246.3" font-family="Times,serif" font-size="14.00">confirmed_at :datetime</text>
<text text-anchor="start" x="385.5" y="-231.3" font-family="Times,serif" font-size="14.00">confirmation_sent_at :datetime</text>
<text text-anchor="start" x="385.5" y="-216.3" font-family="Times,serif" font-size="14.00">unconfirmed_email :string</text>
<text text-anchor="start" x="385.5" y="-201.3" font-family="Times,serif" font-size="14.00">name :string</text>
<text text-anchor="start" x="385.5" y="-186.3" font-family="Times,serif" font-size="14.00">first_name :string</text>
<text text-anchor="start" x="385.5" y="-171.3" font-family="Times,serif" font-size="14.00">last_name :string</text>
<text text-anchor="start" x="385.5" y="-156.3" font-family="Times,serif" font-size="14.00">phone :string</text>
<text text-anchor="start" x="385.5" y="-141.3" font-family="Times,serif" font-size="14.00">type :string</text>
<text text-anchor="start" x="385.5" y="-126.3" font-family="Times,serif" font-size="14.00">service_id :integer</text>
<text text-anchor="start" x="385.5" y="-111.3" font-family="Times,serif" font-size="14.00">company_id :integer</text>
<text text-anchor="start" x="385.5" y="-96.3" font-family="Times,serif" font-size="14.00">lawfirm_id :integer</text>
</g>
<!-- Company&#45;&gt;User -->
<g id="edge1" class="edge"><title>Company&#45;&gt;User</title>
<path fill="none" stroke="#2b7eea" d="M884.83,-1916.43C887.532,-1906.21 889.982,-1895.96 892,-1886 910.618,-1794.11 912,-1769.76 912,-1676 912,-1676 912,-1676 912,-1148 912,-880.932 934.378,-779.216 779,-562 727.601,-490.145 652.849,-424.643 590.947,-377.107"/>
<ellipse fill="none" stroke="#2b7eea" cx="883.763" cy="-1920.37" rx="4.00001" ry="4.00001"/>
<polygon fill="#2b7eea" stroke="#2b7eea" points="590.644,-376.875 585.418,-367.234 586.667,-373.844 582.69,-370.813 582.69,-370.813 582.69,-370.813 586.667,-373.844 579.963,-374.392 590.644,-376.875 590.644,-376.875"/>
</g>
<!-- Contact -->
<g id="node4" class="node"><title>Contact</title>
<path fill="none" stroke="black" d="M948,-1939.5C948,-1939.5 1058,-1939.5 1058,-1939.5 1064,-1939.5 1070,-1945.5 1070,-1951.5 1070,-1951.5 1070,-2108.5 1070,-2108.5 1070,-2114.5 1064,-2120.5 1058,-2120.5 1058,-2120.5 948,-2120.5 948,-2120.5 942,-2120.5 936,-2114.5 936,-2108.5 936,-2108.5 936,-1951.5 936,-1951.5 936,-1945.5 942,-1939.5 948,-1939.5"/>
<text text-anchor="middle" x="1003" y="-2105.3" font-family="Times,serif" font-size="14.00">Contact</text>
<polyline fill="none" stroke="black" points="936,-2097.5 1070,-2097.5 "/>
<text text-anchor="start" x="944" y="-2082.3" font-family="Times,serif" font-size="14.00">id :integer</text>
<text text-anchor="start" x="944" y="-2067.3" font-family="Times,serif" font-size="14.00">name :string</text>
<text text-anchor="start" x="944" y="-2052.3" font-family="Times,serif" font-size="14.00">address :string</text>
<text text-anchor="start" x="944" y="-2037.3" font-family="Times,serif" font-size="14.00">city :string</text>
<text text-anchor="start" x="944" y="-2022.3" font-family="Times,serif" font-size="14.00">state :string</text>
<text text-anchor="start" x="944" y="-2007.3" font-family="Times,serif" font-size="14.00">zip :string</text>
<text text-anchor="start" x="944" y="-1992.3" font-family="Times,serif" font-size="14.00">phone :string</text>
<text text-anchor="start" x="944" y="-1977.3" font-family="Times,serif" font-size="14.00">email :string</text>
<text text-anchor="start" x="944" y="-1962.3" font-family="Times,serif" font-size="14.00">created_at :datetime</text>
<text text-anchor="start" x="944" y="-1947.3" font-family="Times,serif" font-size="14.00">updated_at :datetime</text>
</g>
<!-- CurativeBuilder -->
<g id="node5" class="node"><title>CurativeBuilder</title>
<polygon fill="none" stroke="black" points="1088.5,-2007 1088.5,-2053 1195.5,-2053 1195.5,-2007 1088.5,-2007"/>
<text text-anchor="middle" x="1142" y="-2037.8" font-family="Times,serif" font-size="14.00">CurativeBuilder</text>
<polyline fill="none" stroke="black" points="1088.5,-2030 1195.5,-2030 "/>
<text text-anchor="middle" x="1142" y="-2014.8" font-family="Times,serif" font-size="14.00"> </text>
</g>
<!-- Employee&#45;&gt;Service -->
<g id="edge6" class="edge"><title>Employee&#45;&gt;Service</title>
<path fill="none" stroke="#c22600" d="M673.279,-1499.01C658.409,-1479.61 642.531,-1460.81 626,-1444 589.639,-1407.02 542.782,-1373.31 502.653,-1347.62"/>
<ellipse fill="none" stroke="#c22600" cx="675.867" cy="-1502.42" rx="4.00002" ry="4.00002"/>
<polygon fill="#c22600" stroke="#c22600" points="502.644,-1347.62 496.607,-1338.46 498.421,-1344.94 494.198,-1342.26 494.198,-1342.26 494.198,-1342.26 498.421,-1344.94 491.789,-1346.06 502.644,-1347.62 502.644,-1347.62"/>
</g>
<!-- PaperTrail::Version -->
<g id="node19" class="node"><title>PaperTrail::Version</title>
<ellipse fill="none" stroke="black" cx="234" cy="-18" rx="83.2892" ry="18"/>
<text text-anchor="middle" x="234" y="-14.3" font-family="Times,serif" font-size="14.00">PaperTrail::Version</text>
</g>
<!-- Employee&#45;&gt;PaperTrail::Version -->
<g id="edge5" class="edge"><title>Employee&#45;&gt;PaperTrail::Version</title>
<path fill="none" stroke="#cd1c3c" d="M794.201,-1455.99C796.409,-1404.22 798,-1349.17 798,-1298 798,-1298 798,-1298 798,-298 798,-166.946 706.525,-149.88 591,-88 544.203,-62.9334 404.795,-41.0201 314.669,-28.9369"/>
<ellipse fill="none" stroke="#cd1c3c" cx="794.015" cy="-1460.27" rx="4" ry="4"/>
<polygon fill="#cd1c3c" stroke="#cd1c3c" points="314.661,-28.936 305.34,-23.1589 309.705,-28.2779 304.748,-27.6198 304.748,-27.6198 304.748,-27.6198 309.705,-28.2779 304.156,-32.0806 314.661,-28.936 314.661,-28.936"/>
<text text-anchor="middle" x="821.5" y="-797.3" font-family="Times,serif" font-size="14.00">versions</text>
</g>
<!-- ServicesRequest -->
<g id="node20" class="node"><title>ServicesRequest</title>
<ellipse fill="none" stroke="black" cx="480" cy="-18" rx="70.2668" ry="18"/>
<text text-anchor="middle" x="480" y="-14.3" font-family="Times,serif" font-size="14.00">ServicesRequest</text>
</g>
<!-- Employee&#45;&gt;ServicesRequest -->
<g id="edge7" class="edge"><title>Employee&#45;&gt;ServicesRequest</title>
<path fill="none" stroke="#21155b" d="M820.936,-1456.37C887.822,-1061.45 997.881,-249.516 812,-54 794.895,-36.0086 651.985,-26.4224 559.32,-22.0493"/>
<ellipse fill="none" stroke="#21155b" cx="820.231" cy="-1460.52" rx="4.00001" ry="4.00001"/>
<polygon fill="#21155b" stroke="#21155b" points="559.109,-22.0396 549.327,-17.084 554.115,-21.8094 549.12,-21.5792 549.12,-21.5792 549.12,-21.5792 554.115,-21.8094 548.913,-26.0745 559.109,-22.0396 559.109,-22.0396"/>
</g>
<!-- Flow&#45;&gt;User -->
<g id="edge8" class="edge"><title>Flow&#45;&gt;User</title>
<path fill="none" stroke="#fdfd7a" d="M649.022,-555.427C630.622,-527.622 609.345,-495.468 588.225,-463.551"/>
<ellipse fill="none" stroke="#fdfd7a" cx="651.302" cy="-558.873" rx="4.00002" ry="4.00002"/>
<polygon fill="#fdfd7a" stroke="#fdfd7a" points="588.087,-463.342 586.322,-452.52 585.328,-459.173 582.569,-455.003 582.569,-455.003 582.569,-455.003 585.328,-459.173 578.816,-457.486 588.087,-463.342 588.087,-463.342"/>
</g>
<!-- Lawfirm -->
<g id="node8" class="node"><title>Lawfirm</title>
<path fill="none" stroke="black" d="M362,-1939.5C362,-1939.5 472,-1939.5 472,-1939.5 478,-1939.5 484,-1945.5 484,-1951.5 484,-1951.5 484,-2108.5 484,-2108.5 484,-2114.5 478,-2120.5 472,-2120.5 472,-2120.5 362,-2120.5 362,-2120.5 356,-2120.5 350,-2114.5 350,-2108.5 350,-2108.5 350,-1951.5 350,-1951.5 350,-1945.5 356,-1939.5 362,-1939.5"/>
<text text-anchor="middle" x="417" y="-2105.3" font-family="Times,serif" font-size="14.00">Lawfirm</text>
<polyline fill="none" stroke="black" points="350,-2097.5 484,-2097.5 "/>
<text text-anchor="start" x="358" y="-2082.3" font-family="Times,serif" font-size="14.00">id :integer</text>
<text text-anchor="start" x="358" y="-2067.3" font-family="Times,serif" font-size="14.00">name :string</text>
<text text-anchor="start" x="358" y="-2052.3" font-family="Times,serif" font-size="14.00">address :string</text>
<text text-anchor="start" x="358" y="-2037.3" font-family="Times,serif" font-size="14.00">city :string</text>
<text text-anchor="start" x="358" y="-2022.3" font-family="Times,serif" font-size="14.00">state :string</text>
<text text-anchor="start" x="358" y="-2007.3" font-family="Times,serif" font-size="14.00">zip :string</text>
<text text-anchor="start" x="358" y="-1992.3" font-family="Times,serif" font-size="14.00">phone :string</text>
<text text-anchor="start" x="358" y="-1977.3" font-family="Times,serif" font-size="14.00">email :string</text>
<text text-anchor="start" x="358" y="-1962.3" font-family="Times,serif" font-size="14.00">created_at :datetime</text>
<text text-anchor="start" x="358" y="-1947.3" font-family="Times,serif" font-size="14.00">updated_at :datetime</text>
</g>
<!-- Lawfirm&#45;&gt;Flow -->
<g id="edge11" class="edge"><title>Lawfirm&#45;&gt;Flow</title>
<path fill="none" stroke="#b8b099" d="M462.334,-1931.79C535.201,-1769.79 675.607,-1432.49 729,-1130 759.75,-955.795 760.488,-906.749 733,-732 732.555,-729.172 732.039,-726.313 731.462,-723.438"/>
<ellipse fill="none" stroke="#b8b099" cx="460.56" cy="-1935.72" rx="4.00002" ry="4.00002"/>
<polygon fill="#b8b099" stroke="#b8b099" points="731.452,-723.395 733.677,-712.657 730.368,-718.514 729.284,-713.633 729.284,-713.633 729.284,-713.633 730.368,-718.514 724.891,-714.608 731.452,-723.395 731.452,-723.395"/>
</g>
<!-- Lawyer -->
<g id="node9" class="node"><title>Lawyer</title>
<path fill="none" stroke="black" d="M80.5,-1464.5C80.5,-1464.5 261.5,-1464.5 261.5,-1464.5 267.5,-1464.5 273.5,-1470.5 273.5,-1476.5 273.5,-1476.5 273.5,-1873.5 273.5,-1873.5 273.5,-1879.5 267.5,-1885.5 261.5,-1885.5 261.5,-1885.5 80.5,-1885.5 80.5,-1885.5 74.5,-1885.5 68.5,-1879.5 68.5,-1873.5 68.5,-1873.5 68.5,-1476.5 68.5,-1476.5 68.5,-1470.5 74.5,-1464.5 80.5,-1464.5"/>
<text text-anchor="middle" x="171" y="-1870.3" font-family="Times,serif" font-size="14.00">Lawyer</text>
<polyline fill="none" stroke="black" points="68.5,-1862.5 273.5,-1862.5 "/>
<text text-anchor="start" x="76.5" y="-1847.3" font-family="Times,serif" font-size="14.00">id :integer</text>
<text text-anchor="start" x="76.5" y="-1832.3" font-family="Times,serif" font-size="14.00">email :string</text>
<text text-anchor="start" x="76.5" y="-1817.3" font-family="Times,serif" font-size="14.00">encrypted_password :string</text>
<text text-anchor="start" x="76.5" y="-1802.3" font-family="Times,serif" font-size="14.00">reset_password_token :string</text>
<text text-anchor="start" x="76.5" y="-1787.3" font-family="Times,serif" font-size="14.00">reset_password_sent_at :datetime</text>
<text text-anchor="start" x="76.5" y="-1772.3" font-family="Times,serif" font-size="14.00">remember_created_at :datetime</text>
<text text-anchor="start" x="76.5" y="-1757.3" font-family="Times,serif" font-size="14.00">sign_in_count :integer</text>
<text text-anchor="start" x="76.5" y="-1742.3" font-family="Times,serif" font-size="14.00">current_sign_in_at :datetime</text>
<text text-anchor="start" x="76.5" y="-1727.3" font-family="Times,serif" font-size="14.00">last_sign_in_at :datetime</text>
<text text-anchor="start" x="76.5" y="-1712.3" font-family="Times,serif" font-size="14.00">current_sign_in_ip :string</text>
<text text-anchor="start" x="76.5" y="-1697.3" font-family="Times,serif" font-size="14.00">last_sign_in_ip :string</text>
<text text-anchor="start" x="76.5" y="-1682.3" font-family="Times,serif" font-size="14.00">created_at :datetime</text>
<text text-anchor="start" x="76.5" y="-1667.3" font-family="Times,serif" font-size="14.00">updated_at :datetime</text>
<text text-anchor="start" x="76.5" y="-1652.3" font-family="Times,serif" font-size="14.00">role :integer</text>
<text text-anchor="start" x="76.5" y="-1637.3" font-family="Times,serif" font-size="14.00">confirmation_token :string</text>
<text text-anchor="start" x="76.5" y="-1622.3" font-family="Times,serif" font-size="14.00">confirmed_at :datetime</text>
<text text-anchor="start" x="76.5" y="-1607.3" font-family="Times,serif" font-size="14.00">confirmation_sent_at :datetime</text>
<text text-anchor="start" x="76.5" y="-1592.3" font-family="Times,serif" font-size="14.00">unconfirmed_email :string</text>
<text text-anchor="start" x="76.5" y="-1577.3" font-family="Times,serif" font-size="14.00">name :string</text>
<text text-anchor="start" x="76.5" y="-1562.3" font-family="Times,serif" font-size="14.00">first_name :string</text>
<text text-anchor="start" x="76.5" y="-1547.3" font-family="Times,serif" font-size="14.00">last_name :string</text>
<text text-anchor="start" x="76.5" y="-1532.3" font-family="Times,serif" font-size="14.00">phone :string</text>
<text text-anchor="start" x="76.5" y="-1517.3" font-family="Times,serif" font-size="14.00">type :string</text>
<text text-anchor="start" x="76.5" y="-1502.3" font-family="Times,serif" font-size="14.00">service_id :integer</text>
<text text-anchor="start" x="76.5" y="-1487.3" font-family="Times,serif" font-size="14.00">company_id :integer</text>
<text text-anchor="start" x="76.5" y="-1472.3" font-family="Times,serif" font-size="14.00">lawfirm_id :integer</text>
</g>
<!-- Lawfirm&#45;&gt;Lawyer -->
<g id="edge9" class="edge"><title>Lawfirm&#45;&gt;Lawyer</title>
<path fill="none" stroke="#709a0e" d="M349.953,-1932.79C328.195,-1901.57 303.468,-1866.09 279.488,-1831.68"/>
<ellipse fill="none" stroke="#709a0e" cx="352.319" cy="-1936.19" rx="4.00002" ry="4.00002"/>
<polygon fill="#709a0e" stroke="#709a0e" points="279.455,-1831.63 277.429,-1820.85 276.596,-1827.53 273.737,-1823.42 273.737,-1823.42 273.737,-1823.42 276.596,-1827.53 270.045,-1826 279.455,-1831.63 279.455,-1831.63"/>
</g>
<!-- Lawfirm&#45;&gt;Service -->
<g id="edge10" class="edge"><title>Lawfirm&#45;&gt;Service</title>
<path fill="none" stroke="#d337e0" d="M417,-1931.3C417,-1803.83 417,-1580.05 417,-1435.49"/>
<ellipse fill="none" stroke="#d337e0" cx="417" cy="-1935.37" rx="4" ry="4"/>
<polygon fill="#d337e0" stroke="#d337e0" points="417,-1435.23 421.5,-1425.23 417,-1430.23 417,-1425.23 417,-1425.23 417,-1425.23 417,-1430.23 412.5,-1425.23 417,-1435.23 417,-1435.23"/>
</g>
<!-- Lawyer&#45;&gt;Service -->
<g id="edge13" class="edge"><title>Lawyer&#45;&gt;Service</title>
<path fill="none" stroke="#c76b27" d="M277.982,-1510.48C296.868,-1481.62 316.267,-1451.97 334.356,-1424.32"/>
<ellipse fill="none" stroke="#c76b27" cx="275.735" cy="-1513.92" rx="4.00002" ry="4.00002"/>
<polygon fill="#c76b27" stroke="#c76b27" points="334.451,-1424.17 343.692,-1418.27 337.189,-1419.99 339.926,-1415.8 339.926,-1415.8 339.926,-1415.8 337.189,-1419.99 336.161,-1413.34 334.451,-1424.17 334.451,-1424.17"/>
</g>
<!-- Lawyer&#45;&gt;PaperTrail::Version -->
<g id="edge12" class="edge"><title>Lawyer&#45;&gt;PaperTrail::Version</title>
<path fill="none" stroke="#fceb2b" d="M76.9242,-1456.59C61.802,-1405.52 51,-1350.63 51,-1298 51,-1298 51,-1298 51,-298 51,-187.204 153.154,-86.2255 204.815,-42.2427"/>
<ellipse fill="none" stroke="#fceb2b" cx="78.1314" cy="-1460.59" rx="4.00001" ry="4.00001"/>
<polygon fill="#fceb2b" stroke="#fceb2b" points="204.983,-42.1016 215.539,-39.13 208.816,-38.8909 212.649,-35.6803 212.649,-35.6803 212.649,-35.6803 208.816,-38.8909 209.76,-32.2306 204.983,-42.1016 204.983,-42.1016"/>
<text text-anchor="middle" x="74.5" y="-797.3" font-family="Times,serif" font-size="14.00">versions</text>
</g>
<!-- Lawyer&#45;&gt;ServicesRequest -->
<g id="edge14" class="edge"><title>Lawyer&#45;&gt;ServicesRequest</title>
<path fill="none" stroke="#168e21" d="M125.871,-1456.16C118.384,-1404.54 113,-1349.52 113,-1298 113,-1298 113,-1298 113,-800 113,-459.646 34.2829,-283.084 286,-54 303.126,-38.4141 356.353,-29.526 402.73,-24.6097"/>
<ellipse fill="none" stroke="#168e21" cx="126.456" cy="-1460.12" rx="4.00001" ry="4.00001"/>
<polygon fill="#168e21" stroke="#168e21" points="402.862,-24.5965 413.264,-28.0678 407.836,-24.0936 412.811,-23.5906 412.811,-23.5906 412.811,-23.5906 407.836,-24.0936 412.358,-19.1134 402.862,-24.5965 402.862,-24.5965"/>
</g>
<!-- Lease -->
<g id="node10" class="node"><title>Lease</title>
<path fill="none" stroke="black" d="M572,-926C572,-926 682,-926 682,-926 688,-926 694,-932 694,-938 694,-938 694,-1080 694,-1080 694,-1086 688,-1092 682,-1092 682,-1092 572,-1092 572,-1092 566,-1092 560,-1086 560,-1080 560,-1080 560,-938 560,-938 560,-932 566,-926 572,-926"/>
<text text-anchor="middle" x="627" y="-1076.8" font-family="Times,serif" font-size="14.00">Lease</text>
<polyline fill="none" stroke="black" points="560,-1069 694,-1069 "/>
<text text-anchor="start" x="568" y="-1053.8" font-family="Times,serif" font-size="14.00">id :integer</text>
<text text-anchor="start" x="568" y="-1038.8" font-family="Times,serif" font-size="14.00">lease_number :string</text>
<text text-anchor="start" x="568" y="-1023.8" font-family="Times,serif" font-size="14.00">lessee :integer</text>
<text text-anchor="start" x="568" y="-1008.8" font-family="Times,serif" font-size="14.00">description :string</text>
<text text-anchor="start" x="568" y="-993.8" font-family="Times,serif" font-size="14.00">comments :text</text>
<text text-anchor="start" x="568" y="-978.8" font-family="Times,serif" font-size="14.00">user_id :integer</text>
<text text-anchor="start" x="568" y="-963.8" font-family="Times,serif" font-size="14.00">created_at :datetime</text>
<text text-anchor="start" x="568" y="-948.8" font-family="Times,serif" font-size="14.00">updated_at :datetime</text>
<text text-anchor="start" x="568" y="-933.8" font-family="Times,serif" font-size="14.00">service_id :integer</text>
</g>
<!-- Lease&#45;&gt;Flow -->
<g id="edge15" class="edge"><title>Lease&#45;&gt;Flow</title>
<path fill="none" stroke="#08dec4" d="M645.595,-917.718C657.798,-858.465 673.652,-781.492 685.606,-723.454"/>
<ellipse fill="none" stroke="#08dec4" cx="644.768" cy="-921.731" rx="4.00001" ry="4.00001"/>
<polygon fill="#08dec4" stroke="#08dec4" points="685.622,-723.373 692.047,-714.486 686.631,-718.475 687.64,-713.578 687.64,-713.578 687.64,-713.578 686.631,-718.475 683.232,-712.67 685.622,-723.373 685.622,-723.373"/>
</g>
<!-- Lessee -->
<g id="node11" class="node"><title>Lessee</title>
<path fill="none" stroke="black" d="M268,-888.5C268,-888.5 378,-888.5 378,-888.5 384,-888.5 390,-894.5 390,-900.5 390,-900.5 390,-1117.5 390,-1117.5 390,-1123.5 384,-1129.5 378,-1129.5 378,-1129.5 268,-1129.5 268,-1129.5 262,-1129.5 256,-1123.5 256,-1117.5 256,-1117.5 256,-900.5 256,-900.5 256,-894.5 262,-888.5 268,-888.5"/>
<text text-anchor="middle" x="323" y="-1114.3" font-family="Times,serif" font-size="14.00">Lessee</text>
<polyline fill="none" stroke="black" points="256,-1106.5 390,-1106.5 "/>
<text text-anchor="start" x="264" y="-1091.3" font-family="Times,serif" font-size="14.00">id :integer</text>
<text text-anchor="start" x="264" y="-1076.3" font-family="Times,serif" font-size="14.00">last_name :string</text>
<text text-anchor="start" x="264" y="-1061.3" font-family="Times,serif" font-size="14.00">first_name :string</text>
<text text-anchor="start" x="264" y="-1046.3" font-family="Times,serif" font-size="14.00">address :string</text>
<text text-anchor="start" x="264" y="-1031.3" font-family="Times,serif" font-size="14.00">city :string</text>
<text text-anchor="start" x="264" y="-1016.3" font-family="Times,serif" font-size="14.00">state :string</text>
<text text-anchor="start" x="264" y="-1001.3" font-family="Times,serif" font-size="14.00">zip :string</text>
<text text-anchor="start" x="264" y="-986.3" font-family="Times,serif" font-size="14.00">phone :string</text>
<text text-anchor="start" x="264" y="-971.3" font-family="Times,serif" font-size="14.00">email :string</text>
<text text-anchor="start" x="264" y="-956.3" font-family="Times,serif" font-size="14.00">company :string</text>
<text text-anchor="start" x="264" y="-941.3" font-family="Times,serif" font-size="14.00">bus_phone :string</text>
<text text-anchor="start" x="264" y="-926.3" font-family="Times,serif" font-size="14.00">created_at :datetime</text>
<text text-anchor="start" x="264" y="-911.3" font-family="Times,serif" font-size="14.00">updated_at :datetime</text>
<text text-anchor="start" x="264" y="-896.3" font-family="Times,serif" font-size="14.00">service_id :integer</text>
</g>
<!-- OpinionBuilder -->
<g id="node12" class="node"><title>OpinionBuilder</title>
<polygon fill="none" stroke="black" points="1214,-2007 1214,-2053 1318,-2053 1318,-2007 1214,-2007"/>
<text text-anchor="middle" x="1266" y="-2037.8" font-family="Times,serif" font-size="14.00">OpinionBuilder</text>
<polyline fill="none" stroke="black" points="1214,-2030 1318,-2030 "/>
<text text-anchor="middle" x="1266" y="-2014.8" font-family="Times,serif" font-size="14.00"> </text>
</g>
<!-- Parcel -->
<g id="node13" class="node"><title>Parcel</title>
<path fill="none" stroke="black" d="M420,-941C420,-941 530,-941 530,-941 536,-941 542,-947 542,-953 542,-953 542,-1065 542,-1065 542,-1071 536,-1077 530,-1077 530,-1077 420,-1077 420,-1077 414,-1077 408,-1071 408,-1065 408,-1065 408,-953 408,-953 408,-947 414,-941 420,-941"/>
<text text-anchor="middle" x="475" y="-1061.8" font-family="Times,serif" font-size="14.00">Parcel</text>
<polyline fill="none" stroke="black" points="408,-1054 542,-1054 "/>
<text text-anchor="start" x="416" y="-1038.8" font-family="Times,serif" font-size="14.00">id :integer</text>
<text text-anchor="start" x="416" y="-1023.8" font-family="Times,serif" font-size="14.00">tax_map :string</text>
<text text-anchor="start" x="416" y="-1008.8" font-family="Times,serif" font-size="14.00">tax_parcel :string</text>
<text text-anchor="start" x="416" y="-993.8" font-family="Times,serif" font-size="14.00">deed_id :integer</text>
<text text-anchor="start" x="416" y="-978.8" font-family="Times,serif" font-size="14.00">created_at :datetime</text>
<text text-anchor="start" x="416" y="-963.8" font-family="Times,serif" font-size="14.00">updated_at :datetime</text>
<text text-anchor="start" x="416" y="-948.8" font-family="Times,serif" font-size="14.00">service_id :integer</text>
</g>
<!-- RequestStateMachine -->
<g id="node14" class="node"><title>RequestStateMachine</title>
<polygon fill="none" stroke="black" points="1336.5,-2007 1336.5,-2053 1475.5,-2053 1475.5,-2007 1336.5,-2007"/>
<text text-anchor="middle" x="1406" y="-2037.8" font-family="Times,serif" font-size="14.00">RequestStateMachine</text>
<polyline fill="none" stroke="black" points="1336.5,-2030 1475.5,-2030 "/>
<text text-anchor="middle" x="1406" y="-2014.8" font-family="Times,serif" font-size="14.00"> </text>
</g>
<!-- Service&#45;&gt;Flow -->
<g id="edge17" class="edge"><title>Service&#45;&gt;Flow</title>
<path fill="none" stroke="#55d5c9" d="M501.761,-1272.44C569.551,-1248.63 660.105,-1204.49 703,-1130 741.477,-1063.18 725.571,-845.587 712.93,-723.695"/>
<ellipse fill="none" stroke="#55d5c9" cx="497.81" cy="-1273.8" rx="4.00001" ry="4.00001"/>
<polygon fill="#55d5c9" stroke="#55d5c9" points="712.92,-723.592 716.349,-713.176 712.396,-718.62 711.873,-713.647 711.873,-713.647 711.873,-713.647 712.396,-718.62 707.398,-714.118 712.92,-723.592 712.92,-723.592"/>
</g>
<!-- Service&#45;&gt;Lease -->
<g id="edge19" class="edge"><title>Service&#45;&gt;Lease</title>
<path fill="none" stroke="#0a40aa" d="M499.227,-1197.93C516.795,-1175.94 534.897,-1152.47 551,-1130 557.734,-1120.6 564.55,-1110.63 571.192,-1100.59"/>
<ellipse fill="none" stroke="#0a40aa" cx="496.545" cy="-1201.28" rx="4.00002" ry="4.00002"/>
<polygon fill="#0a40aa" stroke="#0a40aa" points="571.237,-1100.53 580.487,-1094.64 573.981,-1096.35 576.725,-1092.17 576.725,-1092.17 576.725,-1092.17 573.981,-1096.35 572.963,-1089.7 571.237,-1100.53 571.237,-1100.53"/>
</g>
<!-- Service&#45;&gt;Lessee -->
<g id="edge18" class="edge"><title>Service&#45;&gt;Lessee</title>
<path fill="none" stroke="#89fd23" d="M372.718,-1161.27C370.348,-1154.06 367.969,-1146.82 365.606,-1139.63"/>
<ellipse fill="none" stroke="#89fd23" cx="373.974" cy="-1165.09" rx="4.00001" ry="4.00001"/>
<polygon fill="#89fd23" stroke="#89fd23" points="365.516,-1139.36 366.669,-1128.45 363.955,-1134.61 362.394,-1129.86 362.394,-1129.86 362.394,-1129.86 363.955,-1134.61 358.119,-1131.26 365.516,-1139.36 365.516,-1139.36"/>
</g>
<!-- Service&#45;&gt;Parcel -->
<g id="edge20" class="edge"><title>Service&#45;&gt;Parcel</title>
<path fill="none" stroke="#655164" d="M444.435,-1160.72C449.564,-1135.43 454.758,-1109.82 459.373,-1087.06"/>
<ellipse fill="none" stroke="#655164" cx="443.572" cy="-1164.97" rx="4.00001" ry="4.00001"/>
<polygon fill="#655164" stroke="#655164" points="459.395,-1086.95 465.792,-1078.04 460.388,-1082.05 461.382,-1077.15 461.382,-1077.15 461.382,-1077.15 460.388,-1082.05 456.972,-1076.26 459.395,-1086.95 459.395,-1086.95"/>
</g>
<!-- ServiceTransition -->
<g id="node17" class="node"><title>ServiceTransition</title>
<path fill="none" stroke="black" d="M179,-733C179,-733 289,-733 289,-733 295,-733 301,-739 301,-745 301,-745 301,-857 301,-857 301,-863 295,-869 289,-869 289,-869 179,-869 179,-869 173,-869 167,-863 167,-857 167,-857 167,-745 167,-745 167,-739 173,-733 179,-733"/>
<text text-anchor="middle" x="234" y="-853.8" font-family="Times,serif" font-size="14.00">ServiceTransition</text>
<polyline fill="none" stroke="black" points="167,-846 301,-846 "/>
<text text-anchor="start" x="175" y="-830.8" font-family="Times,serif" font-size="14.00">id :integer</text>
<text text-anchor="start" x="175" y="-815.8" font-family="Times,serif" font-size="14.00">to_state :string</text>
<text text-anchor="start" x="175" y="-800.8" font-family="Times,serif" font-size="14.00">metadata :text</text>
<text text-anchor="start" x="175" y="-785.8" font-family="Times,serif" font-size="14.00">sort_key :integer</text>
<text text-anchor="start" x="175" y="-770.8" font-family="Times,serif" font-size="14.00">service_id :integer</text>
<text text-anchor="start" x="175" y="-755.8" font-family="Times,serif" font-size="14.00">created_at :datetime</text>
<text text-anchor="start" x="175" y="-740.8" font-family="Times,serif" font-size="14.00">updated_at :datetime</text>
</g>
<!-- Service&#45;&gt;ServiceTransition -->
<g id="edge16" class="edge"><title>Service&#45;&gt;ServiceTransition</title>
<path fill="none" stroke="#c2c0e9" d="M332.656,-1259.07C288.692,-1234.93 238.994,-1198.76 214,-1150 170.477,-1065.09 188.153,-952.762 208.152,-879.001"/>
<ellipse fill="none" stroke="#c2c0e9" cx="336.418" cy="-1261.1" rx="4.00002" ry="4.00002"/>
<polygon fill="#c2c0e9" stroke="#c2c0e9" points="208.169,-878.938 215.189,-870.513 209.512,-874.122 210.854,-869.305 210.854,-869.305 210.854,-869.305 209.512,-874.122 206.52,-868.097 208.169,-878.938 208.169,-878.938"/>
</g>
<!-- Service&#45;&gt;User -->
<g id="edge21" class="edge"><title>Service&#45;&gt;User</title>
<path fill="none" stroke="#0d72eb" d="M333.615,-1238.31C300.025,-1210 265.014,-1172.77 247,-1130 226.125,-1080.44 215.437,-931.541 247,-888 262.096,-867.176 283.937,-888.31 302,-870 393.795,-776.948 438.347,-637.294 459.925,-519.512"/>
<ellipse fill="none" stroke="#0d72eb" cx="336.786" cy="-1240.94" rx="4.00002" ry="4.00002"/>
<polygon fill="#0d72eb" stroke="#0d72eb" points="459.931,-519.476 466.12,-510.424 460.811,-514.554 461.69,-509.632 461.69,-509.632 461.69,-509.632 460.811,-514.554 457.261,-508.841 459.931,-519.476 459.931,-519.476"/>
</g>
<!-- Service&#45;&gt;PaperTrail::Version -->
<g id="edge22" class="edge"><title>Service&#45;&gt;PaperTrail::Version</title>
<path fill="none" stroke="#457d7a" d="M332.561,-1260.07C279.772,-1232.72 215.939,-1189.58 184,-1130 79.4259,-934.936 202.257,-198.206 229.056,-46.4423"/>
<ellipse fill="none" stroke="#457d7a" cx="336.367" cy="-1262.01" rx="4.00002" ry="4.00002"/>
<polygon fill="#457d7a" stroke="#457d7a" points="229.132,-46.011 235.313,-36.9527 230.007,-41.0881 230.882,-36.1653 230.882,-36.1653 230.882,-36.1653 230.007,-41.0881 226.451,-35.3778 229.132,-46.011 229.132,-46.011"/>
<text text-anchor="middle" x="181.5" y="-634.3" font-family="Times,serif" font-size="14.00">versions</text>
</g>
<!-- ServiceDispatcher -->
<g id="node16" class="node"><title>ServiceDispatcher</title>
<polygon fill="none" stroke="black" points="1493.5,-2007 1493.5,-2053 1612.5,-2053 1612.5,-2007 1493.5,-2007"/>
<text text-anchor="middle" x="1553" y="-2037.8" font-family="Times,serif" font-size="14.00">ServiceDispatcher</text>
<polyline fill="none" stroke="black" points="1493.5,-2030 1612.5,-2030 "/>
<text text-anchor="middle" x="1553" y="-2014.8" font-family="Times,serif" font-size="14.00"> </text>
</g>
<!-- ServiceTransition&#45;&gt;PaperTrail::Version -->
<g id="edge23" class="edge"><title>ServiceTransition&#45;&gt;PaperTrail::Version</title>
<path fill="none" stroke="#3d4ee0" d="M234,-724.617C234,-555.902 234,-154.21 234,-46.1576"/>
<ellipse fill="none" stroke="#3d4ee0" cx="234" cy="-728.736" rx="4" ry="4"/>
<polygon fill="#3d4ee0" stroke="#3d4ee0" points="234,-46.0852 238.5,-36.0852 234,-41.0852 234,-36.0852 234,-36.0852 234,-36.0852 234,-41.0852 229.5,-36.0853 234,-46.0852 234,-46.0852"/>
<text text-anchor="middle" x="257.5" y="-532.3" font-family="Times,serif" font-size="14.00">versions</text>
</g>
<!-- User&#45;&gt;PaperTrail::Version -->
<g id="edge24" class="edge"><title>User&#45;&gt;PaperTrail::Version</title>
<path fill="none" stroke="#c3609a" d="M371.949,-175.454C328.298,-125.947 282.097,-73.5487 255.778,-43.6998"/>
<ellipse fill="none" stroke="#c3609a" cx="374.81" cy="-178.699" rx="4.00002" ry="4.00002"/>
<polygon fill="#c3609a" stroke="#c3609a" points="255.515,-43.4007 252.276,-32.9238 252.208,-39.6503 248.901,-35.8999 248.901,-35.8999 248.901,-35.8999 252.208,-39.6503 245.526,-38.8761 255.515,-43.4007 255.515,-43.4007"/>
<text text-anchor="middle" x="298.5" y="-58.3" font-family="Times,serif" font-size="14.00">versions</text>
</g>
<!-- User&#45;&gt;ServicesRequest -->
<g id="edge25" class="edge"><title>User&#45;&gt;ServicesRequest</title>
<path fill="none" stroke="#a3874c" d="M480,-79.9973C480,-67.2365 480,-55.7751 480,-46.3253"/>
<ellipse fill="none" stroke="#a3874c" cx="480" cy="-84.3248" rx="4" ry="4"/>
<polygon fill="#a3874c" stroke="#a3874c" points="480,-46.1987 484.5,-36.1987 480,-41.1987 480,-36.1987 480,-36.1987 480,-36.1987 480,-41.1987 475.5,-36.1987 480,-46.1987 480,-46.1987"/>
</g>
</g>
</svg>
