<?xml version="1.0" encoding="UTF-8" standalone="no"?>
<!DOCTYPE svg PUBLIC "-//W3C//DTD SVG 1.1//EN"
 "http://www.w3.org/Graphics/SVG/1.1/DTD/svg11.dtd">
<!-- Generated by graphviz version 2.36.0 (20140111.2315)
 -->
<!-- Title: models_diagram Pages: 1 -->
<svg width="408pt" height="302pt"
 viewBox="0.00 0.00 408.00 302.00" xmlns="http://www.w3.org/2000/svg" xmlns:xlink="http://www.w3.org/1999/xlink">
<g id="graph0" class="graph" transform="scale(1 1) rotate(0) translate(4 298)">
<title>models_diagram</title>
<polygon fill="white" stroke="none" points="-4,4 -4,-298 404,-298 404,4 -4,4"/>
<!-- _diagram_info -->
<g id="node1" class="node"><title>_diagram_info</title>
<text text-anchor="start" x="8" y="-279.6" font-family="Times,serif" font-size="13.00">Models diagram</text>
<text text-anchor="start" x="8" y="-265.6" font-family="Times,serif" font-size="13.00">Date: Dec 10 2014 &#45; 19:05</text>
<text text-anchor="start" x="8" y="-251.6" font-family="Times,serif" font-size="13.00">Migration version: 20141210210525</text>
<text text-anchor="start" x="8" y="-237.6" font-family="Times,serif" font-size="13.00">Generated by RailRoady 1.2.0</text>
<text text-anchor="start" x="8" y="-223.6" font-family="Times,serif" font-size="13.00">http://railroady.prestonlee.com</text>
</g>
<!-- Contact -->
<g id="node2" class="node"><title>Contact</title>
<ellipse fill="none" stroke="black" cx="211" cy="-18" rx="38.4949" ry="18"/>
<text text-anchor="middle" x="211" y="-14.3" font-family="Times,serif" font-size="14.00">Contact</text>
</g>
<!-- Flow -->
<g id="node3" class="node"><title>Flow</title>
<ellipse fill="none" stroke="black" cx="305" cy="-18" rx="29.3722" ry="18"/>
<text text-anchor="middle" x="305" y="-14.3" font-family="Times,serif" font-size="14.00">Flow</text>
</g>
<!-- Lease -->
<g id="node4" class="node"><title>Lease</title>
<ellipse fill="none" stroke="black" cx="254" cy="-90" rx="31.2735" ry="18"/>
<text text-anchor="middle" x="254" y="-86.3" font-family="Times,serif" font-size="14.00">Lease</text>
</g>
<!-- Lease&#45;&gt;Contact -->
<g id="edge1" class="edge"><title>Lease&#45;&gt;Contact</title>
<path fill="none" stroke="#5c7b1b" d="M239.794,-65.8736C235.524,-58.9236 230.82,-51.265 226.473,-44.1885"/>
<ellipse fill="none" stroke="#5c7b1b" cx="241.933" cy="-69.3563" rx="4.00002" ry="4.00002"/>
<polygon fill="#5c7b1b" stroke="#5c7b1b" points="226.452,-44.1542 225.052,-33.278 223.835,-39.8938 221.218,-35.6334 221.218,-35.6334 221.218,-35.6334 223.835,-39.8938 217.383,-37.9888 226.452,-44.1542 226.452,-44.1542"/>
</g>
<!-- Lease&#45;&gt;Flow -->
<g id="edge2" class="edge"><title>Lease&#45;&gt;Flow</title>
<path fill="none" stroke="#5bbee2" d="M270.317,-66.6045C275.737,-59.1653 281.796,-50.8493 287.314,-43.275"/>
<ellipse fill="none" stroke="#5bbee2" cx="267.928" cy="-69.883" rx="4.00002" ry="4.00002"/>
<polygon fill="#5bbee2" stroke="#5bbee2" points="287.584,-42.9036 297.11,-37.4711 290.529,-38.8624 293.473,-34.8212 293.473,-34.8212 293.473,-34.8212 290.529,-38.8624 289.836,-32.1713 287.584,-42.9036 287.584,-42.9036"/>
</g>
<!-- Service -->
<g id="node5" class="node"><title>Service</title>
<ellipse fill="none" stroke="black" cx="254" cy="-162" rx="37.5442" ry="18"/>
<text text-anchor="middle" x="254" y="-158.3" font-family="Times,serif" font-size="14.00">Service</text>
</g>
<!-- Service&#45;&gt;Contact -->
<g id="edge4" class="edge"><title>Service&#45;&gt;Contact</title>
<path fill="none" stroke="#89b4bd" d="M232.207,-139.352C224.652,-130.417 217.063,-119.471 213,-108 205.958,-88.1212 205.855,-64.1482 207.294,-46.0933"/>
<ellipse fill="none" stroke="#89b4bd" cx="234.994" cy="-142.49" rx="4.00002" ry="4.00002"/>
<polygon fill="#89b4bd" stroke="#89b4bd" points="207.312,-45.9147 212.788,-36.4137 207.811,-40.9397 208.31,-35.9646 208.31,-35.9646 208.31,-35.9646 207.811,-40.9397 203.833,-35.5155 207.312,-45.9147 207.312,-45.9147"/>
</g>
<!-- Service&#45;&gt;Flow -->
<g id="edge3" class="edge"><title>Service&#45;&gt;Flow</title>
<path fill="none" stroke="#bbbfe5" d="M274.673,-139.044C281.968,-130.07 289.474,-119.178 294,-108 301.973,-88.3087 304.572,-64.3233 305.26,-46.216"/>
<ellipse fill="none" stroke="#bbbfe5" cx="272.029" cy="-142.164" rx="4.00002" ry="4.00002"/>
<polygon fill="#bbbfe5" stroke="#bbbfe5" points="305.264,-46.0498 309.971,-36.1457 305.368,-41.0509 305.472,-36.052 305.472,-36.052 305.472,-36.052 305.368,-41.0509 300.973,-35.9582 305.264,-46.0498 305.264,-46.0498"/>
</g>
<!-- Service&#45;&gt;Lease -->
<g id="edge5" class="edge"><title>Service&#45;&gt;Lease</title>
<path fill="none" stroke="#72894d" d="M254,-135.64C254,-130.063 254,-124.132 254,-118.476"/>
<ellipse fill="none" stroke="#72894d" cx="254" cy="-139.697" rx="4" ry="4"/>
<polygon fill="#72894d" stroke="#72894d" points="254,-118.104 258.5,-108.104 254,-113.104 254,-108.104 254,-108.104 254,-108.104 254,-113.104 249.5,-108.104 254,-118.104 254,-118.104"/>
</g>
<!-- ServiceCreator -->
<g id="node6" class="node"><title>ServiceCreator</title>
<polygon fill="none" stroke="black" points="400,-273 300,-273 300,-237 400,-237 400,-273"/>
<text text-anchor="middle" x="350" y="-251.3" font-family="Times,serif" font-size="14.00">ServiceCreator</text>
</g>
<!-- User -->
<g id="node7" class="node"><title>User</title>
<ellipse fill="none" stroke="black" cx="254" cy="-255" rx="27.4223" ry="18"/>
<text text-anchor="middle" x="254" y="-251.3" font-family="Times,serif" font-size="14.00">User</text>
</g>
<!-- User&#45;&gt;Service -->
<g id="edge6" class="edge"><title>User&#45;&gt;Service</title>
<path fill="none" stroke="#4069ea" d="M254,-228.729C254,-216.725 254,-202.362 254,-190.129"/>
<ellipse fill="none" stroke="#4069ea" cx="254" cy="-232.884" rx="4" ry="4"/>
<polygon fill="#4069ea" stroke="#4069ea" points="254,-190.04 258.5,-180.04 254,-185.04 254,-180.04 254,-180.04 254,-180.04 254,-185.04 249.5,-180.04 254,-190.04 254,-190.04"/>
</g>
</g>
</svg>
